M48
; DRILL file {KiCad (5.1.6)-1} date 12/19/20 18:50:24
; FORMAT={-:-/ absolute / inch / decimal}
; #@! TF.CreationDate,2020-12-19T18:50:24-05:00
; #@! TF.GenerationSoftware,Kicad,Pcbnew,(5.1.6)-1
; #@! TF.FileFunction,Plated,1,2,PTH
FMAT,2
INCH
T1C0.0157
T2C0.0315
T3C0.0394
%
G90
G05
T1
X4.8071Y-3.4677
X5.1539Y-3.2488
X5.2913Y-3.4661
X5.6571Y-3.2496
X5.7913Y-3.4713
X6.1602Y-3.4299
X6.1728Y-3.5984
X6.1945Y-3.7567
T3
X5.689Y-3.6614
X5.8858Y-3.563
X5.8858Y-3.7598
X4.7047Y-3.6614
X4.9016Y-3.563
X4.9016Y-3.7598
X5.1969Y-3.6614
X5.3937Y-3.563
X5.3937Y-3.7598
X6.2598Y-3.3661
X6.2598Y-3.4661
X6.2598Y-3.5661
X6.2598Y-3.6661
T2
G00X4.1811Y-3.4606
M15
G01X4.1811Y-3.5472
M16
G05
G00X4.248Y-3.6929
M15
G01X4.3346Y-3.6929
M16
G05
G00X4.4094Y-3.4528
M15
G01X4.4094Y-3.5551
M16
G05
T0
M30
