%TF.GenerationSoftware,KiCad,Pcbnew,(5.1.6)-1*%
%TF.CreationDate,2020-12-19T18:50:18-05:00*%
%TF.ProjectId,driver_RGB,64726976-6572-45f5-9247-422e6b696361,rev?*%
%TF.SameCoordinates,Original*%
%TF.FileFunction,Copper,L2,Bot*%
%TF.FilePolarity,Positive*%
%FSLAX46Y46*%
G04 Gerber Fmt 4.6, Leading zero omitted, Abs format (unit mm)*
G04 Created by KiCad (PCBNEW (5.1.6)-1) date 2020-12-19 18:50:18*
%MOMM*%
%LPD*%
G01*
G04 APERTURE LIST*
%TA.AperFunction,ComponentPad*%
%ADD10C,1.550000*%
%TD*%
%TA.AperFunction,ComponentPad*%
%ADD11R,1.550000X1.550000*%
%TD*%
%TA.AperFunction,ComponentPad*%
%ADD12R,1.800000X4.400000*%
%TD*%
%TA.AperFunction,ComponentPad*%
%ADD13O,1.800000X4.000000*%
%TD*%
%TA.AperFunction,ComponentPad*%
%ADD14O,4.000000X1.800000*%
%TD*%
%TA.AperFunction,ComponentPad*%
%ADD15O,1.700000X1.700000*%
%TD*%
%TA.AperFunction,ComponentPad*%
%ADD16R,1.700000X1.700000*%
%TD*%
%TA.AperFunction,ViaPad*%
%ADD17C,0.800000*%
%TD*%
%TA.AperFunction,Conductor*%
%ADD18C,0.254000*%
%TD*%
G04 APERTURE END LIST*
D10*
%TO.P,RV3,2*%
%TO.N,Net-(R7-Pad1)*%
X144500000Y-93000000D03*
D11*
%TO.P,RV3,1*%
%TO.N,+12V*%
X149500000Y-90500000D03*
D10*
%TO.P,RV3,3*%
%TO.N,N/C*%
X149500000Y-95500000D03*
%TD*%
%TO.P,RV2,2*%
%TO.N,Net-(R4-Pad1)*%
X119500000Y-93000000D03*
D11*
%TO.P,RV2,1*%
%TO.N,+12V*%
X124500000Y-90500000D03*
D10*
%TO.P,RV2,3*%
%TO.N,N/C*%
X124500000Y-95500000D03*
%TD*%
%TO.P,RV1,2*%
%TO.N,Net-(R1-Pad1)*%
X132000000Y-93000000D03*
D11*
%TO.P,RV1,1*%
%TO.N,+12V*%
X137000000Y-90500000D03*
D10*
%TO.P,RV1,3*%
%TO.N,N/C*%
X137000000Y-95500000D03*
%TD*%
D12*
%TO.P,J2,1*%
%TO.N,+12V*%
X112000000Y-89000000D03*
D13*
%TO.P,J2,2*%
%TO.N,GND*%
X106200000Y-89000000D03*
D14*
%TO.P,J2,3*%
%TO.N,N/C*%
X109000000Y-93800000D03*
%TD*%
D15*
%TO.P,J1,4*%
%TO.N,/BLUE/BLUE*%
X159000000Y-93120000D03*
%TO.P,J1,3*%
%TO.N,/RED/RED*%
X159000000Y-90580000D03*
%TO.P,J1,2*%
%TO.N,/GREEN/GREEN*%
X159000000Y-88040000D03*
D16*
%TO.P,J1,1*%
%TO.N,+12V*%
X159000000Y-85500000D03*
%TD*%
D17*
%TO.N,GND*%
X143690000Y-82540000D03*
X134400000Y-88040000D03*
X130910000Y-82520000D03*
X122100000Y-88080000D03*
X147100000Y-88170000D03*
X156470000Y-87120000D03*
X156790000Y-91400000D03*
X157340000Y-95420000D03*
%TD*%
D18*
%TO.N,GND*%
G36*
X162340001Y-98840000D02*
G01*
X103660000Y-98840000D01*
X103660000Y-95361127D01*
X123090000Y-95361127D01*
X123090000Y-95638873D01*
X123144186Y-95911282D01*
X123250475Y-96167885D01*
X123404782Y-96398822D01*
X123601178Y-96595218D01*
X123832115Y-96749525D01*
X124088718Y-96855814D01*
X124361127Y-96910000D01*
X124638873Y-96910000D01*
X124911282Y-96855814D01*
X125167885Y-96749525D01*
X125398822Y-96595218D01*
X125595218Y-96398822D01*
X125749525Y-96167885D01*
X125855814Y-95911282D01*
X125910000Y-95638873D01*
X125910000Y-95361127D01*
X135590000Y-95361127D01*
X135590000Y-95638873D01*
X135644186Y-95911282D01*
X135750475Y-96167885D01*
X135904782Y-96398822D01*
X136101178Y-96595218D01*
X136332115Y-96749525D01*
X136588718Y-96855814D01*
X136861127Y-96910000D01*
X137138873Y-96910000D01*
X137411282Y-96855814D01*
X137667885Y-96749525D01*
X137898822Y-96595218D01*
X138095218Y-96398822D01*
X138249525Y-96167885D01*
X138355814Y-95911282D01*
X138410000Y-95638873D01*
X138410000Y-95361127D01*
X148090000Y-95361127D01*
X148090000Y-95638873D01*
X148144186Y-95911282D01*
X148250475Y-96167885D01*
X148404782Y-96398822D01*
X148601178Y-96595218D01*
X148832115Y-96749525D01*
X149088718Y-96855814D01*
X149361127Y-96910000D01*
X149638873Y-96910000D01*
X149911282Y-96855814D01*
X150167885Y-96749525D01*
X150398822Y-96595218D01*
X150595218Y-96398822D01*
X150749525Y-96167885D01*
X150855814Y-95911282D01*
X150910000Y-95638873D01*
X150910000Y-95361127D01*
X150855814Y-95088718D01*
X150749525Y-94832115D01*
X150595218Y-94601178D01*
X150398822Y-94404782D01*
X150167885Y-94250475D01*
X149911282Y-94144186D01*
X149638873Y-94090000D01*
X149361127Y-94090000D01*
X149088718Y-94144186D01*
X148832115Y-94250475D01*
X148601178Y-94404782D01*
X148404782Y-94601178D01*
X148250475Y-94832115D01*
X148144186Y-95088718D01*
X148090000Y-95361127D01*
X138410000Y-95361127D01*
X138355814Y-95088718D01*
X138249525Y-94832115D01*
X138095218Y-94601178D01*
X137898822Y-94404782D01*
X137667885Y-94250475D01*
X137411282Y-94144186D01*
X137138873Y-94090000D01*
X136861127Y-94090000D01*
X136588718Y-94144186D01*
X136332115Y-94250475D01*
X136101178Y-94404782D01*
X135904782Y-94601178D01*
X135750475Y-94832115D01*
X135644186Y-95088718D01*
X135590000Y-95361127D01*
X125910000Y-95361127D01*
X125855814Y-95088718D01*
X125749525Y-94832115D01*
X125595218Y-94601178D01*
X125398822Y-94404782D01*
X125167885Y-94250475D01*
X124911282Y-94144186D01*
X124638873Y-94090000D01*
X124361127Y-94090000D01*
X124088718Y-94144186D01*
X123832115Y-94250475D01*
X123601178Y-94404782D01*
X123404782Y-94601178D01*
X123250475Y-94832115D01*
X123144186Y-95088718D01*
X123090000Y-95361127D01*
X103660000Y-95361127D01*
X103660000Y-93800000D01*
X106357573Y-93800000D01*
X106387210Y-94100913D01*
X106474983Y-94390261D01*
X106617519Y-94656927D01*
X106809339Y-94890661D01*
X107043073Y-95082481D01*
X107309739Y-95225017D01*
X107599087Y-95312790D01*
X107824592Y-95335000D01*
X110175408Y-95335000D01*
X110400913Y-95312790D01*
X110690261Y-95225017D01*
X110956927Y-95082481D01*
X111190661Y-94890661D01*
X111382481Y-94656927D01*
X111525017Y-94390261D01*
X111612790Y-94100913D01*
X111642427Y-93800000D01*
X111612790Y-93499087D01*
X111525017Y-93209739D01*
X111382481Y-92943073D01*
X111315230Y-92861127D01*
X118090000Y-92861127D01*
X118090000Y-93138873D01*
X118144186Y-93411282D01*
X118250475Y-93667885D01*
X118404782Y-93898822D01*
X118601178Y-94095218D01*
X118832115Y-94249525D01*
X119088718Y-94355814D01*
X119361127Y-94410000D01*
X119638873Y-94410000D01*
X119911282Y-94355814D01*
X120167885Y-94249525D01*
X120398822Y-94095218D01*
X120595218Y-93898822D01*
X120749525Y-93667885D01*
X120855814Y-93411282D01*
X120910000Y-93138873D01*
X120910000Y-92861127D01*
X130590000Y-92861127D01*
X130590000Y-93138873D01*
X130644186Y-93411282D01*
X130750475Y-93667885D01*
X130904782Y-93898822D01*
X131101178Y-94095218D01*
X131332115Y-94249525D01*
X131588718Y-94355814D01*
X131861127Y-94410000D01*
X132138873Y-94410000D01*
X132411282Y-94355814D01*
X132667885Y-94249525D01*
X132898822Y-94095218D01*
X133095218Y-93898822D01*
X133249525Y-93667885D01*
X133355814Y-93411282D01*
X133410000Y-93138873D01*
X133410000Y-92861127D01*
X143090000Y-92861127D01*
X143090000Y-93138873D01*
X143144186Y-93411282D01*
X143250475Y-93667885D01*
X143404782Y-93898822D01*
X143601178Y-94095218D01*
X143832115Y-94249525D01*
X144088718Y-94355814D01*
X144361127Y-94410000D01*
X144638873Y-94410000D01*
X144911282Y-94355814D01*
X145167885Y-94249525D01*
X145398822Y-94095218D01*
X145595218Y-93898822D01*
X145749525Y-93667885D01*
X145855814Y-93411282D01*
X145910000Y-93138873D01*
X145910000Y-92861127D01*
X145855814Y-92588718D01*
X145749525Y-92332115D01*
X145595218Y-92101178D01*
X145398822Y-91904782D01*
X145167885Y-91750475D01*
X144911282Y-91644186D01*
X144638873Y-91590000D01*
X144361127Y-91590000D01*
X144088718Y-91644186D01*
X143832115Y-91750475D01*
X143601178Y-91904782D01*
X143404782Y-92101178D01*
X143250475Y-92332115D01*
X143144186Y-92588718D01*
X143090000Y-92861127D01*
X133410000Y-92861127D01*
X133355814Y-92588718D01*
X133249525Y-92332115D01*
X133095218Y-92101178D01*
X132898822Y-91904782D01*
X132667885Y-91750475D01*
X132411282Y-91644186D01*
X132138873Y-91590000D01*
X131861127Y-91590000D01*
X131588718Y-91644186D01*
X131332115Y-91750475D01*
X131101178Y-91904782D01*
X130904782Y-92101178D01*
X130750475Y-92332115D01*
X130644186Y-92588718D01*
X130590000Y-92861127D01*
X120910000Y-92861127D01*
X120855814Y-92588718D01*
X120749525Y-92332115D01*
X120595218Y-92101178D01*
X120398822Y-91904782D01*
X120167885Y-91750475D01*
X119911282Y-91644186D01*
X119638873Y-91590000D01*
X119361127Y-91590000D01*
X119088718Y-91644186D01*
X118832115Y-91750475D01*
X118601178Y-91904782D01*
X118404782Y-92101178D01*
X118250475Y-92332115D01*
X118144186Y-92588718D01*
X118090000Y-92861127D01*
X111315230Y-92861127D01*
X111190661Y-92709339D01*
X110956927Y-92517519D01*
X110690261Y-92374983D01*
X110400913Y-92287210D01*
X110175408Y-92265000D01*
X107824592Y-92265000D01*
X107599087Y-92287210D01*
X107309739Y-92374983D01*
X107043073Y-92517519D01*
X106809339Y-92709339D01*
X106617519Y-92943073D01*
X106474983Y-93209739D01*
X106387210Y-93499087D01*
X106357573Y-93800000D01*
X103660000Y-93800000D01*
X103660000Y-89127000D01*
X104665000Y-89127000D01*
X104665000Y-90227000D01*
X104719271Y-90524023D01*
X104830446Y-90804751D01*
X104994252Y-91058396D01*
X105204394Y-91275210D01*
X105452796Y-91446862D01*
X105729913Y-91566755D01*
X105835260Y-91591036D01*
X106073000Y-91470378D01*
X106073000Y-89127000D01*
X106327000Y-89127000D01*
X106327000Y-91470378D01*
X106564740Y-91591036D01*
X106670087Y-91566755D01*
X106947204Y-91446862D01*
X107195606Y-91275210D01*
X107405748Y-91058396D01*
X107569554Y-90804751D01*
X107680729Y-90524023D01*
X107735000Y-90227000D01*
X107735000Y-89127000D01*
X106327000Y-89127000D01*
X106073000Y-89127000D01*
X104665000Y-89127000D01*
X103660000Y-89127000D01*
X103660000Y-87773000D01*
X104665000Y-87773000D01*
X104665000Y-88873000D01*
X106073000Y-88873000D01*
X106073000Y-86529622D01*
X106327000Y-86529622D01*
X106327000Y-88873000D01*
X107735000Y-88873000D01*
X107735000Y-87773000D01*
X107680729Y-87475977D01*
X107569554Y-87195249D01*
X107405748Y-86941604D01*
X107268502Y-86800000D01*
X110461928Y-86800000D01*
X110461928Y-91200000D01*
X110474188Y-91324482D01*
X110510498Y-91444180D01*
X110569463Y-91554494D01*
X110648815Y-91651185D01*
X110745506Y-91730537D01*
X110855820Y-91789502D01*
X110975518Y-91825812D01*
X111100000Y-91838072D01*
X112900000Y-91838072D01*
X113024482Y-91825812D01*
X113144180Y-91789502D01*
X113254494Y-91730537D01*
X113351185Y-91651185D01*
X113430537Y-91554494D01*
X113489502Y-91444180D01*
X113525812Y-91324482D01*
X113538072Y-91200000D01*
X113538072Y-89725000D01*
X123086928Y-89725000D01*
X123086928Y-91275000D01*
X123099188Y-91399482D01*
X123135498Y-91519180D01*
X123194463Y-91629494D01*
X123273815Y-91726185D01*
X123370506Y-91805537D01*
X123480820Y-91864502D01*
X123600518Y-91900812D01*
X123725000Y-91913072D01*
X125275000Y-91913072D01*
X125399482Y-91900812D01*
X125519180Y-91864502D01*
X125629494Y-91805537D01*
X125726185Y-91726185D01*
X125805537Y-91629494D01*
X125864502Y-91519180D01*
X125900812Y-91399482D01*
X125913072Y-91275000D01*
X125913072Y-89725000D01*
X135586928Y-89725000D01*
X135586928Y-91275000D01*
X135599188Y-91399482D01*
X135635498Y-91519180D01*
X135694463Y-91629494D01*
X135773815Y-91726185D01*
X135870506Y-91805537D01*
X135980820Y-91864502D01*
X136100518Y-91900812D01*
X136225000Y-91913072D01*
X137775000Y-91913072D01*
X137899482Y-91900812D01*
X138019180Y-91864502D01*
X138129494Y-91805537D01*
X138226185Y-91726185D01*
X138305537Y-91629494D01*
X138364502Y-91519180D01*
X138400812Y-91399482D01*
X138413072Y-91275000D01*
X138413072Y-89725000D01*
X148086928Y-89725000D01*
X148086928Y-91275000D01*
X148099188Y-91399482D01*
X148135498Y-91519180D01*
X148194463Y-91629494D01*
X148273815Y-91726185D01*
X148370506Y-91805537D01*
X148480820Y-91864502D01*
X148600518Y-91900812D01*
X148725000Y-91913072D01*
X150275000Y-91913072D01*
X150399482Y-91900812D01*
X150519180Y-91864502D01*
X150629494Y-91805537D01*
X150726185Y-91726185D01*
X150805537Y-91629494D01*
X150864502Y-91519180D01*
X150900812Y-91399482D01*
X150913072Y-91275000D01*
X150913072Y-89725000D01*
X150900812Y-89600518D01*
X150864502Y-89480820D01*
X150805537Y-89370506D01*
X150726185Y-89273815D01*
X150629494Y-89194463D01*
X150519180Y-89135498D01*
X150399482Y-89099188D01*
X150275000Y-89086928D01*
X148725000Y-89086928D01*
X148600518Y-89099188D01*
X148480820Y-89135498D01*
X148370506Y-89194463D01*
X148273815Y-89273815D01*
X148194463Y-89370506D01*
X148135498Y-89480820D01*
X148099188Y-89600518D01*
X148086928Y-89725000D01*
X138413072Y-89725000D01*
X138400812Y-89600518D01*
X138364502Y-89480820D01*
X138305537Y-89370506D01*
X138226185Y-89273815D01*
X138129494Y-89194463D01*
X138019180Y-89135498D01*
X137899482Y-89099188D01*
X137775000Y-89086928D01*
X136225000Y-89086928D01*
X136100518Y-89099188D01*
X135980820Y-89135498D01*
X135870506Y-89194463D01*
X135773815Y-89273815D01*
X135694463Y-89370506D01*
X135635498Y-89480820D01*
X135599188Y-89600518D01*
X135586928Y-89725000D01*
X125913072Y-89725000D01*
X125900812Y-89600518D01*
X125864502Y-89480820D01*
X125805537Y-89370506D01*
X125726185Y-89273815D01*
X125629494Y-89194463D01*
X125519180Y-89135498D01*
X125399482Y-89099188D01*
X125275000Y-89086928D01*
X123725000Y-89086928D01*
X123600518Y-89099188D01*
X123480820Y-89135498D01*
X123370506Y-89194463D01*
X123273815Y-89273815D01*
X123194463Y-89370506D01*
X123135498Y-89480820D01*
X123099188Y-89600518D01*
X123086928Y-89725000D01*
X113538072Y-89725000D01*
X113538072Y-86800000D01*
X113525812Y-86675518D01*
X113489502Y-86555820D01*
X113430537Y-86445506D01*
X113351185Y-86348815D01*
X113254494Y-86269463D01*
X113144180Y-86210498D01*
X113024482Y-86174188D01*
X112900000Y-86161928D01*
X111100000Y-86161928D01*
X110975518Y-86174188D01*
X110855820Y-86210498D01*
X110745506Y-86269463D01*
X110648815Y-86348815D01*
X110569463Y-86445506D01*
X110510498Y-86555820D01*
X110474188Y-86675518D01*
X110461928Y-86800000D01*
X107268502Y-86800000D01*
X107195606Y-86724790D01*
X106947204Y-86553138D01*
X106670087Y-86433245D01*
X106564740Y-86408964D01*
X106327000Y-86529622D01*
X106073000Y-86529622D01*
X105835260Y-86408964D01*
X105729913Y-86433245D01*
X105452796Y-86553138D01*
X105204394Y-86724790D01*
X104994252Y-86941604D01*
X104830446Y-87195249D01*
X104719271Y-87475977D01*
X104665000Y-87773000D01*
X103660000Y-87773000D01*
X103660000Y-84650000D01*
X157511928Y-84650000D01*
X157511928Y-86350000D01*
X157524188Y-86474482D01*
X157560498Y-86594180D01*
X157619463Y-86704494D01*
X157698815Y-86801185D01*
X157795506Y-86880537D01*
X157905820Y-86939502D01*
X157978380Y-86961513D01*
X157846525Y-87093368D01*
X157684010Y-87336589D01*
X157572068Y-87606842D01*
X157515000Y-87893740D01*
X157515000Y-88186260D01*
X157572068Y-88473158D01*
X157684010Y-88743411D01*
X157846525Y-88986632D01*
X158053368Y-89193475D01*
X158227760Y-89310000D01*
X158053368Y-89426525D01*
X157846525Y-89633368D01*
X157684010Y-89876589D01*
X157572068Y-90146842D01*
X157515000Y-90433740D01*
X157515000Y-90726260D01*
X157572068Y-91013158D01*
X157684010Y-91283411D01*
X157846525Y-91526632D01*
X158053368Y-91733475D01*
X158227760Y-91850000D01*
X158053368Y-91966525D01*
X157846525Y-92173368D01*
X157684010Y-92416589D01*
X157572068Y-92686842D01*
X157515000Y-92973740D01*
X157515000Y-93266260D01*
X157572068Y-93553158D01*
X157684010Y-93823411D01*
X157846525Y-94066632D01*
X158053368Y-94273475D01*
X158296589Y-94435990D01*
X158566842Y-94547932D01*
X158853740Y-94605000D01*
X159146260Y-94605000D01*
X159433158Y-94547932D01*
X159703411Y-94435990D01*
X159946632Y-94273475D01*
X160153475Y-94066632D01*
X160315990Y-93823411D01*
X160427932Y-93553158D01*
X160485000Y-93266260D01*
X160485000Y-92973740D01*
X160427932Y-92686842D01*
X160315990Y-92416589D01*
X160153475Y-92173368D01*
X159946632Y-91966525D01*
X159772240Y-91850000D01*
X159946632Y-91733475D01*
X160153475Y-91526632D01*
X160315990Y-91283411D01*
X160427932Y-91013158D01*
X160485000Y-90726260D01*
X160485000Y-90433740D01*
X160427932Y-90146842D01*
X160315990Y-89876589D01*
X160153475Y-89633368D01*
X159946632Y-89426525D01*
X159772240Y-89310000D01*
X159946632Y-89193475D01*
X160153475Y-88986632D01*
X160315990Y-88743411D01*
X160427932Y-88473158D01*
X160485000Y-88186260D01*
X160485000Y-87893740D01*
X160427932Y-87606842D01*
X160315990Y-87336589D01*
X160153475Y-87093368D01*
X160021620Y-86961513D01*
X160094180Y-86939502D01*
X160204494Y-86880537D01*
X160301185Y-86801185D01*
X160380537Y-86704494D01*
X160439502Y-86594180D01*
X160475812Y-86474482D01*
X160488072Y-86350000D01*
X160488072Y-84650000D01*
X160475812Y-84525518D01*
X160439502Y-84405820D01*
X160380537Y-84295506D01*
X160301185Y-84198815D01*
X160204494Y-84119463D01*
X160094180Y-84060498D01*
X159974482Y-84024188D01*
X159850000Y-84011928D01*
X158150000Y-84011928D01*
X158025518Y-84024188D01*
X157905820Y-84060498D01*
X157795506Y-84119463D01*
X157698815Y-84198815D01*
X157619463Y-84295506D01*
X157560498Y-84405820D01*
X157524188Y-84525518D01*
X157511928Y-84650000D01*
X103660000Y-84650000D01*
X103660000Y-80160000D01*
X162340000Y-80160000D01*
X162340001Y-98840000D01*
G37*
X162340001Y-98840000D02*
X103660000Y-98840000D01*
X103660000Y-95361127D01*
X123090000Y-95361127D01*
X123090000Y-95638873D01*
X123144186Y-95911282D01*
X123250475Y-96167885D01*
X123404782Y-96398822D01*
X123601178Y-96595218D01*
X123832115Y-96749525D01*
X124088718Y-96855814D01*
X124361127Y-96910000D01*
X124638873Y-96910000D01*
X124911282Y-96855814D01*
X125167885Y-96749525D01*
X125398822Y-96595218D01*
X125595218Y-96398822D01*
X125749525Y-96167885D01*
X125855814Y-95911282D01*
X125910000Y-95638873D01*
X125910000Y-95361127D01*
X135590000Y-95361127D01*
X135590000Y-95638873D01*
X135644186Y-95911282D01*
X135750475Y-96167885D01*
X135904782Y-96398822D01*
X136101178Y-96595218D01*
X136332115Y-96749525D01*
X136588718Y-96855814D01*
X136861127Y-96910000D01*
X137138873Y-96910000D01*
X137411282Y-96855814D01*
X137667885Y-96749525D01*
X137898822Y-96595218D01*
X138095218Y-96398822D01*
X138249525Y-96167885D01*
X138355814Y-95911282D01*
X138410000Y-95638873D01*
X138410000Y-95361127D01*
X148090000Y-95361127D01*
X148090000Y-95638873D01*
X148144186Y-95911282D01*
X148250475Y-96167885D01*
X148404782Y-96398822D01*
X148601178Y-96595218D01*
X148832115Y-96749525D01*
X149088718Y-96855814D01*
X149361127Y-96910000D01*
X149638873Y-96910000D01*
X149911282Y-96855814D01*
X150167885Y-96749525D01*
X150398822Y-96595218D01*
X150595218Y-96398822D01*
X150749525Y-96167885D01*
X150855814Y-95911282D01*
X150910000Y-95638873D01*
X150910000Y-95361127D01*
X150855814Y-95088718D01*
X150749525Y-94832115D01*
X150595218Y-94601178D01*
X150398822Y-94404782D01*
X150167885Y-94250475D01*
X149911282Y-94144186D01*
X149638873Y-94090000D01*
X149361127Y-94090000D01*
X149088718Y-94144186D01*
X148832115Y-94250475D01*
X148601178Y-94404782D01*
X148404782Y-94601178D01*
X148250475Y-94832115D01*
X148144186Y-95088718D01*
X148090000Y-95361127D01*
X138410000Y-95361127D01*
X138355814Y-95088718D01*
X138249525Y-94832115D01*
X138095218Y-94601178D01*
X137898822Y-94404782D01*
X137667885Y-94250475D01*
X137411282Y-94144186D01*
X137138873Y-94090000D01*
X136861127Y-94090000D01*
X136588718Y-94144186D01*
X136332115Y-94250475D01*
X136101178Y-94404782D01*
X135904782Y-94601178D01*
X135750475Y-94832115D01*
X135644186Y-95088718D01*
X135590000Y-95361127D01*
X125910000Y-95361127D01*
X125855814Y-95088718D01*
X125749525Y-94832115D01*
X125595218Y-94601178D01*
X125398822Y-94404782D01*
X125167885Y-94250475D01*
X124911282Y-94144186D01*
X124638873Y-94090000D01*
X124361127Y-94090000D01*
X124088718Y-94144186D01*
X123832115Y-94250475D01*
X123601178Y-94404782D01*
X123404782Y-94601178D01*
X123250475Y-94832115D01*
X123144186Y-95088718D01*
X123090000Y-95361127D01*
X103660000Y-95361127D01*
X103660000Y-93800000D01*
X106357573Y-93800000D01*
X106387210Y-94100913D01*
X106474983Y-94390261D01*
X106617519Y-94656927D01*
X106809339Y-94890661D01*
X107043073Y-95082481D01*
X107309739Y-95225017D01*
X107599087Y-95312790D01*
X107824592Y-95335000D01*
X110175408Y-95335000D01*
X110400913Y-95312790D01*
X110690261Y-95225017D01*
X110956927Y-95082481D01*
X111190661Y-94890661D01*
X111382481Y-94656927D01*
X111525017Y-94390261D01*
X111612790Y-94100913D01*
X111642427Y-93800000D01*
X111612790Y-93499087D01*
X111525017Y-93209739D01*
X111382481Y-92943073D01*
X111315230Y-92861127D01*
X118090000Y-92861127D01*
X118090000Y-93138873D01*
X118144186Y-93411282D01*
X118250475Y-93667885D01*
X118404782Y-93898822D01*
X118601178Y-94095218D01*
X118832115Y-94249525D01*
X119088718Y-94355814D01*
X119361127Y-94410000D01*
X119638873Y-94410000D01*
X119911282Y-94355814D01*
X120167885Y-94249525D01*
X120398822Y-94095218D01*
X120595218Y-93898822D01*
X120749525Y-93667885D01*
X120855814Y-93411282D01*
X120910000Y-93138873D01*
X120910000Y-92861127D01*
X130590000Y-92861127D01*
X130590000Y-93138873D01*
X130644186Y-93411282D01*
X130750475Y-93667885D01*
X130904782Y-93898822D01*
X131101178Y-94095218D01*
X131332115Y-94249525D01*
X131588718Y-94355814D01*
X131861127Y-94410000D01*
X132138873Y-94410000D01*
X132411282Y-94355814D01*
X132667885Y-94249525D01*
X132898822Y-94095218D01*
X133095218Y-93898822D01*
X133249525Y-93667885D01*
X133355814Y-93411282D01*
X133410000Y-93138873D01*
X133410000Y-92861127D01*
X143090000Y-92861127D01*
X143090000Y-93138873D01*
X143144186Y-93411282D01*
X143250475Y-93667885D01*
X143404782Y-93898822D01*
X143601178Y-94095218D01*
X143832115Y-94249525D01*
X144088718Y-94355814D01*
X144361127Y-94410000D01*
X144638873Y-94410000D01*
X144911282Y-94355814D01*
X145167885Y-94249525D01*
X145398822Y-94095218D01*
X145595218Y-93898822D01*
X145749525Y-93667885D01*
X145855814Y-93411282D01*
X145910000Y-93138873D01*
X145910000Y-92861127D01*
X145855814Y-92588718D01*
X145749525Y-92332115D01*
X145595218Y-92101178D01*
X145398822Y-91904782D01*
X145167885Y-91750475D01*
X144911282Y-91644186D01*
X144638873Y-91590000D01*
X144361127Y-91590000D01*
X144088718Y-91644186D01*
X143832115Y-91750475D01*
X143601178Y-91904782D01*
X143404782Y-92101178D01*
X143250475Y-92332115D01*
X143144186Y-92588718D01*
X143090000Y-92861127D01*
X133410000Y-92861127D01*
X133355814Y-92588718D01*
X133249525Y-92332115D01*
X133095218Y-92101178D01*
X132898822Y-91904782D01*
X132667885Y-91750475D01*
X132411282Y-91644186D01*
X132138873Y-91590000D01*
X131861127Y-91590000D01*
X131588718Y-91644186D01*
X131332115Y-91750475D01*
X131101178Y-91904782D01*
X130904782Y-92101178D01*
X130750475Y-92332115D01*
X130644186Y-92588718D01*
X130590000Y-92861127D01*
X120910000Y-92861127D01*
X120855814Y-92588718D01*
X120749525Y-92332115D01*
X120595218Y-92101178D01*
X120398822Y-91904782D01*
X120167885Y-91750475D01*
X119911282Y-91644186D01*
X119638873Y-91590000D01*
X119361127Y-91590000D01*
X119088718Y-91644186D01*
X118832115Y-91750475D01*
X118601178Y-91904782D01*
X118404782Y-92101178D01*
X118250475Y-92332115D01*
X118144186Y-92588718D01*
X118090000Y-92861127D01*
X111315230Y-92861127D01*
X111190661Y-92709339D01*
X110956927Y-92517519D01*
X110690261Y-92374983D01*
X110400913Y-92287210D01*
X110175408Y-92265000D01*
X107824592Y-92265000D01*
X107599087Y-92287210D01*
X107309739Y-92374983D01*
X107043073Y-92517519D01*
X106809339Y-92709339D01*
X106617519Y-92943073D01*
X106474983Y-93209739D01*
X106387210Y-93499087D01*
X106357573Y-93800000D01*
X103660000Y-93800000D01*
X103660000Y-89127000D01*
X104665000Y-89127000D01*
X104665000Y-90227000D01*
X104719271Y-90524023D01*
X104830446Y-90804751D01*
X104994252Y-91058396D01*
X105204394Y-91275210D01*
X105452796Y-91446862D01*
X105729913Y-91566755D01*
X105835260Y-91591036D01*
X106073000Y-91470378D01*
X106073000Y-89127000D01*
X106327000Y-89127000D01*
X106327000Y-91470378D01*
X106564740Y-91591036D01*
X106670087Y-91566755D01*
X106947204Y-91446862D01*
X107195606Y-91275210D01*
X107405748Y-91058396D01*
X107569554Y-90804751D01*
X107680729Y-90524023D01*
X107735000Y-90227000D01*
X107735000Y-89127000D01*
X106327000Y-89127000D01*
X106073000Y-89127000D01*
X104665000Y-89127000D01*
X103660000Y-89127000D01*
X103660000Y-87773000D01*
X104665000Y-87773000D01*
X104665000Y-88873000D01*
X106073000Y-88873000D01*
X106073000Y-86529622D01*
X106327000Y-86529622D01*
X106327000Y-88873000D01*
X107735000Y-88873000D01*
X107735000Y-87773000D01*
X107680729Y-87475977D01*
X107569554Y-87195249D01*
X107405748Y-86941604D01*
X107268502Y-86800000D01*
X110461928Y-86800000D01*
X110461928Y-91200000D01*
X110474188Y-91324482D01*
X110510498Y-91444180D01*
X110569463Y-91554494D01*
X110648815Y-91651185D01*
X110745506Y-91730537D01*
X110855820Y-91789502D01*
X110975518Y-91825812D01*
X111100000Y-91838072D01*
X112900000Y-91838072D01*
X113024482Y-91825812D01*
X113144180Y-91789502D01*
X113254494Y-91730537D01*
X113351185Y-91651185D01*
X113430537Y-91554494D01*
X113489502Y-91444180D01*
X113525812Y-91324482D01*
X113538072Y-91200000D01*
X113538072Y-89725000D01*
X123086928Y-89725000D01*
X123086928Y-91275000D01*
X123099188Y-91399482D01*
X123135498Y-91519180D01*
X123194463Y-91629494D01*
X123273815Y-91726185D01*
X123370506Y-91805537D01*
X123480820Y-91864502D01*
X123600518Y-91900812D01*
X123725000Y-91913072D01*
X125275000Y-91913072D01*
X125399482Y-91900812D01*
X125519180Y-91864502D01*
X125629494Y-91805537D01*
X125726185Y-91726185D01*
X125805537Y-91629494D01*
X125864502Y-91519180D01*
X125900812Y-91399482D01*
X125913072Y-91275000D01*
X125913072Y-89725000D01*
X135586928Y-89725000D01*
X135586928Y-91275000D01*
X135599188Y-91399482D01*
X135635498Y-91519180D01*
X135694463Y-91629494D01*
X135773815Y-91726185D01*
X135870506Y-91805537D01*
X135980820Y-91864502D01*
X136100518Y-91900812D01*
X136225000Y-91913072D01*
X137775000Y-91913072D01*
X137899482Y-91900812D01*
X138019180Y-91864502D01*
X138129494Y-91805537D01*
X138226185Y-91726185D01*
X138305537Y-91629494D01*
X138364502Y-91519180D01*
X138400812Y-91399482D01*
X138413072Y-91275000D01*
X138413072Y-89725000D01*
X148086928Y-89725000D01*
X148086928Y-91275000D01*
X148099188Y-91399482D01*
X148135498Y-91519180D01*
X148194463Y-91629494D01*
X148273815Y-91726185D01*
X148370506Y-91805537D01*
X148480820Y-91864502D01*
X148600518Y-91900812D01*
X148725000Y-91913072D01*
X150275000Y-91913072D01*
X150399482Y-91900812D01*
X150519180Y-91864502D01*
X150629494Y-91805537D01*
X150726185Y-91726185D01*
X150805537Y-91629494D01*
X150864502Y-91519180D01*
X150900812Y-91399482D01*
X150913072Y-91275000D01*
X150913072Y-89725000D01*
X150900812Y-89600518D01*
X150864502Y-89480820D01*
X150805537Y-89370506D01*
X150726185Y-89273815D01*
X150629494Y-89194463D01*
X150519180Y-89135498D01*
X150399482Y-89099188D01*
X150275000Y-89086928D01*
X148725000Y-89086928D01*
X148600518Y-89099188D01*
X148480820Y-89135498D01*
X148370506Y-89194463D01*
X148273815Y-89273815D01*
X148194463Y-89370506D01*
X148135498Y-89480820D01*
X148099188Y-89600518D01*
X148086928Y-89725000D01*
X138413072Y-89725000D01*
X138400812Y-89600518D01*
X138364502Y-89480820D01*
X138305537Y-89370506D01*
X138226185Y-89273815D01*
X138129494Y-89194463D01*
X138019180Y-89135498D01*
X137899482Y-89099188D01*
X137775000Y-89086928D01*
X136225000Y-89086928D01*
X136100518Y-89099188D01*
X135980820Y-89135498D01*
X135870506Y-89194463D01*
X135773815Y-89273815D01*
X135694463Y-89370506D01*
X135635498Y-89480820D01*
X135599188Y-89600518D01*
X135586928Y-89725000D01*
X125913072Y-89725000D01*
X125900812Y-89600518D01*
X125864502Y-89480820D01*
X125805537Y-89370506D01*
X125726185Y-89273815D01*
X125629494Y-89194463D01*
X125519180Y-89135498D01*
X125399482Y-89099188D01*
X125275000Y-89086928D01*
X123725000Y-89086928D01*
X123600518Y-89099188D01*
X123480820Y-89135498D01*
X123370506Y-89194463D01*
X123273815Y-89273815D01*
X123194463Y-89370506D01*
X123135498Y-89480820D01*
X123099188Y-89600518D01*
X123086928Y-89725000D01*
X113538072Y-89725000D01*
X113538072Y-86800000D01*
X113525812Y-86675518D01*
X113489502Y-86555820D01*
X113430537Y-86445506D01*
X113351185Y-86348815D01*
X113254494Y-86269463D01*
X113144180Y-86210498D01*
X113024482Y-86174188D01*
X112900000Y-86161928D01*
X111100000Y-86161928D01*
X110975518Y-86174188D01*
X110855820Y-86210498D01*
X110745506Y-86269463D01*
X110648815Y-86348815D01*
X110569463Y-86445506D01*
X110510498Y-86555820D01*
X110474188Y-86675518D01*
X110461928Y-86800000D01*
X107268502Y-86800000D01*
X107195606Y-86724790D01*
X106947204Y-86553138D01*
X106670087Y-86433245D01*
X106564740Y-86408964D01*
X106327000Y-86529622D01*
X106073000Y-86529622D01*
X105835260Y-86408964D01*
X105729913Y-86433245D01*
X105452796Y-86553138D01*
X105204394Y-86724790D01*
X104994252Y-86941604D01*
X104830446Y-87195249D01*
X104719271Y-87475977D01*
X104665000Y-87773000D01*
X103660000Y-87773000D01*
X103660000Y-84650000D01*
X157511928Y-84650000D01*
X157511928Y-86350000D01*
X157524188Y-86474482D01*
X157560498Y-86594180D01*
X157619463Y-86704494D01*
X157698815Y-86801185D01*
X157795506Y-86880537D01*
X157905820Y-86939502D01*
X157978380Y-86961513D01*
X157846525Y-87093368D01*
X157684010Y-87336589D01*
X157572068Y-87606842D01*
X157515000Y-87893740D01*
X157515000Y-88186260D01*
X157572068Y-88473158D01*
X157684010Y-88743411D01*
X157846525Y-88986632D01*
X158053368Y-89193475D01*
X158227760Y-89310000D01*
X158053368Y-89426525D01*
X157846525Y-89633368D01*
X157684010Y-89876589D01*
X157572068Y-90146842D01*
X157515000Y-90433740D01*
X157515000Y-90726260D01*
X157572068Y-91013158D01*
X157684010Y-91283411D01*
X157846525Y-91526632D01*
X158053368Y-91733475D01*
X158227760Y-91850000D01*
X158053368Y-91966525D01*
X157846525Y-92173368D01*
X157684010Y-92416589D01*
X157572068Y-92686842D01*
X157515000Y-92973740D01*
X157515000Y-93266260D01*
X157572068Y-93553158D01*
X157684010Y-93823411D01*
X157846525Y-94066632D01*
X158053368Y-94273475D01*
X158296589Y-94435990D01*
X158566842Y-94547932D01*
X158853740Y-94605000D01*
X159146260Y-94605000D01*
X159433158Y-94547932D01*
X159703411Y-94435990D01*
X159946632Y-94273475D01*
X160153475Y-94066632D01*
X160315990Y-93823411D01*
X160427932Y-93553158D01*
X160485000Y-93266260D01*
X160485000Y-92973740D01*
X160427932Y-92686842D01*
X160315990Y-92416589D01*
X160153475Y-92173368D01*
X159946632Y-91966525D01*
X159772240Y-91850000D01*
X159946632Y-91733475D01*
X160153475Y-91526632D01*
X160315990Y-91283411D01*
X160427932Y-91013158D01*
X160485000Y-90726260D01*
X160485000Y-90433740D01*
X160427932Y-90146842D01*
X160315990Y-89876589D01*
X160153475Y-89633368D01*
X159946632Y-89426525D01*
X159772240Y-89310000D01*
X159946632Y-89193475D01*
X160153475Y-88986632D01*
X160315990Y-88743411D01*
X160427932Y-88473158D01*
X160485000Y-88186260D01*
X160485000Y-87893740D01*
X160427932Y-87606842D01*
X160315990Y-87336589D01*
X160153475Y-87093368D01*
X160021620Y-86961513D01*
X160094180Y-86939502D01*
X160204494Y-86880537D01*
X160301185Y-86801185D01*
X160380537Y-86704494D01*
X160439502Y-86594180D01*
X160475812Y-86474482D01*
X160488072Y-86350000D01*
X160488072Y-84650000D01*
X160475812Y-84525518D01*
X160439502Y-84405820D01*
X160380537Y-84295506D01*
X160301185Y-84198815D01*
X160204494Y-84119463D01*
X160094180Y-84060498D01*
X159974482Y-84024188D01*
X159850000Y-84011928D01*
X158150000Y-84011928D01*
X158025518Y-84024188D01*
X157905820Y-84060498D01*
X157795506Y-84119463D01*
X157698815Y-84198815D01*
X157619463Y-84295506D01*
X157560498Y-84405820D01*
X157524188Y-84525518D01*
X157511928Y-84650000D01*
X103660000Y-84650000D01*
X103660000Y-80160000D01*
X162340000Y-80160000D01*
X162340001Y-98840000D01*
%TD*%
M02*
