%TF.GenerationSoftware,KiCad,Pcbnew,(5.1.6)-1*%
%TF.CreationDate,2020-12-19T18:50:18-05:00*%
%TF.ProjectId,driver_RGB,64726976-6572-45f5-9247-422e6b696361,rev?*%
%TF.SameCoordinates,Original*%
%TF.FileFunction,Copper,L1,Top*%
%TF.FilePolarity,Positive*%
%FSLAX46Y46*%
G04 Gerber Fmt 4.6, Leading zero omitted, Abs format (unit mm)*
G04 Created by KiCad (PCBNEW (5.1.6)-1) date 2020-12-19 18:50:18*
%MOMM*%
%LPD*%
G01*
G04 APERTURE LIST*
%TA.AperFunction,SMDPad,CuDef*%
%ADD10R,0.800000X0.900000*%
%TD*%
%TA.AperFunction,SMDPad,CuDef*%
%ADD11R,1.200000X0.900000*%
%TD*%
%TA.AperFunction,ComponentPad*%
%ADD12C,1.550000*%
%TD*%
%TA.AperFunction,ComponentPad*%
%ADD13R,1.550000X1.550000*%
%TD*%
%TA.AperFunction,ComponentPad*%
%ADD14R,1.800000X4.400000*%
%TD*%
%TA.AperFunction,ComponentPad*%
%ADD15O,1.800000X4.000000*%
%TD*%
%TA.AperFunction,ComponentPad*%
%ADD16O,4.000000X1.800000*%
%TD*%
%TA.AperFunction,ComponentPad*%
%ADD17O,1.700000X1.700000*%
%TD*%
%TA.AperFunction,ComponentPad*%
%ADD18R,1.700000X1.700000*%
%TD*%
%TA.AperFunction,ViaPad*%
%ADD19C,0.800000*%
%TD*%
%TA.AperFunction,Conductor*%
%ADD20C,0.400000*%
%TD*%
%TA.AperFunction,Conductor*%
%ADD21C,0.250000*%
%TD*%
%TA.AperFunction,Conductor*%
%ADD22C,0.600000*%
%TD*%
%TA.AperFunction,Conductor*%
%ADD23C,0.254000*%
%TD*%
G04 APERTURE END LIST*
D10*
%TO.P,Q3,3*%
%TO.N,/BLUE/BLUE*%
X154500000Y-92500000D03*
%TO.P,Q3,2*%
%TO.N,GND*%
X155450000Y-94500000D03*
%TO.P,Q3,1*%
%TO.N,Net-(C9-Pad1)*%
X153550000Y-94500000D03*
%TD*%
%TO.P,Q2,3*%
%TO.N,/GREEN/GREEN*%
X154500000Y-82500000D03*
%TO.P,Q2,2*%
%TO.N,GND*%
X155450000Y-84500000D03*
%TO.P,Q2,1*%
%TO.N,Net-(C6-Pad1)*%
X153550000Y-84500000D03*
%TD*%
D11*
%TO.P,D3,2*%
%TO.N,Net-(D3-Pad2)*%
X140000000Y-89150000D03*
%TO.P,D3,1*%
%TO.N,Net-(C7-Pad1)*%
X140000000Y-85850000D03*
%TD*%
%TO.P,D2,2*%
%TO.N,Net-(D2-Pad2)*%
X115000000Y-89150000D03*
%TO.P,D2,1*%
%TO.N,Net-(C4-Pad1)*%
X115000000Y-85850000D03*
%TD*%
%TO.P,D1,2*%
%TO.N,Net-(D1-Pad2)*%
X127500000Y-89150000D03*
%TO.P,D1,1*%
%TO.N,Net-(C1-Pad1)*%
X127500000Y-85850000D03*
%TD*%
%TO.P,U3,8*%
%TO.N,+12V*%
%TA.AperFunction,SMDPad,CuDef*%
G36*
G01*
X145500000Y-88255000D02*
X145500000Y-88555000D01*
G75*
G02*
X145350000Y-88705000I-150000J0D01*
G01*
X143700000Y-88705000D01*
G75*
G02*
X143550000Y-88555000I0J150000D01*
G01*
X143550000Y-88255000D01*
G75*
G02*
X143700000Y-88105000I150000J0D01*
G01*
X145350000Y-88105000D01*
G75*
G02*
X145500000Y-88255000I0J-150000D01*
G01*
G37*
%TD.AperFunction*%
%TO.P,U3,7*%
%TO.N,Net-(D3-Pad2)*%
%TA.AperFunction,SMDPad,CuDef*%
G36*
G01*
X145500000Y-86985000D02*
X145500000Y-87285000D01*
G75*
G02*
X145350000Y-87435000I-150000J0D01*
G01*
X143700000Y-87435000D01*
G75*
G02*
X143550000Y-87285000I0J150000D01*
G01*
X143550000Y-86985000D01*
G75*
G02*
X143700000Y-86835000I150000J0D01*
G01*
X145350000Y-86835000D01*
G75*
G02*
X145500000Y-86985000I0J-150000D01*
G01*
G37*
%TD.AperFunction*%
%TO.P,U3,6*%
%TO.N,Net-(C7-Pad1)*%
%TA.AperFunction,SMDPad,CuDef*%
G36*
G01*
X145500000Y-85715000D02*
X145500000Y-86015000D01*
G75*
G02*
X145350000Y-86165000I-150000J0D01*
G01*
X143700000Y-86165000D01*
G75*
G02*
X143550000Y-86015000I0J150000D01*
G01*
X143550000Y-85715000D01*
G75*
G02*
X143700000Y-85565000I150000J0D01*
G01*
X145350000Y-85565000D01*
G75*
G02*
X145500000Y-85715000I0J-150000D01*
G01*
G37*
%TD.AperFunction*%
%TO.P,U3,5*%
%TO.N,Net-(C8-Pad1)*%
%TA.AperFunction,SMDPad,CuDef*%
G36*
G01*
X145500000Y-84445000D02*
X145500000Y-84745000D01*
G75*
G02*
X145350000Y-84895000I-150000J0D01*
G01*
X143700000Y-84895000D01*
G75*
G02*
X143550000Y-84745000I0J150000D01*
G01*
X143550000Y-84445000D01*
G75*
G02*
X143700000Y-84295000I150000J0D01*
G01*
X145350000Y-84295000D01*
G75*
G02*
X145500000Y-84445000I0J-150000D01*
G01*
G37*
%TD.AperFunction*%
%TO.P,U3,4*%
%TO.N,+12V*%
%TA.AperFunction,SMDPad,CuDef*%
G36*
G01*
X150450000Y-84445000D02*
X150450000Y-84745000D01*
G75*
G02*
X150300000Y-84895000I-150000J0D01*
G01*
X148650000Y-84895000D01*
G75*
G02*
X148500000Y-84745000I0J150000D01*
G01*
X148500000Y-84445000D01*
G75*
G02*
X148650000Y-84295000I150000J0D01*
G01*
X150300000Y-84295000D01*
G75*
G02*
X150450000Y-84445000I0J-150000D01*
G01*
G37*
%TD.AperFunction*%
%TO.P,U3,3*%
%TO.N,Net-(R9-Pad2)*%
%TA.AperFunction,SMDPad,CuDef*%
G36*
G01*
X150450000Y-85715000D02*
X150450000Y-86015000D01*
G75*
G02*
X150300000Y-86165000I-150000J0D01*
G01*
X148650000Y-86165000D01*
G75*
G02*
X148500000Y-86015000I0J150000D01*
G01*
X148500000Y-85715000D01*
G75*
G02*
X148650000Y-85565000I150000J0D01*
G01*
X150300000Y-85565000D01*
G75*
G02*
X150450000Y-85715000I0J-150000D01*
G01*
G37*
%TD.AperFunction*%
%TO.P,U3,2*%
%TO.N,Net-(C7-Pad1)*%
%TA.AperFunction,SMDPad,CuDef*%
G36*
G01*
X150450000Y-86985000D02*
X150450000Y-87285000D01*
G75*
G02*
X150300000Y-87435000I-150000J0D01*
G01*
X148650000Y-87435000D01*
G75*
G02*
X148500000Y-87285000I0J150000D01*
G01*
X148500000Y-86985000D01*
G75*
G02*
X148650000Y-86835000I150000J0D01*
G01*
X150300000Y-86835000D01*
G75*
G02*
X150450000Y-86985000I0J-150000D01*
G01*
G37*
%TD.AperFunction*%
%TO.P,U3,1*%
%TO.N,GND*%
%TA.AperFunction,SMDPad,CuDef*%
G36*
G01*
X150450000Y-88255000D02*
X150450000Y-88555000D01*
G75*
G02*
X150300000Y-88705000I-150000J0D01*
G01*
X148650000Y-88705000D01*
G75*
G02*
X148500000Y-88555000I0J150000D01*
G01*
X148500000Y-88255000D01*
G75*
G02*
X148650000Y-88105000I150000J0D01*
G01*
X150300000Y-88105000D01*
G75*
G02*
X150450000Y-88255000I0J-150000D01*
G01*
G37*
%TD.AperFunction*%
%TD*%
%TO.P,U1,8*%
%TO.N,+12V*%
%TA.AperFunction,SMDPad,CuDef*%
G36*
G01*
X133000000Y-88255000D02*
X133000000Y-88555000D01*
G75*
G02*
X132850000Y-88705000I-150000J0D01*
G01*
X131200000Y-88705000D01*
G75*
G02*
X131050000Y-88555000I0J150000D01*
G01*
X131050000Y-88255000D01*
G75*
G02*
X131200000Y-88105000I150000J0D01*
G01*
X132850000Y-88105000D01*
G75*
G02*
X133000000Y-88255000I0J-150000D01*
G01*
G37*
%TD.AperFunction*%
%TO.P,U1,7*%
%TO.N,Net-(D1-Pad2)*%
%TA.AperFunction,SMDPad,CuDef*%
G36*
G01*
X133000000Y-86985000D02*
X133000000Y-87285000D01*
G75*
G02*
X132850000Y-87435000I-150000J0D01*
G01*
X131200000Y-87435000D01*
G75*
G02*
X131050000Y-87285000I0J150000D01*
G01*
X131050000Y-86985000D01*
G75*
G02*
X131200000Y-86835000I150000J0D01*
G01*
X132850000Y-86835000D01*
G75*
G02*
X133000000Y-86985000I0J-150000D01*
G01*
G37*
%TD.AperFunction*%
%TO.P,U1,6*%
%TO.N,Net-(C1-Pad1)*%
%TA.AperFunction,SMDPad,CuDef*%
G36*
G01*
X133000000Y-85715000D02*
X133000000Y-86015000D01*
G75*
G02*
X132850000Y-86165000I-150000J0D01*
G01*
X131200000Y-86165000D01*
G75*
G02*
X131050000Y-86015000I0J150000D01*
G01*
X131050000Y-85715000D01*
G75*
G02*
X131200000Y-85565000I150000J0D01*
G01*
X132850000Y-85565000D01*
G75*
G02*
X133000000Y-85715000I0J-150000D01*
G01*
G37*
%TD.AperFunction*%
%TO.P,U1,5*%
%TO.N,Net-(C2-Pad1)*%
%TA.AperFunction,SMDPad,CuDef*%
G36*
G01*
X133000000Y-84445000D02*
X133000000Y-84745000D01*
G75*
G02*
X132850000Y-84895000I-150000J0D01*
G01*
X131200000Y-84895000D01*
G75*
G02*
X131050000Y-84745000I0J150000D01*
G01*
X131050000Y-84445000D01*
G75*
G02*
X131200000Y-84295000I150000J0D01*
G01*
X132850000Y-84295000D01*
G75*
G02*
X133000000Y-84445000I0J-150000D01*
G01*
G37*
%TD.AperFunction*%
%TO.P,U1,4*%
%TO.N,+12V*%
%TA.AperFunction,SMDPad,CuDef*%
G36*
G01*
X137950000Y-84445000D02*
X137950000Y-84745000D01*
G75*
G02*
X137800000Y-84895000I-150000J0D01*
G01*
X136150000Y-84895000D01*
G75*
G02*
X136000000Y-84745000I0J150000D01*
G01*
X136000000Y-84445000D01*
G75*
G02*
X136150000Y-84295000I150000J0D01*
G01*
X137800000Y-84295000D01*
G75*
G02*
X137950000Y-84445000I0J-150000D01*
G01*
G37*
%TD.AperFunction*%
%TO.P,U1,3*%
%TO.N,Net-(R3-Pad2)*%
%TA.AperFunction,SMDPad,CuDef*%
G36*
G01*
X137950000Y-85715000D02*
X137950000Y-86015000D01*
G75*
G02*
X137800000Y-86165000I-150000J0D01*
G01*
X136150000Y-86165000D01*
G75*
G02*
X136000000Y-86015000I0J150000D01*
G01*
X136000000Y-85715000D01*
G75*
G02*
X136150000Y-85565000I150000J0D01*
G01*
X137800000Y-85565000D01*
G75*
G02*
X137950000Y-85715000I0J-150000D01*
G01*
G37*
%TD.AperFunction*%
%TO.P,U1,2*%
%TO.N,Net-(C1-Pad1)*%
%TA.AperFunction,SMDPad,CuDef*%
G36*
G01*
X137950000Y-86985000D02*
X137950000Y-87285000D01*
G75*
G02*
X137800000Y-87435000I-150000J0D01*
G01*
X136150000Y-87435000D01*
G75*
G02*
X136000000Y-87285000I0J150000D01*
G01*
X136000000Y-86985000D01*
G75*
G02*
X136150000Y-86835000I150000J0D01*
G01*
X137800000Y-86835000D01*
G75*
G02*
X137950000Y-86985000I0J-150000D01*
G01*
G37*
%TD.AperFunction*%
%TO.P,U1,1*%
%TO.N,GND*%
%TA.AperFunction,SMDPad,CuDef*%
G36*
G01*
X137950000Y-88255000D02*
X137950000Y-88555000D01*
G75*
G02*
X137800000Y-88705000I-150000J0D01*
G01*
X136150000Y-88705000D01*
G75*
G02*
X136000000Y-88555000I0J150000D01*
G01*
X136000000Y-88255000D01*
G75*
G02*
X136150000Y-88105000I150000J0D01*
G01*
X137800000Y-88105000D01*
G75*
G02*
X137950000Y-88255000I0J-150000D01*
G01*
G37*
%TD.AperFunction*%
%TD*%
%TO.P,U2,8*%
%TO.N,+12V*%
%TA.AperFunction,SMDPad,CuDef*%
G36*
G01*
X120500000Y-88255000D02*
X120500000Y-88555000D01*
G75*
G02*
X120350000Y-88705000I-150000J0D01*
G01*
X118700000Y-88705000D01*
G75*
G02*
X118550000Y-88555000I0J150000D01*
G01*
X118550000Y-88255000D01*
G75*
G02*
X118700000Y-88105000I150000J0D01*
G01*
X120350000Y-88105000D01*
G75*
G02*
X120500000Y-88255000I0J-150000D01*
G01*
G37*
%TD.AperFunction*%
%TO.P,U2,7*%
%TO.N,Net-(D2-Pad2)*%
%TA.AperFunction,SMDPad,CuDef*%
G36*
G01*
X120500000Y-86985000D02*
X120500000Y-87285000D01*
G75*
G02*
X120350000Y-87435000I-150000J0D01*
G01*
X118700000Y-87435000D01*
G75*
G02*
X118550000Y-87285000I0J150000D01*
G01*
X118550000Y-86985000D01*
G75*
G02*
X118700000Y-86835000I150000J0D01*
G01*
X120350000Y-86835000D01*
G75*
G02*
X120500000Y-86985000I0J-150000D01*
G01*
G37*
%TD.AperFunction*%
%TO.P,U2,6*%
%TO.N,Net-(C4-Pad1)*%
%TA.AperFunction,SMDPad,CuDef*%
G36*
G01*
X120500000Y-85715000D02*
X120500000Y-86015000D01*
G75*
G02*
X120350000Y-86165000I-150000J0D01*
G01*
X118700000Y-86165000D01*
G75*
G02*
X118550000Y-86015000I0J150000D01*
G01*
X118550000Y-85715000D01*
G75*
G02*
X118700000Y-85565000I150000J0D01*
G01*
X120350000Y-85565000D01*
G75*
G02*
X120500000Y-85715000I0J-150000D01*
G01*
G37*
%TD.AperFunction*%
%TO.P,U2,5*%
%TO.N,Net-(C5-Pad1)*%
%TA.AperFunction,SMDPad,CuDef*%
G36*
G01*
X120500000Y-84445000D02*
X120500000Y-84745000D01*
G75*
G02*
X120350000Y-84895000I-150000J0D01*
G01*
X118700000Y-84895000D01*
G75*
G02*
X118550000Y-84745000I0J150000D01*
G01*
X118550000Y-84445000D01*
G75*
G02*
X118700000Y-84295000I150000J0D01*
G01*
X120350000Y-84295000D01*
G75*
G02*
X120500000Y-84445000I0J-150000D01*
G01*
G37*
%TD.AperFunction*%
%TO.P,U2,4*%
%TO.N,+12V*%
%TA.AperFunction,SMDPad,CuDef*%
G36*
G01*
X125450000Y-84445000D02*
X125450000Y-84745000D01*
G75*
G02*
X125300000Y-84895000I-150000J0D01*
G01*
X123650000Y-84895000D01*
G75*
G02*
X123500000Y-84745000I0J150000D01*
G01*
X123500000Y-84445000D01*
G75*
G02*
X123650000Y-84295000I150000J0D01*
G01*
X125300000Y-84295000D01*
G75*
G02*
X125450000Y-84445000I0J-150000D01*
G01*
G37*
%TD.AperFunction*%
%TO.P,U2,3*%
%TO.N,Net-(R6-Pad2)*%
%TA.AperFunction,SMDPad,CuDef*%
G36*
G01*
X125450000Y-85715000D02*
X125450000Y-86015000D01*
G75*
G02*
X125300000Y-86165000I-150000J0D01*
G01*
X123650000Y-86165000D01*
G75*
G02*
X123500000Y-86015000I0J150000D01*
G01*
X123500000Y-85715000D01*
G75*
G02*
X123650000Y-85565000I150000J0D01*
G01*
X125300000Y-85565000D01*
G75*
G02*
X125450000Y-85715000I0J-150000D01*
G01*
G37*
%TD.AperFunction*%
%TO.P,U2,2*%
%TO.N,Net-(C4-Pad1)*%
%TA.AperFunction,SMDPad,CuDef*%
G36*
G01*
X125450000Y-86985000D02*
X125450000Y-87285000D01*
G75*
G02*
X125300000Y-87435000I-150000J0D01*
G01*
X123650000Y-87435000D01*
G75*
G02*
X123500000Y-87285000I0J150000D01*
G01*
X123500000Y-86985000D01*
G75*
G02*
X123650000Y-86835000I150000J0D01*
G01*
X125300000Y-86835000D01*
G75*
G02*
X125450000Y-86985000I0J-150000D01*
G01*
G37*
%TD.AperFunction*%
%TO.P,U2,1*%
%TO.N,GND*%
%TA.AperFunction,SMDPad,CuDef*%
G36*
G01*
X125450000Y-88255000D02*
X125450000Y-88555000D01*
G75*
G02*
X125300000Y-88705000I-150000J0D01*
G01*
X123650000Y-88705000D01*
G75*
G02*
X123500000Y-88555000I0J150000D01*
G01*
X123500000Y-88255000D01*
G75*
G02*
X123650000Y-88105000I150000J0D01*
G01*
X125300000Y-88105000D01*
G75*
G02*
X125450000Y-88255000I0J-150000D01*
G01*
G37*
%TD.AperFunction*%
%TD*%
D12*
%TO.P,RV3,2*%
%TO.N,Net-(R7-Pad1)*%
X144500000Y-93000000D03*
D13*
%TO.P,RV3,1*%
%TO.N,+12V*%
X149500000Y-90500000D03*
D12*
%TO.P,RV3,3*%
%TO.N,N/C*%
X149500000Y-95500000D03*
%TD*%
%TO.P,RV2,2*%
%TO.N,Net-(R4-Pad1)*%
X119500000Y-93000000D03*
D13*
%TO.P,RV2,1*%
%TO.N,+12V*%
X124500000Y-90500000D03*
D12*
%TO.P,RV2,3*%
%TO.N,N/C*%
X124500000Y-95500000D03*
%TD*%
%TO.P,RV1,2*%
%TO.N,Net-(R1-Pad1)*%
X132000000Y-93000000D03*
D13*
%TO.P,RV1,1*%
%TO.N,+12V*%
X137000000Y-90500000D03*
D12*
%TO.P,RV1,3*%
%TO.N,N/C*%
X137000000Y-95500000D03*
%TD*%
D14*
%TO.P,J2,1*%
%TO.N,+12V*%
X112000000Y-89000000D03*
D15*
%TO.P,J2,2*%
%TO.N,GND*%
X106200000Y-89000000D03*
D16*
%TO.P,J2,3*%
%TO.N,N/C*%
X109000000Y-93800000D03*
%TD*%
%TO.P,R9,2*%
%TO.N,Net-(R9-Pad2)*%
%TA.AperFunction,SMDPad,CuDef*%
G36*
G01*
X149150000Y-82262500D02*
X149150000Y-82737500D01*
G75*
G02*
X148912500Y-82975000I-237500J0D01*
G01*
X148337500Y-82975000D01*
G75*
G02*
X148100000Y-82737500I0J237500D01*
G01*
X148100000Y-82262500D01*
G75*
G02*
X148337500Y-82025000I237500J0D01*
G01*
X148912500Y-82025000D01*
G75*
G02*
X149150000Y-82262500I0J-237500D01*
G01*
G37*
%TD.AperFunction*%
%TO.P,R9,1*%
%TO.N,Net-(C9-Pad1)*%
%TA.AperFunction,SMDPad,CuDef*%
G36*
G01*
X150900000Y-82262500D02*
X150900000Y-82737500D01*
G75*
G02*
X150662500Y-82975000I-237500J0D01*
G01*
X150087500Y-82975000D01*
G75*
G02*
X149850000Y-82737500I0J237500D01*
G01*
X149850000Y-82262500D01*
G75*
G02*
X150087500Y-82025000I237500J0D01*
G01*
X150662500Y-82025000D01*
G75*
G02*
X150900000Y-82262500I0J-237500D01*
G01*
G37*
%TD.AperFunction*%
%TD*%
%TO.P,R8,2*%
%TO.N,Net-(C7-Pad1)*%
%TA.AperFunction,SMDPad,CuDef*%
G36*
G01*
X142237500Y-86650000D02*
X141762500Y-86650000D01*
G75*
G02*
X141525000Y-86412500I0J237500D01*
G01*
X141525000Y-85837500D01*
G75*
G02*
X141762500Y-85600000I237500J0D01*
G01*
X142237500Y-85600000D01*
G75*
G02*
X142475000Y-85837500I0J-237500D01*
G01*
X142475000Y-86412500D01*
G75*
G02*
X142237500Y-86650000I-237500J0D01*
G01*
G37*
%TD.AperFunction*%
%TO.P,R8,1*%
%TO.N,Net-(D3-Pad2)*%
%TA.AperFunction,SMDPad,CuDef*%
G36*
G01*
X142237500Y-88400000D02*
X141762500Y-88400000D01*
G75*
G02*
X141525000Y-88162500I0J237500D01*
G01*
X141525000Y-87587500D01*
G75*
G02*
X141762500Y-87350000I237500J0D01*
G01*
X142237500Y-87350000D01*
G75*
G02*
X142475000Y-87587500I0J-237500D01*
G01*
X142475000Y-88162500D01*
G75*
G02*
X142237500Y-88400000I-237500J0D01*
G01*
G37*
%TD.AperFunction*%
%TD*%
%TO.P,R7,2*%
%TO.N,Net-(D3-Pad2)*%
%TA.AperFunction,SMDPad,CuDef*%
G36*
G01*
X142237500Y-90150000D02*
X141762500Y-90150000D01*
G75*
G02*
X141525000Y-89912500I0J237500D01*
G01*
X141525000Y-89337500D01*
G75*
G02*
X141762500Y-89100000I237500J0D01*
G01*
X142237500Y-89100000D01*
G75*
G02*
X142475000Y-89337500I0J-237500D01*
G01*
X142475000Y-89912500D01*
G75*
G02*
X142237500Y-90150000I-237500J0D01*
G01*
G37*
%TD.AperFunction*%
%TO.P,R7,1*%
%TO.N,Net-(R7-Pad1)*%
%TA.AperFunction,SMDPad,CuDef*%
G36*
G01*
X142237500Y-91900000D02*
X141762500Y-91900000D01*
G75*
G02*
X141525000Y-91662500I0J237500D01*
G01*
X141525000Y-91087500D01*
G75*
G02*
X141762500Y-90850000I237500J0D01*
G01*
X142237500Y-90850000D01*
G75*
G02*
X142475000Y-91087500I0J-237500D01*
G01*
X142475000Y-91662500D01*
G75*
G02*
X142237500Y-91900000I-237500J0D01*
G01*
G37*
%TD.AperFunction*%
%TD*%
%TO.P,R6,2*%
%TO.N,Net-(R6-Pad2)*%
%TA.AperFunction,SMDPad,CuDef*%
G36*
G01*
X123650000Y-82262500D02*
X123650000Y-82737500D01*
G75*
G02*
X123412500Y-82975000I-237500J0D01*
G01*
X122837500Y-82975000D01*
G75*
G02*
X122600000Y-82737500I0J237500D01*
G01*
X122600000Y-82262500D01*
G75*
G02*
X122837500Y-82025000I237500J0D01*
G01*
X123412500Y-82025000D01*
G75*
G02*
X123650000Y-82262500I0J-237500D01*
G01*
G37*
%TD.AperFunction*%
%TO.P,R6,1*%
%TO.N,Net-(C6-Pad1)*%
%TA.AperFunction,SMDPad,CuDef*%
G36*
G01*
X125400000Y-82262500D02*
X125400000Y-82737500D01*
G75*
G02*
X125162500Y-82975000I-237500J0D01*
G01*
X124587500Y-82975000D01*
G75*
G02*
X124350000Y-82737500I0J237500D01*
G01*
X124350000Y-82262500D01*
G75*
G02*
X124587500Y-82025000I237500J0D01*
G01*
X125162500Y-82025000D01*
G75*
G02*
X125400000Y-82262500I0J-237500D01*
G01*
G37*
%TD.AperFunction*%
%TD*%
%TO.P,R5,2*%
%TO.N,Net-(C4-Pad1)*%
%TA.AperFunction,SMDPad,CuDef*%
G36*
G01*
X117237500Y-86650000D02*
X116762500Y-86650000D01*
G75*
G02*
X116525000Y-86412500I0J237500D01*
G01*
X116525000Y-85837500D01*
G75*
G02*
X116762500Y-85600000I237500J0D01*
G01*
X117237500Y-85600000D01*
G75*
G02*
X117475000Y-85837500I0J-237500D01*
G01*
X117475000Y-86412500D01*
G75*
G02*
X117237500Y-86650000I-237500J0D01*
G01*
G37*
%TD.AperFunction*%
%TO.P,R5,1*%
%TO.N,Net-(D2-Pad2)*%
%TA.AperFunction,SMDPad,CuDef*%
G36*
G01*
X117237500Y-88400000D02*
X116762500Y-88400000D01*
G75*
G02*
X116525000Y-88162500I0J237500D01*
G01*
X116525000Y-87587500D01*
G75*
G02*
X116762500Y-87350000I237500J0D01*
G01*
X117237500Y-87350000D01*
G75*
G02*
X117475000Y-87587500I0J-237500D01*
G01*
X117475000Y-88162500D01*
G75*
G02*
X117237500Y-88400000I-237500J0D01*
G01*
G37*
%TD.AperFunction*%
%TD*%
%TO.P,R4,2*%
%TO.N,Net-(D2-Pad2)*%
%TA.AperFunction,SMDPad,CuDef*%
G36*
G01*
X117237500Y-90150000D02*
X116762500Y-90150000D01*
G75*
G02*
X116525000Y-89912500I0J237500D01*
G01*
X116525000Y-89337500D01*
G75*
G02*
X116762500Y-89100000I237500J0D01*
G01*
X117237500Y-89100000D01*
G75*
G02*
X117475000Y-89337500I0J-237500D01*
G01*
X117475000Y-89912500D01*
G75*
G02*
X117237500Y-90150000I-237500J0D01*
G01*
G37*
%TD.AperFunction*%
%TO.P,R4,1*%
%TO.N,Net-(R4-Pad1)*%
%TA.AperFunction,SMDPad,CuDef*%
G36*
G01*
X117237500Y-91900000D02*
X116762500Y-91900000D01*
G75*
G02*
X116525000Y-91662500I0J237500D01*
G01*
X116525000Y-91087500D01*
G75*
G02*
X116762500Y-90850000I237500J0D01*
G01*
X117237500Y-90850000D01*
G75*
G02*
X117475000Y-91087500I0J-237500D01*
G01*
X117475000Y-91662500D01*
G75*
G02*
X117237500Y-91900000I-237500J0D01*
G01*
G37*
%TD.AperFunction*%
%TD*%
%TO.P,R3,2*%
%TO.N,Net-(R3-Pad2)*%
%TA.AperFunction,SMDPad,CuDef*%
G36*
G01*
X136150000Y-82262500D02*
X136150000Y-82737500D01*
G75*
G02*
X135912500Y-82975000I-237500J0D01*
G01*
X135337500Y-82975000D01*
G75*
G02*
X135100000Y-82737500I0J237500D01*
G01*
X135100000Y-82262500D01*
G75*
G02*
X135337500Y-82025000I237500J0D01*
G01*
X135912500Y-82025000D01*
G75*
G02*
X136150000Y-82262500I0J-237500D01*
G01*
G37*
%TD.AperFunction*%
%TO.P,R3,1*%
%TO.N,Net-(C3-Pad1)*%
%TA.AperFunction,SMDPad,CuDef*%
G36*
G01*
X137900000Y-82262500D02*
X137900000Y-82737500D01*
G75*
G02*
X137662500Y-82975000I-237500J0D01*
G01*
X137087500Y-82975000D01*
G75*
G02*
X136850000Y-82737500I0J237500D01*
G01*
X136850000Y-82262500D01*
G75*
G02*
X137087500Y-82025000I237500J0D01*
G01*
X137662500Y-82025000D01*
G75*
G02*
X137900000Y-82262500I0J-237500D01*
G01*
G37*
%TD.AperFunction*%
%TD*%
%TO.P,R2,2*%
%TO.N,Net-(C1-Pad1)*%
%TA.AperFunction,SMDPad,CuDef*%
G36*
G01*
X129737500Y-86650000D02*
X129262500Y-86650000D01*
G75*
G02*
X129025000Y-86412500I0J237500D01*
G01*
X129025000Y-85837500D01*
G75*
G02*
X129262500Y-85600000I237500J0D01*
G01*
X129737500Y-85600000D01*
G75*
G02*
X129975000Y-85837500I0J-237500D01*
G01*
X129975000Y-86412500D01*
G75*
G02*
X129737500Y-86650000I-237500J0D01*
G01*
G37*
%TD.AperFunction*%
%TO.P,R2,1*%
%TO.N,Net-(D1-Pad2)*%
%TA.AperFunction,SMDPad,CuDef*%
G36*
G01*
X129737500Y-88400000D02*
X129262500Y-88400000D01*
G75*
G02*
X129025000Y-88162500I0J237500D01*
G01*
X129025000Y-87587500D01*
G75*
G02*
X129262500Y-87350000I237500J0D01*
G01*
X129737500Y-87350000D01*
G75*
G02*
X129975000Y-87587500I0J-237500D01*
G01*
X129975000Y-88162500D01*
G75*
G02*
X129737500Y-88400000I-237500J0D01*
G01*
G37*
%TD.AperFunction*%
%TD*%
%TO.P,R1,2*%
%TO.N,Net-(D1-Pad2)*%
%TA.AperFunction,SMDPad,CuDef*%
G36*
G01*
X129737500Y-90150000D02*
X129262500Y-90150000D01*
G75*
G02*
X129025000Y-89912500I0J237500D01*
G01*
X129025000Y-89337500D01*
G75*
G02*
X129262500Y-89100000I237500J0D01*
G01*
X129737500Y-89100000D01*
G75*
G02*
X129975000Y-89337500I0J-237500D01*
G01*
X129975000Y-89912500D01*
G75*
G02*
X129737500Y-90150000I-237500J0D01*
G01*
G37*
%TD.AperFunction*%
%TO.P,R1,1*%
%TO.N,Net-(R1-Pad1)*%
%TA.AperFunction,SMDPad,CuDef*%
G36*
G01*
X129737500Y-91900000D02*
X129262500Y-91900000D01*
G75*
G02*
X129025000Y-91662500I0J237500D01*
G01*
X129025000Y-91087500D01*
G75*
G02*
X129262500Y-90850000I237500J0D01*
G01*
X129737500Y-90850000D01*
G75*
G02*
X129975000Y-91087500I0J-237500D01*
G01*
X129975000Y-91662500D01*
G75*
G02*
X129737500Y-91900000I-237500J0D01*
G01*
G37*
%TD.AperFunction*%
%TD*%
D10*
%TO.P,Q1,3*%
%TO.N,/RED/RED*%
X154500000Y-87500000D03*
%TO.P,Q1,2*%
%TO.N,GND*%
X155450000Y-89500000D03*
%TO.P,Q1,1*%
%TO.N,Net-(C3-Pad1)*%
X153550000Y-89500000D03*
%TD*%
D17*
%TO.P,J1,4*%
%TO.N,/BLUE/BLUE*%
X159000000Y-93120000D03*
%TO.P,J1,3*%
%TO.N,/RED/RED*%
X159000000Y-90580000D03*
%TO.P,J1,2*%
%TO.N,/GREEN/GREEN*%
X159000000Y-88040000D03*
D18*
%TO.P,J1,1*%
%TO.N,+12V*%
X159000000Y-85500000D03*
%TD*%
%TO.P,C9,2*%
%TO.N,GND*%
%TA.AperFunction,SMDPad,CuDef*%
G36*
G01*
X154637500Y-96256250D02*
X154637500Y-95743750D01*
G75*
G02*
X154856250Y-95525000I218750J0D01*
G01*
X155293750Y-95525000D01*
G75*
G02*
X155512500Y-95743750I0J-218750D01*
G01*
X155512500Y-96256250D01*
G75*
G02*
X155293750Y-96475000I-218750J0D01*
G01*
X154856250Y-96475000D01*
G75*
G02*
X154637500Y-96256250I0J218750D01*
G01*
G37*
%TD.AperFunction*%
%TO.P,C9,1*%
%TO.N,Net-(C9-Pad1)*%
%TA.AperFunction,SMDPad,CuDef*%
G36*
G01*
X153062500Y-96256250D02*
X153062500Y-95743750D01*
G75*
G02*
X153281250Y-95525000I218750J0D01*
G01*
X153718750Y-95525000D01*
G75*
G02*
X153937500Y-95743750I0J-218750D01*
G01*
X153937500Y-96256250D01*
G75*
G02*
X153718750Y-96475000I-218750J0D01*
G01*
X153281250Y-96475000D01*
G75*
G02*
X153062500Y-96256250I0J218750D01*
G01*
G37*
%TD.AperFunction*%
%TD*%
%TO.P,C8,2*%
%TO.N,GND*%
%TA.AperFunction,SMDPad,CuDef*%
G36*
G01*
X145650000Y-82243750D02*
X145650000Y-82756250D01*
G75*
G02*
X145431250Y-82975000I-218750J0D01*
G01*
X144993750Y-82975000D01*
G75*
G02*
X144775000Y-82756250I0J218750D01*
G01*
X144775000Y-82243750D01*
G75*
G02*
X144993750Y-82025000I218750J0D01*
G01*
X145431250Y-82025000D01*
G75*
G02*
X145650000Y-82243750I0J-218750D01*
G01*
G37*
%TD.AperFunction*%
%TO.P,C8,1*%
%TO.N,Net-(C8-Pad1)*%
%TA.AperFunction,SMDPad,CuDef*%
G36*
G01*
X147225000Y-82243750D02*
X147225000Y-82756250D01*
G75*
G02*
X147006250Y-82975000I-218750J0D01*
G01*
X146568750Y-82975000D01*
G75*
G02*
X146350000Y-82756250I0J218750D01*
G01*
X146350000Y-82243750D01*
G75*
G02*
X146568750Y-82025000I218750J0D01*
G01*
X147006250Y-82025000D01*
G75*
G02*
X147225000Y-82243750I0J-218750D01*
G01*
G37*
%TD.AperFunction*%
%TD*%
%TO.P,C7,2*%
%TO.N,GND*%
%TA.AperFunction,SMDPad,CuDef*%
G36*
G01*
X142256250Y-83150000D02*
X141743750Y-83150000D01*
G75*
G02*
X141525000Y-82931250I0J218750D01*
G01*
X141525000Y-82493750D01*
G75*
G02*
X141743750Y-82275000I218750J0D01*
G01*
X142256250Y-82275000D01*
G75*
G02*
X142475000Y-82493750I0J-218750D01*
G01*
X142475000Y-82931250D01*
G75*
G02*
X142256250Y-83150000I-218750J0D01*
G01*
G37*
%TD.AperFunction*%
%TO.P,C7,1*%
%TO.N,Net-(C7-Pad1)*%
%TA.AperFunction,SMDPad,CuDef*%
G36*
G01*
X142256250Y-84725000D02*
X141743750Y-84725000D01*
G75*
G02*
X141525000Y-84506250I0J218750D01*
G01*
X141525000Y-84068750D01*
G75*
G02*
X141743750Y-83850000I218750J0D01*
G01*
X142256250Y-83850000D01*
G75*
G02*
X142475000Y-84068750I0J-218750D01*
G01*
X142475000Y-84506250D01*
G75*
G02*
X142256250Y-84725000I-218750J0D01*
G01*
G37*
%TD.AperFunction*%
%TD*%
%TO.P,C6,2*%
%TO.N,GND*%
%TA.AperFunction,SMDPad,CuDef*%
G36*
G01*
X154850000Y-86256250D02*
X154850000Y-85743750D01*
G75*
G02*
X155068750Y-85525000I218750J0D01*
G01*
X155506250Y-85525000D01*
G75*
G02*
X155725000Y-85743750I0J-218750D01*
G01*
X155725000Y-86256250D01*
G75*
G02*
X155506250Y-86475000I-218750J0D01*
G01*
X155068750Y-86475000D01*
G75*
G02*
X154850000Y-86256250I0J218750D01*
G01*
G37*
%TD.AperFunction*%
%TO.P,C6,1*%
%TO.N,Net-(C6-Pad1)*%
%TA.AperFunction,SMDPad,CuDef*%
G36*
G01*
X153275000Y-86256250D02*
X153275000Y-85743750D01*
G75*
G02*
X153493750Y-85525000I218750J0D01*
G01*
X153931250Y-85525000D01*
G75*
G02*
X154150000Y-85743750I0J-218750D01*
G01*
X154150000Y-86256250D01*
G75*
G02*
X153931250Y-86475000I-218750J0D01*
G01*
X153493750Y-86475000D01*
G75*
G02*
X153275000Y-86256250I0J218750D01*
G01*
G37*
%TD.AperFunction*%
%TD*%
%TO.P,C5,2*%
%TO.N,GND*%
%TA.AperFunction,SMDPad,CuDef*%
G36*
G01*
X120350000Y-82756250D02*
X120350000Y-82243750D01*
G75*
G02*
X120568750Y-82025000I218750J0D01*
G01*
X121006250Y-82025000D01*
G75*
G02*
X121225000Y-82243750I0J-218750D01*
G01*
X121225000Y-82756250D01*
G75*
G02*
X121006250Y-82975000I-218750J0D01*
G01*
X120568750Y-82975000D01*
G75*
G02*
X120350000Y-82756250I0J218750D01*
G01*
G37*
%TD.AperFunction*%
%TO.P,C5,1*%
%TO.N,Net-(C5-Pad1)*%
%TA.AperFunction,SMDPad,CuDef*%
G36*
G01*
X118775000Y-82756250D02*
X118775000Y-82243750D01*
G75*
G02*
X118993750Y-82025000I218750J0D01*
G01*
X119431250Y-82025000D01*
G75*
G02*
X119650000Y-82243750I0J-218750D01*
G01*
X119650000Y-82756250D01*
G75*
G02*
X119431250Y-82975000I-218750J0D01*
G01*
X118993750Y-82975000D01*
G75*
G02*
X118775000Y-82756250I0J218750D01*
G01*
G37*
%TD.AperFunction*%
%TD*%
%TO.P,C4,2*%
%TO.N,GND*%
%TA.AperFunction,SMDPad,CuDef*%
G36*
G01*
X117256250Y-83150000D02*
X116743750Y-83150000D01*
G75*
G02*
X116525000Y-82931250I0J218750D01*
G01*
X116525000Y-82493750D01*
G75*
G02*
X116743750Y-82275000I218750J0D01*
G01*
X117256250Y-82275000D01*
G75*
G02*
X117475000Y-82493750I0J-218750D01*
G01*
X117475000Y-82931250D01*
G75*
G02*
X117256250Y-83150000I-218750J0D01*
G01*
G37*
%TD.AperFunction*%
%TO.P,C4,1*%
%TO.N,Net-(C4-Pad1)*%
%TA.AperFunction,SMDPad,CuDef*%
G36*
G01*
X117256250Y-84725000D02*
X116743750Y-84725000D01*
G75*
G02*
X116525000Y-84506250I0J218750D01*
G01*
X116525000Y-84068750D01*
G75*
G02*
X116743750Y-83850000I218750J0D01*
G01*
X117256250Y-83850000D01*
G75*
G02*
X117475000Y-84068750I0J-218750D01*
G01*
X117475000Y-84506250D01*
G75*
G02*
X117256250Y-84725000I-218750J0D01*
G01*
G37*
%TD.AperFunction*%
%TD*%
%TO.P,C3,2*%
%TO.N,GND*%
%TA.AperFunction,SMDPad,CuDef*%
G36*
G01*
X154850000Y-91256250D02*
X154850000Y-90743750D01*
G75*
G02*
X155068750Y-90525000I218750J0D01*
G01*
X155506250Y-90525000D01*
G75*
G02*
X155725000Y-90743750I0J-218750D01*
G01*
X155725000Y-91256250D01*
G75*
G02*
X155506250Y-91475000I-218750J0D01*
G01*
X155068750Y-91475000D01*
G75*
G02*
X154850000Y-91256250I0J218750D01*
G01*
G37*
%TD.AperFunction*%
%TO.P,C3,1*%
%TO.N,Net-(C3-Pad1)*%
%TA.AperFunction,SMDPad,CuDef*%
G36*
G01*
X153275000Y-91256250D02*
X153275000Y-90743750D01*
G75*
G02*
X153493750Y-90525000I218750J0D01*
G01*
X153931250Y-90525000D01*
G75*
G02*
X154150000Y-90743750I0J-218750D01*
G01*
X154150000Y-91256250D01*
G75*
G02*
X153931250Y-91475000I-218750J0D01*
G01*
X153493750Y-91475000D01*
G75*
G02*
X153275000Y-91256250I0J218750D01*
G01*
G37*
%TD.AperFunction*%
%TD*%
%TO.P,C2,2*%
%TO.N,GND*%
%TA.AperFunction,SMDPad,CuDef*%
G36*
G01*
X132650000Y-82243750D02*
X132650000Y-82756250D01*
G75*
G02*
X132431250Y-82975000I-218750J0D01*
G01*
X131993750Y-82975000D01*
G75*
G02*
X131775000Y-82756250I0J218750D01*
G01*
X131775000Y-82243750D01*
G75*
G02*
X131993750Y-82025000I218750J0D01*
G01*
X132431250Y-82025000D01*
G75*
G02*
X132650000Y-82243750I0J-218750D01*
G01*
G37*
%TD.AperFunction*%
%TO.P,C2,1*%
%TO.N,Net-(C2-Pad1)*%
%TA.AperFunction,SMDPad,CuDef*%
G36*
G01*
X134225000Y-82243750D02*
X134225000Y-82756250D01*
G75*
G02*
X134006250Y-82975000I-218750J0D01*
G01*
X133568750Y-82975000D01*
G75*
G02*
X133350000Y-82756250I0J218750D01*
G01*
X133350000Y-82243750D01*
G75*
G02*
X133568750Y-82025000I218750J0D01*
G01*
X134006250Y-82025000D01*
G75*
G02*
X134225000Y-82243750I0J-218750D01*
G01*
G37*
%TD.AperFunction*%
%TD*%
%TO.P,C1,2*%
%TO.N,GND*%
%TA.AperFunction,SMDPad,CuDef*%
G36*
G01*
X129756250Y-83150000D02*
X129243750Y-83150000D01*
G75*
G02*
X129025000Y-82931250I0J218750D01*
G01*
X129025000Y-82493750D01*
G75*
G02*
X129243750Y-82275000I218750J0D01*
G01*
X129756250Y-82275000D01*
G75*
G02*
X129975000Y-82493750I0J-218750D01*
G01*
X129975000Y-82931250D01*
G75*
G02*
X129756250Y-83150000I-218750J0D01*
G01*
G37*
%TD.AperFunction*%
%TO.P,C1,1*%
%TO.N,Net-(C1-Pad1)*%
%TA.AperFunction,SMDPad,CuDef*%
G36*
G01*
X129756250Y-84725000D02*
X129243750Y-84725000D01*
G75*
G02*
X129025000Y-84506250I0J218750D01*
G01*
X129025000Y-84068750D01*
G75*
G02*
X129243750Y-83850000I218750J0D01*
G01*
X129756250Y-83850000D01*
G75*
G02*
X129975000Y-84068750I0J-218750D01*
G01*
X129975000Y-84506250D01*
G75*
G02*
X129756250Y-84725000I-218750J0D01*
G01*
G37*
%TD.AperFunction*%
%TD*%
D19*
%TO.N,GND*%
X143690000Y-82540000D03*
X134400000Y-88040000D03*
X130910000Y-82520000D03*
X122100000Y-88080000D03*
X147100000Y-88170000D03*
X156470000Y-87120000D03*
X156790000Y-91400000D03*
X157340000Y-95420000D03*
%TD*%
D20*
%TO.N,GND*%
X143730000Y-82500000D02*
X143690000Y-82540000D01*
X145212500Y-82500000D02*
X143730000Y-82500000D01*
X134765000Y-88405000D02*
X134400000Y-88040000D01*
X136975000Y-88405000D02*
X134765000Y-88405000D01*
X132212500Y-82500000D02*
X130930000Y-82500000D01*
D21*
X130930000Y-82500000D02*
X130910000Y-82520000D01*
D20*
X122425000Y-88405000D02*
X122100000Y-88080000D01*
X124475000Y-88405000D02*
X122425000Y-88405000D01*
D21*
X149475000Y-88405000D02*
X147335000Y-88405000D01*
X147335000Y-88405000D02*
X147100000Y-88170000D01*
D20*
X155450000Y-90837500D02*
X155287500Y-91000000D01*
X155450000Y-89500000D02*
X155450000Y-90837500D01*
X156390000Y-91000000D02*
X156790000Y-91400000D01*
X155287500Y-91000000D02*
X156390000Y-91000000D01*
D22*
X155450000Y-85837500D02*
X155287500Y-86000000D01*
X155450000Y-84500000D02*
X155450000Y-85837500D01*
X155910000Y-86000000D02*
X155287500Y-86000000D01*
X156470000Y-87120000D02*
X156470000Y-86560000D01*
X156470000Y-86560000D02*
X155910000Y-86000000D01*
X155075000Y-96000000D02*
X156760000Y-96000000D01*
X156760000Y-96000000D02*
X157340000Y-95420000D01*
D20*
%TO.N,Net-(C1-Pad1)*%
X136975000Y-87135000D02*
X135425000Y-87135000D01*
X134155000Y-85865000D02*
X132025000Y-85865000D01*
X135425000Y-87135000D02*
X134155000Y-85865000D01*
X129760000Y-85865000D02*
X129500000Y-86125000D01*
X132025000Y-85865000D02*
X129760000Y-85865000D01*
X129500000Y-84287500D02*
X129500000Y-86125000D01*
X127775000Y-86125000D02*
X127500000Y-85850000D01*
X129500000Y-86125000D02*
X127775000Y-86125000D01*
%TO.N,Net-(C2-Pad1)*%
X132025000Y-84595000D02*
X133405000Y-84595000D01*
X133787500Y-84212500D02*
X133787500Y-82500000D01*
X133405000Y-84595000D02*
X133787500Y-84212500D01*
%TO.N,Net-(C3-Pad1)*%
X137375000Y-81665000D02*
X137870000Y-81170000D01*
X152640000Y-82490000D02*
X152640000Y-88590000D01*
X137870000Y-81170000D02*
X151320000Y-81170000D01*
X152640000Y-88590000D02*
X153550000Y-89500000D01*
X137375000Y-82500000D02*
X137375000Y-81665000D01*
X151320000Y-81170000D02*
X152640000Y-82490000D01*
D22*
X153550000Y-90837500D02*
X153712500Y-91000000D01*
X153550000Y-89500000D02*
X153550000Y-90837500D01*
D20*
%TO.N,Net-(C4-Pad1)*%
X124475000Y-87135000D02*
X123045000Y-87135000D01*
X123045000Y-87135000D02*
X121775000Y-85865000D01*
X121775000Y-85865000D02*
X119525000Y-85865000D01*
X117260000Y-85865000D02*
X117000000Y-86125000D01*
X119525000Y-85865000D02*
X117260000Y-85865000D01*
X117000000Y-84287500D02*
X117000000Y-86125000D01*
X115275000Y-86125000D02*
X115000000Y-85850000D01*
X117000000Y-86125000D02*
X115275000Y-86125000D01*
%TO.N,Net-(C5-Pad1)*%
X119212500Y-84282500D02*
X119525000Y-84595000D01*
X119212500Y-82500000D02*
X119212500Y-84282500D01*
%TO.N,Net-(C6-Pad1)*%
X124875000Y-81345000D02*
X124875000Y-82500000D01*
X152220000Y-80500000D02*
X125720000Y-80500000D01*
X125720000Y-80500000D02*
X124875000Y-81345000D01*
X153550000Y-84500000D02*
X153550000Y-81830000D01*
X153550000Y-81830000D02*
X152220000Y-80500000D01*
D22*
X153550000Y-85837500D02*
X153712500Y-86000000D01*
X153550000Y-84500000D02*
X153550000Y-85837500D01*
D20*
%TO.N,Net-(C7-Pad1)*%
X142260000Y-85865000D02*
X142000000Y-86125000D01*
X144525000Y-85865000D02*
X142260000Y-85865000D01*
X142000000Y-84287500D02*
X142000000Y-86125000D01*
X146185000Y-85865000D02*
X144525000Y-85865000D01*
X147455000Y-87135000D02*
X146185000Y-85865000D01*
X149475000Y-87135000D02*
X147455000Y-87135000D01*
X140275000Y-86125000D02*
X140000000Y-85850000D01*
X142000000Y-86125000D02*
X140275000Y-86125000D01*
%TO.N,Net-(C8-Pad1)*%
X146787500Y-83972500D02*
X146787500Y-82500000D01*
X146165000Y-84595000D02*
X146787500Y-83972500D01*
X144525000Y-84595000D02*
X146165000Y-84595000D01*
%TO.N,Net-(C9-Pad1)*%
X151820000Y-91030000D02*
X153550000Y-92760000D01*
X151820000Y-83150000D02*
X151820000Y-91030000D01*
X153550000Y-92760000D02*
X153550000Y-94500000D01*
X150375000Y-82500000D02*
X151170000Y-82500000D01*
X151170000Y-82500000D02*
X151820000Y-83150000D01*
D22*
X153550000Y-95950000D02*
X153500000Y-96000000D01*
X153550000Y-94500000D02*
X153550000Y-95950000D01*
D20*
%TO.N,/BLUE/BLUE*%
X154500000Y-92500000D02*
X156460000Y-92500000D01*
X156460000Y-92500000D02*
X157080000Y-93120000D01*
X157080000Y-93120000D02*
X159000000Y-93120000D01*
%TO.N,/RED/RED*%
X158520000Y-90580000D02*
X159000000Y-90580000D01*
X154500000Y-87500000D02*
X155440000Y-87500000D01*
X155440000Y-87500000D02*
X158520000Y-90580000D01*
%TO.N,/GREEN/GREEN*%
X158040000Y-88040000D02*
X159000000Y-88040000D01*
X156650000Y-82500000D02*
X157440000Y-83290000D01*
X157440000Y-83290000D02*
X157440000Y-87440000D01*
X154500000Y-82500000D02*
X156650000Y-82500000D01*
X157440000Y-87440000D02*
X158040000Y-88040000D01*
%TO.N,+12V*%
X138430000Y-89650000D02*
X137580000Y-90500000D01*
X137825000Y-84595000D02*
X138430000Y-85200000D01*
X136975000Y-84595000D02*
X137825000Y-84595000D01*
X138430000Y-85200000D02*
X138430000Y-89650000D01*
X137580000Y-90500000D02*
X137000000Y-90500000D01*
X124475000Y-84595000D02*
X125695000Y-84595000D01*
X126180000Y-89680000D02*
X125360000Y-90500000D01*
X125360000Y-90500000D02*
X124500000Y-90500000D01*
X126180000Y-85080000D02*
X126180000Y-89680000D01*
X125695000Y-84595000D02*
X126180000Y-85080000D01*
D22*
X112000000Y-89000000D02*
X112000000Y-90190000D01*
X112000000Y-90190000D02*
X116540000Y-94730000D01*
X116540000Y-94730000D02*
X122370000Y-94730000D01*
X124500000Y-92600000D02*
X124500000Y-90500000D01*
X122370000Y-94730000D02*
X124500000Y-92600000D01*
X137000000Y-92580000D02*
X137000000Y-90500000D01*
X127630000Y-95080000D02*
X134500000Y-95080000D01*
X124500000Y-90500000D02*
X124500000Y-91950000D01*
X134500000Y-95080000D02*
X137000000Y-92580000D01*
X124500000Y-91950000D02*
X127630000Y-95080000D01*
X137000000Y-90500000D02*
X137000000Y-92310000D01*
X137000000Y-92310000D02*
X139860000Y-95170000D01*
X139860000Y-95170000D02*
X146940000Y-95170000D01*
X149500000Y-92610000D02*
X149500000Y-90500000D01*
X146940000Y-95170000D02*
X149500000Y-92610000D01*
X144525000Y-88405000D02*
X144525000Y-89805000D01*
X145220000Y-90500000D02*
X149500000Y-90500000D01*
X144525000Y-89805000D02*
X145220000Y-90500000D01*
X119525000Y-88405000D02*
X119525000Y-89575000D01*
X119525000Y-89575000D02*
X120450000Y-90500000D01*
X120450000Y-90500000D02*
X124500000Y-90500000D01*
X132025000Y-88405000D02*
X132025000Y-89515000D01*
X132025000Y-89515000D02*
X133010000Y-90500000D01*
X133010000Y-90500000D02*
X137000000Y-90500000D01*
D20*
X149475000Y-84595000D02*
X150795000Y-84595000D01*
X150795000Y-84595000D02*
X151100000Y-84900000D01*
X151100000Y-84900000D02*
X151100000Y-89960000D01*
X150560000Y-90500000D02*
X149500000Y-90500000D01*
X151100000Y-89960000D02*
X150560000Y-90500000D01*
D22*
X149500000Y-90500000D02*
X149500000Y-92480000D01*
X149500000Y-92480000D02*
X151830000Y-94810000D01*
X151830000Y-94810000D02*
X151830000Y-96910000D01*
X151830000Y-96910000D02*
X152530000Y-97610000D01*
X152530000Y-97610000D02*
X158470000Y-97610000D01*
X158470000Y-97610000D02*
X161280000Y-94800000D01*
X161280000Y-94800000D02*
X161280000Y-86230000D01*
X160550000Y-85500000D02*
X159000000Y-85500000D01*
X161280000Y-86230000D02*
X160550000Y-85500000D01*
%TO.N,Net-(R1-Pad1)*%
X129500000Y-92070000D02*
X129500000Y-91375000D01*
X132000000Y-93000000D02*
X130430000Y-93000000D01*
X130430000Y-93000000D02*
X129500000Y-92070000D01*
D20*
%TO.N,Net-(R3-Pad2)*%
X136975000Y-85865000D02*
X135915000Y-85865000D01*
X135915000Y-85865000D02*
X135180000Y-85130000D01*
X135180000Y-82945000D02*
X135625000Y-82500000D01*
X135180000Y-85130000D02*
X135180000Y-82945000D01*
D22*
%TO.N,Net-(R4-Pad1)*%
X117000000Y-92290000D02*
X117710000Y-93000000D01*
X117000000Y-91375000D02*
X117000000Y-92290000D01*
X117710000Y-93000000D02*
X119500000Y-93000000D01*
D20*
%TO.N,Net-(R6-Pad2)*%
X124475000Y-85865000D02*
X123435000Y-85865000D01*
X122600000Y-85030000D02*
X122600000Y-83025000D01*
X122600000Y-83025000D02*
X123125000Y-82500000D01*
X123435000Y-85865000D02*
X122600000Y-85030000D01*
D22*
%TO.N,Net-(R7-Pad1)*%
X142690000Y-93000000D02*
X144500000Y-93000000D01*
X142000000Y-91375000D02*
X142000000Y-92310000D01*
X142000000Y-92310000D02*
X142690000Y-93000000D01*
D20*
%TO.N,Net-(R9-Pad2)*%
X148625000Y-83265000D02*
X148625000Y-82500000D01*
X147730000Y-84160000D02*
X148625000Y-83265000D01*
X147730000Y-85400000D02*
X147730000Y-84160000D01*
X149475000Y-85865000D02*
X148195000Y-85865000D01*
X148195000Y-85865000D02*
X147730000Y-85400000D01*
%TO.N,Net-(D1-Pad2)*%
X130240000Y-87135000D02*
X129500000Y-87875000D01*
X132025000Y-87135000D02*
X130240000Y-87135000D01*
X129500000Y-89625000D02*
X129500000Y-87875000D01*
X129025000Y-89150000D02*
X129500000Y-89625000D01*
X127500000Y-89150000D02*
X129025000Y-89150000D01*
%TO.N,Net-(D2-Pad2)*%
X117740000Y-87135000D02*
X119525000Y-87135000D01*
X117000000Y-87875000D02*
X117740000Y-87135000D01*
X117000000Y-87875000D02*
X117000000Y-89625000D01*
X116525000Y-89150000D02*
X117000000Y-89625000D01*
X115000000Y-89150000D02*
X116525000Y-89150000D01*
%TO.N,Net-(D3-Pad2)*%
X142000000Y-87875000D02*
X142000000Y-89625000D01*
X142740000Y-87135000D02*
X142000000Y-87875000D01*
X144525000Y-87135000D02*
X142740000Y-87135000D01*
X140475000Y-89625000D02*
X140000000Y-89150000D01*
X142000000Y-89625000D02*
X140475000Y-89625000D01*
%TD*%
D23*
%TO.N,GND*%
G36*
X124313579Y-80725554D02*
G01*
X124281709Y-80751709D01*
X124207543Y-80842082D01*
X124177364Y-80878855D01*
X124099828Y-81023914D01*
X124052082Y-81181312D01*
X124035960Y-81345000D01*
X124040000Y-81386019D01*
X124040000Y-81584597D01*
X124000000Y-81617425D01*
X123898942Y-81534488D01*
X123747567Y-81453577D01*
X123583316Y-81403752D01*
X123412500Y-81386928D01*
X122837500Y-81386928D01*
X122666684Y-81403752D01*
X122502433Y-81453577D01*
X122351058Y-81534488D01*
X122218377Y-81643377D01*
X122109488Y-81776058D01*
X122028577Y-81927433D01*
X121978752Y-82091684D01*
X121961928Y-82262500D01*
X121961928Y-82486276D01*
X121947350Y-82504040D01*
X121902364Y-82558855D01*
X121824828Y-82703914D01*
X121813967Y-82739717D01*
X121701250Y-82627000D01*
X120914500Y-82627000D01*
X120914500Y-83451250D01*
X121073250Y-83610000D01*
X121225000Y-83613072D01*
X121349482Y-83600812D01*
X121469180Y-83564502D01*
X121579494Y-83505537D01*
X121676185Y-83426185D01*
X121755537Y-83329494D01*
X121765001Y-83311789D01*
X121765000Y-84988981D01*
X121761224Y-85027317D01*
X121733982Y-85030000D01*
X121083114Y-85030000D01*
X121122929Y-84898745D01*
X121138072Y-84745000D01*
X121138072Y-84445000D01*
X121122929Y-84291255D01*
X121078084Y-84143418D01*
X121005258Y-84007171D01*
X120907251Y-83887749D01*
X120787829Y-83789742D01*
X120651582Y-83716916D01*
X120503745Y-83672071D01*
X120350000Y-83656928D01*
X120047500Y-83656928D01*
X120047500Y-83533329D01*
X120105820Y-83564502D01*
X120225518Y-83600812D01*
X120350000Y-83613072D01*
X120501750Y-83610000D01*
X120660500Y-83451250D01*
X120660500Y-82627000D01*
X120640500Y-82627000D01*
X120640500Y-82373000D01*
X120660500Y-82373000D01*
X120660500Y-81548750D01*
X120914500Y-81548750D01*
X120914500Y-82373000D01*
X121701250Y-82373000D01*
X121860000Y-82214250D01*
X121863072Y-82025000D01*
X121850812Y-81900518D01*
X121814502Y-81780820D01*
X121755537Y-81670506D01*
X121676185Y-81573815D01*
X121579494Y-81494463D01*
X121469180Y-81435498D01*
X121349482Y-81399188D01*
X121225000Y-81386928D01*
X121073250Y-81390000D01*
X120914500Y-81548750D01*
X120660500Y-81548750D01*
X120501750Y-81390000D01*
X120350000Y-81386928D01*
X120225518Y-81399188D01*
X120105820Y-81435498D01*
X119995506Y-81494463D01*
X119928930Y-81549100D01*
X119907275Y-81531329D01*
X119759142Y-81452150D01*
X119598408Y-81403392D01*
X119431250Y-81386928D01*
X118993750Y-81386928D01*
X118826592Y-81403392D01*
X118665858Y-81452150D01*
X118517725Y-81531329D01*
X118387885Y-81637885D01*
X118281329Y-81767725D01*
X118202150Y-81915858D01*
X118153392Y-82076592D01*
X118136928Y-82243750D01*
X118136928Y-82756250D01*
X118153392Y-82923408D01*
X118202150Y-83084142D01*
X118281329Y-83232275D01*
X118377500Y-83349461D01*
X118377501Y-83728097D01*
X118262171Y-83789742D01*
X118142749Y-83887749D01*
X118100335Y-83939431D01*
X118096608Y-83901592D01*
X118047850Y-83740858D01*
X117968671Y-83592725D01*
X117950900Y-83571070D01*
X118005537Y-83504494D01*
X118064502Y-83394180D01*
X118100812Y-83274482D01*
X118113072Y-83150000D01*
X118110000Y-82998250D01*
X117951250Y-82839500D01*
X117127000Y-82839500D01*
X117127000Y-82859500D01*
X116873000Y-82859500D01*
X116873000Y-82839500D01*
X116048750Y-82839500D01*
X115890000Y-82998250D01*
X115886928Y-83150000D01*
X115899188Y-83274482D01*
X115935498Y-83394180D01*
X115994463Y-83504494D01*
X116049100Y-83571070D01*
X116031329Y-83592725D01*
X115952150Y-83740858D01*
X115903392Y-83901592D01*
X115886928Y-84068750D01*
X115886928Y-84506250D01*
X115903392Y-84673408D01*
X115952150Y-84834142D01*
X115983951Y-84893638D01*
X115954494Y-84869463D01*
X115844180Y-84810498D01*
X115724482Y-84774188D01*
X115600000Y-84761928D01*
X114400000Y-84761928D01*
X114275518Y-84774188D01*
X114155820Y-84810498D01*
X114045506Y-84869463D01*
X113948815Y-84948815D01*
X113869463Y-85045506D01*
X113810498Y-85155820D01*
X113774188Y-85275518D01*
X113761928Y-85400000D01*
X113761928Y-86300000D01*
X113774188Y-86424482D01*
X113810498Y-86544180D01*
X113869463Y-86654494D01*
X113948815Y-86751185D01*
X114045506Y-86830537D01*
X114155820Y-86889502D01*
X114275518Y-86925812D01*
X114400000Y-86938072D01*
X115078853Y-86938072D01*
X115111311Y-86947918D01*
X115233981Y-86960000D01*
X115233982Y-86960000D01*
X115275000Y-86964040D01*
X115316018Y-86960000D01*
X116084597Y-86960000D01*
X116117425Y-87000000D01*
X116034488Y-87101058D01*
X115953577Y-87252433D01*
X115903752Y-87416684D01*
X115886928Y-87587500D01*
X115886928Y-88133348D01*
X115844180Y-88110498D01*
X115724482Y-88074188D01*
X115600000Y-88061928D01*
X114400000Y-88061928D01*
X114275518Y-88074188D01*
X114155820Y-88110498D01*
X114045506Y-88169463D01*
X113948815Y-88248815D01*
X113869463Y-88345506D01*
X113810498Y-88455820D01*
X113774188Y-88575518D01*
X113761928Y-88700000D01*
X113761928Y-89600000D01*
X113774188Y-89724482D01*
X113810498Y-89844180D01*
X113869463Y-89954494D01*
X113948815Y-90051185D01*
X114045506Y-90130537D01*
X114155820Y-90189502D01*
X114275518Y-90225812D01*
X114400000Y-90238072D01*
X115600000Y-90238072D01*
X115724482Y-90225812D01*
X115844180Y-90189502D01*
X115923157Y-90147287D01*
X115953577Y-90247567D01*
X116034488Y-90398942D01*
X116117425Y-90500000D01*
X116034488Y-90601058D01*
X115953577Y-90752433D01*
X115903752Y-90916684D01*
X115886928Y-91087500D01*
X115886928Y-91662500D01*
X115903752Y-91833316D01*
X115953577Y-91997567D01*
X116034488Y-92148942D01*
X116065001Y-92186122D01*
X116065001Y-92244059D01*
X116060476Y-92290000D01*
X116078529Y-92473291D01*
X116116966Y-92600000D01*
X116131994Y-92649540D01*
X116218815Y-92811972D01*
X116335657Y-92954344D01*
X116371336Y-92983625D01*
X117016370Y-93628659D01*
X117045656Y-93664344D01*
X117188028Y-93781186D01*
X117213872Y-93795000D01*
X116927289Y-93795000D01*
X113538072Y-90405783D01*
X113538072Y-86800000D01*
X113525812Y-86675518D01*
X113489502Y-86555820D01*
X113430537Y-86445506D01*
X113351185Y-86348815D01*
X113254494Y-86269463D01*
X113144180Y-86210498D01*
X113024482Y-86174188D01*
X112900000Y-86161928D01*
X111100000Y-86161928D01*
X110975518Y-86174188D01*
X110855820Y-86210498D01*
X110745506Y-86269463D01*
X110648815Y-86348815D01*
X110569463Y-86445506D01*
X110510498Y-86555820D01*
X110474188Y-86675518D01*
X110461928Y-86800000D01*
X110461928Y-91200000D01*
X110474188Y-91324482D01*
X110510498Y-91444180D01*
X110569463Y-91554494D01*
X110648815Y-91651185D01*
X110745506Y-91730537D01*
X110855820Y-91789502D01*
X110975518Y-91825812D01*
X111100000Y-91838072D01*
X112325783Y-91838072D01*
X115846370Y-95358659D01*
X115875656Y-95394344D01*
X116018028Y-95511186D01*
X116123880Y-95567765D01*
X116180459Y-95598007D01*
X116356708Y-95651472D01*
X116540000Y-95669524D01*
X116585935Y-95665000D01*
X122324068Y-95665000D01*
X122370000Y-95669524D01*
X122415932Y-95665000D01*
X122553292Y-95651471D01*
X122729540Y-95598007D01*
X122891972Y-95511186D01*
X123034344Y-95394344D01*
X123063630Y-95358659D01*
X123097161Y-95325128D01*
X123090000Y-95361127D01*
X123090000Y-95638873D01*
X123144186Y-95911282D01*
X123250475Y-96167885D01*
X123404782Y-96398822D01*
X123601178Y-96595218D01*
X123832115Y-96749525D01*
X124088718Y-96855814D01*
X124361127Y-96910000D01*
X124638873Y-96910000D01*
X124911282Y-96855814D01*
X125167885Y-96749525D01*
X125398822Y-96595218D01*
X125595218Y-96398822D01*
X125749525Y-96167885D01*
X125855814Y-95911282D01*
X125910000Y-95638873D01*
X125910000Y-95361127D01*
X125855814Y-95088718D01*
X125749525Y-94832115D01*
X125595218Y-94601178D01*
X125398822Y-94404782D01*
X125167885Y-94250475D01*
X124911282Y-94144186D01*
X124638873Y-94090000D01*
X124361127Y-94090000D01*
X124325128Y-94097161D01*
X124825000Y-93597289D01*
X126936374Y-95708664D01*
X126965656Y-95744344D01*
X127108028Y-95861186D01*
X127270460Y-95948007D01*
X127393243Y-95985253D01*
X127446707Y-96001471D01*
X127465110Y-96003283D01*
X127584068Y-96015000D01*
X127584074Y-96015000D01*
X127629999Y-96019523D01*
X127675924Y-96015000D01*
X134454068Y-96015000D01*
X134500000Y-96019524D01*
X134545932Y-96015000D01*
X134683292Y-96001471D01*
X134859540Y-95948007D01*
X135021972Y-95861186D01*
X135164344Y-95744344D01*
X135193630Y-95708659D01*
X135602127Y-95300162D01*
X135590000Y-95361127D01*
X135590000Y-95638873D01*
X135644186Y-95911282D01*
X135750475Y-96167885D01*
X135904782Y-96398822D01*
X136101178Y-96595218D01*
X136332115Y-96749525D01*
X136588718Y-96855814D01*
X136861127Y-96910000D01*
X137138873Y-96910000D01*
X137411282Y-96855814D01*
X137667885Y-96749525D01*
X137898822Y-96595218D01*
X138095218Y-96398822D01*
X138249525Y-96167885D01*
X138355814Y-95911282D01*
X138410000Y-95638873D01*
X138410000Y-95361127D01*
X138355814Y-95088718D01*
X138284668Y-94916957D01*
X139166370Y-95798659D01*
X139195656Y-95834344D01*
X139338028Y-95951186D01*
X139500460Y-96038007D01*
X139572828Y-96059959D01*
X139676708Y-96091472D01*
X139860000Y-96109524D01*
X139905935Y-96105000D01*
X146894068Y-96105000D01*
X146940000Y-96109524D01*
X146985932Y-96105000D01*
X147123292Y-96091471D01*
X147299540Y-96038007D01*
X147461972Y-95951186D01*
X147604344Y-95834344D01*
X147633630Y-95798659D01*
X148094678Y-95337611D01*
X148090000Y-95361127D01*
X148090000Y-95638873D01*
X148144186Y-95911282D01*
X148250475Y-96167885D01*
X148404782Y-96398822D01*
X148601178Y-96595218D01*
X148832115Y-96749525D01*
X149088718Y-96855814D01*
X149361127Y-96910000D01*
X149638873Y-96910000D01*
X149911282Y-96855814D01*
X150167885Y-96749525D01*
X150398822Y-96595218D01*
X150595218Y-96398822D01*
X150749525Y-96167885D01*
X150855814Y-95911282D01*
X150895000Y-95714280D01*
X150895001Y-96864058D01*
X150890476Y-96910000D01*
X150908529Y-97093291D01*
X150913598Y-97110000D01*
X150961994Y-97269540D01*
X151048815Y-97431972D01*
X151165657Y-97574344D01*
X151201336Y-97603625D01*
X151836374Y-98238664D01*
X151865656Y-98274344D01*
X152008028Y-98391186D01*
X152170460Y-98478007D01*
X152293243Y-98515253D01*
X152346707Y-98531471D01*
X152365110Y-98533283D01*
X152484068Y-98545000D01*
X152484074Y-98545000D01*
X152529999Y-98549523D01*
X152575924Y-98545000D01*
X158424068Y-98545000D01*
X158470000Y-98549524D01*
X158515932Y-98545000D01*
X158653292Y-98531471D01*
X158829540Y-98478007D01*
X158991972Y-98391186D01*
X159134344Y-98274344D01*
X159163630Y-98238659D01*
X161908666Y-95493624D01*
X161944344Y-95464344D01*
X162061186Y-95321972D01*
X162148007Y-95159540D01*
X162193225Y-95010476D01*
X162201471Y-94983293D01*
X162219524Y-94800001D01*
X162215000Y-94754069D01*
X162215000Y-86275932D01*
X162219524Y-86230000D01*
X162201471Y-86046708D01*
X162193967Y-86021971D01*
X162148007Y-85870460D01*
X162061186Y-85708028D01*
X161944344Y-85565656D01*
X161908659Y-85536370D01*
X161243630Y-84871341D01*
X161214344Y-84835656D01*
X161071972Y-84718814D01*
X160909540Y-84631993D01*
X160733292Y-84578529D01*
X160595932Y-84565000D01*
X160550000Y-84560476D01*
X160504068Y-84565000D01*
X160479701Y-84565000D01*
X160475812Y-84525518D01*
X160439502Y-84405820D01*
X160380537Y-84295506D01*
X160301185Y-84198815D01*
X160204494Y-84119463D01*
X160094180Y-84060498D01*
X159974482Y-84024188D01*
X159850000Y-84011928D01*
X158275000Y-84011928D01*
X158275000Y-83331018D01*
X158279040Y-83290000D01*
X158269913Y-83197328D01*
X158262918Y-83126311D01*
X158215172Y-82968913D01*
X158137636Y-82823854D01*
X158082155Y-82756250D01*
X158059439Y-82728570D01*
X158059437Y-82728568D01*
X158033291Y-82696709D01*
X158001433Y-82670564D01*
X157269445Y-81938578D01*
X157243291Y-81906709D01*
X157116146Y-81802364D01*
X156971087Y-81724828D01*
X156813689Y-81677082D01*
X156691019Y-81665000D01*
X156691018Y-81665000D01*
X156650000Y-81660960D01*
X156608982Y-81665000D01*
X155405501Y-81665000D01*
X155351185Y-81598815D01*
X155254494Y-81519463D01*
X155144180Y-81460498D01*
X155024482Y-81424188D01*
X154900000Y-81411928D01*
X154273332Y-81411928D01*
X154247636Y-81363854D01*
X154198500Y-81303982D01*
X154143291Y-81236709D01*
X154111426Y-81210558D01*
X153060867Y-80160000D01*
X162340000Y-80160000D01*
X162340001Y-98840000D01*
X103660000Y-98840000D01*
X103660000Y-93800000D01*
X106357573Y-93800000D01*
X106387210Y-94100913D01*
X106474983Y-94390261D01*
X106617519Y-94656927D01*
X106809339Y-94890661D01*
X107043073Y-95082481D01*
X107309739Y-95225017D01*
X107599087Y-95312790D01*
X107824592Y-95335000D01*
X110175408Y-95335000D01*
X110400913Y-95312790D01*
X110690261Y-95225017D01*
X110956927Y-95082481D01*
X111190661Y-94890661D01*
X111382481Y-94656927D01*
X111525017Y-94390261D01*
X111612790Y-94100913D01*
X111642427Y-93800000D01*
X111612790Y-93499087D01*
X111525017Y-93209739D01*
X111382481Y-92943073D01*
X111190661Y-92709339D01*
X110956927Y-92517519D01*
X110690261Y-92374983D01*
X110400913Y-92287210D01*
X110175408Y-92265000D01*
X107824592Y-92265000D01*
X107599087Y-92287210D01*
X107309739Y-92374983D01*
X107043073Y-92517519D01*
X106809339Y-92709339D01*
X106617519Y-92943073D01*
X106474983Y-93209739D01*
X106387210Y-93499087D01*
X106357573Y-93800000D01*
X103660000Y-93800000D01*
X103660000Y-89127000D01*
X104665000Y-89127000D01*
X104665000Y-90227000D01*
X104719271Y-90524023D01*
X104830446Y-90804751D01*
X104994252Y-91058396D01*
X105204394Y-91275210D01*
X105452796Y-91446862D01*
X105729913Y-91566755D01*
X105835260Y-91591036D01*
X106073000Y-91470378D01*
X106073000Y-89127000D01*
X106327000Y-89127000D01*
X106327000Y-91470378D01*
X106564740Y-91591036D01*
X106670087Y-91566755D01*
X106947204Y-91446862D01*
X107195606Y-91275210D01*
X107405748Y-91058396D01*
X107569554Y-90804751D01*
X107680729Y-90524023D01*
X107735000Y-90227000D01*
X107735000Y-89127000D01*
X106327000Y-89127000D01*
X106073000Y-89127000D01*
X104665000Y-89127000D01*
X103660000Y-89127000D01*
X103660000Y-87773000D01*
X104665000Y-87773000D01*
X104665000Y-88873000D01*
X106073000Y-88873000D01*
X106073000Y-86529622D01*
X106327000Y-86529622D01*
X106327000Y-88873000D01*
X107735000Y-88873000D01*
X107735000Y-87773000D01*
X107680729Y-87475977D01*
X107569554Y-87195249D01*
X107405748Y-86941604D01*
X107195606Y-86724790D01*
X106947204Y-86553138D01*
X106670087Y-86433245D01*
X106564740Y-86408964D01*
X106327000Y-86529622D01*
X106073000Y-86529622D01*
X105835260Y-86408964D01*
X105729913Y-86433245D01*
X105452796Y-86553138D01*
X105204394Y-86724790D01*
X104994252Y-86941604D01*
X104830446Y-87195249D01*
X104719271Y-87475977D01*
X104665000Y-87773000D01*
X103660000Y-87773000D01*
X103660000Y-82275000D01*
X115886928Y-82275000D01*
X115890000Y-82426750D01*
X116048750Y-82585500D01*
X116873000Y-82585500D01*
X116873000Y-81798750D01*
X117127000Y-81798750D01*
X117127000Y-82585500D01*
X117951250Y-82585500D01*
X118110000Y-82426750D01*
X118113072Y-82275000D01*
X118100812Y-82150518D01*
X118064502Y-82030820D01*
X118005537Y-81920506D01*
X117926185Y-81823815D01*
X117829494Y-81744463D01*
X117719180Y-81685498D01*
X117599482Y-81649188D01*
X117475000Y-81636928D01*
X117285750Y-81640000D01*
X117127000Y-81798750D01*
X116873000Y-81798750D01*
X116714250Y-81640000D01*
X116525000Y-81636928D01*
X116400518Y-81649188D01*
X116280820Y-81685498D01*
X116170506Y-81744463D01*
X116073815Y-81823815D01*
X115994463Y-81920506D01*
X115935498Y-82030820D01*
X115899188Y-82150518D01*
X115886928Y-82275000D01*
X103660000Y-82275000D01*
X103660000Y-80160000D01*
X124879132Y-80160000D01*
X124313579Y-80725554D01*
G37*
X124313579Y-80725554D02*
X124281709Y-80751709D01*
X124207543Y-80842082D01*
X124177364Y-80878855D01*
X124099828Y-81023914D01*
X124052082Y-81181312D01*
X124035960Y-81345000D01*
X124040000Y-81386019D01*
X124040000Y-81584597D01*
X124000000Y-81617425D01*
X123898942Y-81534488D01*
X123747567Y-81453577D01*
X123583316Y-81403752D01*
X123412500Y-81386928D01*
X122837500Y-81386928D01*
X122666684Y-81403752D01*
X122502433Y-81453577D01*
X122351058Y-81534488D01*
X122218377Y-81643377D01*
X122109488Y-81776058D01*
X122028577Y-81927433D01*
X121978752Y-82091684D01*
X121961928Y-82262500D01*
X121961928Y-82486276D01*
X121947350Y-82504040D01*
X121902364Y-82558855D01*
X121824828Y-82703914D01*
X121813967Y-82739717D01*
X121701250Y-82627000D01*
X120914500Y-82627000D01*
X120914500Y-83451250D01*
X121073250Y-83610000D01*
X121225000Y-83613072D01*
X121349482Y-83600812D01*
X121469180Y-83564502D01*
X121579494Y-83505537D01*
X121676185Y-83426185D01*
X121755537Y-83329494D01*
X121765001Y-83311789D01*
X121765000Y-84988981D01*
X121761224Y-85027317D01*
X121733982Y-85030000D01*
X121083114Y-85030000D01*
X121122929Y-84898745D01*
X121138072Y-84745000D01*
X121138072Y-84445000D01*
X121122929Y-84291255D01*
X121078084Y-84143418D01*
X121005258Y-84007171D01*
X120907251Y-83887749D01*
X120787829Y-83789742D01*
X120651582Y-83716916D01*
X120503745Y-83672071D01*
X120350000Y-83656928D01*
X120047500Y-83656928D01*
X120047500Y-83533329D01*
X120105820Y-83564502D01*
X120225518Y-83600812D01*
X120350000Y-83613072D01*
X120501750Y-83610000D01*
X120660500Y-83451250D01*
X120660500Y-82627000D01*
X120640500Y-82627000D01*
X120640500Y-82373000D01*
X120660500Y-82373000D01*
X120660500Y-81548750D01*
X120914500Y-81548750D01*
X120914500Y-82373000D01*
X121701250Y-82373000D01*
X121860000Y-82214250D01*
X121863072Y-82025000D01*
X121850812Y-81900518D01*
X121814502Y-81780820D01*
X121755537Y-81670506D01*
X121676185Y-81573815D01*
X121579494Y-81494463D01*
X121469180Y-81435498D01*
X121349482Y-81399188D01*
X121225000Y-81386928D01*
X121073250Y-81390000D01*
X120914500Y-81548750D01*
X120660500Y-81548750D01*
X120501750Y-81390000D01*
X120350000Y-81386928D01*
X120225518Y-81399188D01*
X120105820Y-81435498D01*
X119995506Y-81494463D01*
X119928930Y-81549100D01*
X119907275Y-81531329D01*
X119759142Y-81452150D01*
X119598408Y-81403392D01*
X119431250Y-81386928D01*
X118993750Y-81386928D01*
X118826592Y-81403392D01*
X118665858Y-81452150D01*
X118517725Y-81531329D01*
X118387885Y-81637885D01*
X118281329Y-81767725D01*
X118202150Y-81915858D01*
X118153392Y-82076592D01*
X118136928Y-82243750D01*
X118136928Y-82756250D01*
X118153392Y-82923408D01*
X118202150Y-83084142D01*
X118281329Y-83232275D01*
X118377500Y-83349461D01*
X118377501Y-83728097D01*
X118262171Y-83789742D01*
X118142749Y-83887749D01*
X118100335Y-83939431D01*
X118096608Y-83901592D01*
X118047850Y-83740858D01*
X117968671Y-83592725D01*
X117950900Y-83571070D01*
X118005537Y-83504494D01*
X118064502Y-83394180D01*
X118100812Y-83274482D01*
X118113072Y-83150000D01*
X118110000Y-82998250D01*
X117951250Y-82839500D01*
X117127000Y-82839500D01*
X117127000Y-82859500D01*
X116873000Y-82859500D01*
X116873000Y-82839500D01*
X116048750Y-82839500D01*
X115890000Y-82998250D01*
X115886928Y-83150000D01*
X115899188Y-83274482D01*
X115935498Y-83394180D01*
X115994463Y-83504494D01*
X116049100Y-83571070D01*
X116031329Y-83592725D01*
X115952150Y-83740858D01*
X115903392Y-83901592D01*
X115886928Y-84068750D01*
X115886928Y-84506250D01*
X115903392Y-84673408D01*
X115952150Y-84834142D01*
X115983951Y-84893638D01*
X115954494Y-84869463D01*
X115844180Y-84810498D01*
X115724482Y-84774188D01*
X115600000Y-84761928D01*
X114400000Y-84761928D01*
X114275518Y-84774188D01*
X114155820Y-84810498D01*
X114045506Y-84869463D01*
X113948815Y-84948815D01*
X113869463Y-85045506D01*
X113810498Y-85155820D01*
X113774188Y-85275518D01*
X113761928Y-85400000D01*
X113761928Y-86300000D01*
X113774188Y-86424482D01*
X113810498Y-86544180D01*
X113869463Y-86654494D01*
X113948815Y-86751185D01*
X114045506Y-86830537D01*
X114155820Y-86889502D01*
X114275518Y-86925812D01*
X114400000Y-86938072D01*
X115078853Y-86938072D01*
X115111311Y-86947918D01*
X115233981Y-86960000D01*
X115233982Y-86960000D01*
X115275000Y-86964040D01*
X115316018Y-86960000D01*
X116084597Y-86960000D01*
X116117425Y-87000000D01*
X116034488Y-87101058D01*
X115953577Y-87252433D01*
X115903752Y-87416684D01*
X115886928Y-87587500D01*
X115886928Y-88133348D01*
X115844180Y-88110498D01*
X115724482Y-88074188D01*
X115600000Y-88061928D01*
X114400000Y-88061928D01*
X114275518Y-88074188D01*
X114155820Y-88110498D01*
X114045506Y-88169463D01*
X113948815Y-88248815D01*
X113869463Y-88345506D01*
X113810498Y-88455820D01*
X113774188Y-88575518D01*
X113761928Y-88700000D01*
X113761928Y-89600000D01*
X113774188Y-89724482D01*
X113810498Y-89844180D01*
X113869463Y-89954494D01*
X113948815Y-90051185D01*
X114045506Y-90130537D01*
X114155820Y-90189502D01*
X114275518Y-90225812D01*
X114400000Y-90238072D01*
X115600000Y-90238072D01*
X115724482Y-90225812D01*
X115844180Y-90189502D01*
X115923157Y-90147287D01*
X115953577Y-90247567D01*
X116034488Y-90398942D01*
X116117425Y-90500000D01*
X116034488Y-90601058D01*
X115953577Y-90752433D01*
X115903752Y-90916684D01*
X115886928Y-91087500D01*
X115886928Y-91662500D01*
X115903752Y-91833316D01*
X115953577Y-91997567D01*
X116034488Y-92148942D01*
X116065001Y-92186122D01*
X116065001Y-92244059D01*
X116060476Y-92290000D01*
X116078529Y-92473291D01*
X116116966Y-92600000D01*
X116131994Y-92649540D01*
X116218815Y-92811972D01*
X116335657Y-92954344D01*
X116371336Y-92983625D01*
X117016370Y-93628659D01*
X117045656Y-93664344D01*
X117188028Y-93781186D01*
X117213872Y-93795000D01*
X116927289Y-93795000D01*
X113538072Y-90405783D01*
X113538072Y-86800000D01*
X113525812Y-86675518D01*
X113489502Y-86555820D01*
X113430537Y-86445506D01*
X113351185Y-86348815D01*
X113254494Y-86269463D01*
X113144180Y-86210498D01*
X113024482Y-86174188D01*
X112900000Y-86161928D01*
X111100000Y-86161928D01*
X110975518Y-86174188D01*
X110855820Y-86210498D01*
X110745506Y-86269463D01*
X110648815Y-86348815D01*
X110569463Y-86445506D01*
X110510498Y-86555820D01*
X110474188Y-86675518D01*
X110461928Y-86800000D01*
X110461928Y-91200000D01*
X110474188Y-91324482D01*
X110510498Y-91444180D01*
X110569463Y-91554494D01*
X110648815Y-91651185D01*
X110745506Y-91730537D01*
X110855820Y-91789502D01*
X110975518Y-91825812D01*
X111100000Y-91838072D01*
X112325783Y-91838072D01*
X115846370Y-95358659D01*
X115875656Y-95394344D01*
X116018028Y-95511186D01*
X116123880Y-95567765D01*
X116180459Y-95598007D01*
X116356708Y-95651472D01*
X116540000Y-95669524D01*
X116585935Y-95665000D01*
X122324068Y-95665000D01*
X122370000Y-95669524D01*
X122415932Y-95665000D01*
X122553292Y-95651471D01*
X122729540Y-95598007D01*
X122891972Y-95511186D01*
X123034344Y-95394344D01*
X123063630Y-95358659D01*
X123097161Y-95325128D01*
X123090000Y-95361127D01*
X123090000Y-95638873D01*
X123144186Y-95911282D01*
X123250475Y-96167885D01*
X123404782Y-96398822D01*
X123601178Y-96595218D01*
X123832115Y-96749525D01*
X124088718Y-96855814D01*
X124361127Y-96910000D01*
X124638873Y-96910000D01*
X124911282Y-96855814D01*
X125167885Y-96749525D01*
X125398822Y-96595218D01*
X125595218Y-96398822D01*
X125749525Y-96167885D01*
X125855814Y-95911282D01*
X125910000Y-95638873D01*
X125910000Y-95361127D01*
X125855814Y-95088718D01*
X125749525Y-94832115D01*
X125595218Y-94601178D01*
X125398822Y-94404782D01*
X125167885Y-94250475D01*
X124911282Y-94144186D01*
X124638873Y-94090000D01*
X124361127Y-94090000D01*
X124325128Y-94097161D01*
X124825000Y-93597289D01*
X126936374Y-95708664D01*
X126965656Y-95744344D01*
X127108028Y-95861186D01*
X127270460Y-95948007D01*
X127393243Y-95985253D01*
X127446707Y-96001471D01*
X127465110Y-96003283D01*
X127584068Y-96015000D01*
X127584074Y-96015000D01*
X127629999Y-96019523D01*
X127675924Y-96015000D01*
X134454068Y-96015000D01*
X134500000Y-96019524D01*
X134545932Y-96015000D01*
X134683292Y-96001471D01*
X134859540Y-95948007D01*
X135021972Y-95861186D01*
X135164344Y-95744344D01*
X135193630Y-95708659D01*
X135602127Y-95300162D01*
X135590000Y-95361127D01*
X135590000Y-95638873D01*
X135644186Y-95911282D01*
X135750475Y-96167885D01*
X135904782Y-96398822D01*
X136101178Y-96595218D01*
X136332115Y-96749525D01*
X136588718Y-96855814D01*
X136861127Y-96910000D01*
X137138873Y-96910000D01*
X137411282Y-96855814D01*
X137667885Y-96749525D01*
X137898822Y-96595218D01*
X138095218Y-96398822D01*
X138249525Y-96167885D01*
X138355814Y-95911282D01*
X138410000Y-95638873D01*
X138410000Y-95361127D01*
X138355814Y-95088718D01*
X138284668Y-94916957D01*
X139166370Y-95798659D01*
X139195656Y-95834344D01*
X139338028Y-95951186D01*
X139500460Y-96038007D01*
X139572828Y-96059959D01*
X139676708Y-96091472D01*
X139860000Y-96109524D01*
X139905935Y-96105000D01*
X146894068Y-96105000D01*
X146940000Y-96109524D01*
X146985932Y-96105000D01*
X147123292Y-96091471D01*
X147299540Y-96038007D01*
X147461972Y-95951186D01*
X147604344Y-95834344D01*
X147633630Y-95798659D01*
X148094678Y-95337611D01*
X148090000Y-95361127D01*
X148090000Y-95638873D01*
X148144186Y-95911282D01*
X148250475Y-96167885D01*
X148404782Y-96398822D01*
X148601178Y-96595218D01*
X148832115Y-96749525D01*
X149088718Y-96855814D01*
X149361127Y-96910000D01*
X149638873Y-96910000D01*
X149911282Y-96855814D01*
X150167885Y-96749525D01*
X150398822Y-96595218D01*
X150595218Y-96398822D01*
X150749525Y-96167885D01*
X150855814Y-95911282D01*
X150895000Y-95714280D01*
X150895001Y-96864058D01*
X150890476Y-96910000D01*
X150908529Y-97093291D01*
X150913598Y-97110000D01*
X150961994Y-97269540D01*
X151048815Y-97431972D01*
X151165657Y-97574344D01*
X151201336Y-97603625D01*
X151836374Y-98238664D01*
X151865656Y-98274344D01*
X152008028Y-98391186D01*
X152170460Y-98478007D01*
X152293243Y-98515253D01*
X152346707Y-98531471D01*
X152365110Y-98533283D01*
X152484068Y-98545000D01*
X152484074Y-98545000D01*
X152529999Y-98549523D01*
X152575924Y-98545000D01*
X158424068Y-98545000D01*
X158470000Y-98549524D01*
X158515932Y-98545000D01*
X158653292Y-98531471D01*
X158829540Y-98478007D01*
X158991972Y-98391186D01*
X159134344Y-98274344D01*
X159163630Y-98238659D01*
X161908666Y-95493624D01*
X161944344Y-95464344D01*
X162061186Y-95321972D01*
X162148007Y-95159540D01*
X162193225Y-95010476D01*
X162201471Y-94983293D01*
X162219524Y-94800001D01*
X162215000Y-94754069D01*
X162215000Y-86275932D01*
X162219524Y-86230000D01*
X162201471Y-86046708D01*
X162193967Y-86021971D01*
X162148007Y-85870460D01*
X162061186Y-85708028D01*
X161944344Y-85565656D01*
X161908659Y-85536370D01*
X161243630Y-84871341D01*
X161214344Y-84835656D01*
X161071972Y-84718814D01*
X160909540Y-84631993D01*
X160733292Y-84578529D01*
X160595932Y-84565000D01*
X160550000Y-84560476D01*
X160504068Y-84565000D01*
X160479701Y-84565000D01*
X160475812Y-84525518D01*
X160439502Y-84405820D01*
X160380537Y-84295506D01*
X160301185Y-84198815D01*
X160204494Y-84119463D01*
X160094180Y-84060498D01*
X159974482Y-84024188D01*
X159850000Y-84011928D01*
X158275000Y-84011928D01*
X158275000Y-83331018D01*
X158279040Y-83290000D01*
X158269913Y-83197328D01*
X158262918Y-83126311D01*
X158215172Y-82968913D01*
X158137636Y-82823854D01*
X158082155Y-82756250D01*
X158059439Y-82728570D01*
X158059437Y-82728568D01*
X158033291Y-82696709D01*
X158001433Y-82670564D01*
X157269445Y-81938578D01*
X157243291Y-81906709D01*
X157116146Y-81802364D01*
X156971087Y-81724828D01*
X156813689Y-81677082D01*
X156691019Y-81665000D01*
X156691018Y-81665000D01*
X156650000Y-81660960D01*
X156608982Y-81665000D01*
X155405501Y-81665000D01*
X155351185Y-81598815D01*
X155254494Y-81519463D01*
X155144180Y-81460498D01*
X155024482Y-81424188D01*
X154900000Y-81411928D01*
X154273332Y-81411928D01*
X154247636Y-81363854D01*
X154198500Y-81303982D01*
X154143291Y-81236709D01*
X154111426Y-81210558D01*
X153060867Y-80160000D01*
X162340000Y-80160000D01*
X162340001Y-98840000D01*
X103660000Y-98840000D01*
X103660000Y-93800000D01*
X106357573Y-93800000D01*
X106387210Y-94100913D01*
X106474983Y-94390261D01*
X106617519Y-94656927D01*
X106809339Y-94890661D01*
X107043073Y-95082481D01*
X107309739Y-95225017D01*
X107599087Y-95312790D01*
X107824592Y-95335000D01*
X110175408Y-95335000D01*
X110400913Y-95312790D01*
X110690261Y-95225017D01*
X110956927Y-95082481D01*
X111190661Y-94890661D01*
X111382481Y-94656927D01*
X111525017Y-94390261D01*
X111612790Y-94100913D01*
X111642427Y-93800000D01*
X111612790Y-93499087D01*
X111525017Y-93209739D01*
X111382481Y-92943073D01*
X111190661Y-92709339D01*
X110956927Y-92517519D01*
X110690261Y-92374983D01*
X110400913Y-92287210D01*
X110175408Y-92265000D01*
X107824592Y-92265000D01*
X107599087Y-92287210D01*
X107309739Y-92374983D01*
X107043073Y-92517519D01*
X106809339Y-92709339D01*
X106617519Y-92943073D01*
X106474983Y-93209739D01*
X106387210Y-93499087D01*
X106357573Y-93800000D01*
X103660000Y-93800000D01*
X103660000Y-89127000D01*
X104665000Y-89127000D01*
X104665000Y-90227000D01*
X104719271Y-90524023D01*
X104830446Y-90804751D01*
X104994252Y-91058396D01*
X105204394Y-91275210D01*
X105452796Y-91446862D01*
X105729913Y-91566755D01*
X105835260Y-91591036D01*
X106073000Y-91470378D01*
X106073000Y-89127000D01*
X106327000Y-89127000D01*
X106327000Y-91470378D01*
X106564740Y-91591036D01*
X106670087Y-91566755D01*
X106947204Y-91446862D01*
X107195606Y-91275210D01*
X107405748Y-91058396D01*
X107569554Y-90804751D01*
X107680729Y-90524023D01*
X107735000Y-90227000D01*
X107735000Y-89127000D01*
X106327000Y-89127000D01*
X106073000Y-89127000D01*
X104665000Y-89127000D01*
X103660000Y-89127000D01*
X103660000Y-87773000D01*
X104665000Y-87773000D01*
X104665000Y-88873000D01*
X106073000Y-88873000D01*
X106073000Y-86529622D01*
X106327000Y-86529622D01*
X106327000Y-88873000D01*
X107735000Y-88873000D01*
X107735000Y-87773000D01*
X107680729Y-87475977D01*
X107569554Y-87195249D01*
X107405748Y-86941604D01*
X107195606Y-86724790D01*
X106947204Y-86553138D01*
X106670087Y-86433245D01*
X106564740Y-86408964D01*
X106327000Y-86529622D01*
X106073000Y-86529622D01*
X105835260Y-86408964D01*
X105729913Y-86433245D01*
X105452796Y-86553138D01*
X105204394Y-86724790D01*
X104994252Y-86941604D01*
X104830446Y-87195249D01*
X104719271Y-87475977D01*
X104665000Y-87773000D01*
X103660000Y-87773000D01*
X103660000Y-82275000D01*
X115886928Y-82275000D01*
X115890000Y-82426750D01*
X116048750Y-82585500D01*
X116873000Y-82585500D01*
X116873000Y-81798750D01*
X117127000Y-81798750D01*
X117127000Y-82585500D01*
X117951250Y-82585500D01*
X118110000Y-82426750D01*
X118113072Y-82275000D01*
X118100812Y-82150518D01*
X118064502Y-82030820D01*
X118005537Y-81920506D01*
X117926185Y-81823815D01*
X117829494Y-81744463D01*
X117719180Y-81685498D01*
X117599482Y-81649188D01*
X117475000Y-81636928D01*
X117285750Y-81640000D01*
X117127000Y-81798750D01*
X116873000Y-81798750D01*
X116714250Y-81640000D01*
X116525000Y-81636928D01*
X116400518Y-81649188D01*
X116280820Y-81685498D01*
X116170506Y-81744463D01*
X116073815Y-81823815D01*
X115994463Y-81920506D01*
X115935498Y-82030820D01*
X115899188Y-82150518D01*
X115886928Y-82275000D01*
X103660000Y-82275000D01*
X103660000Y-80160000D01*
X124879132Y-80160000D01*
X124313579Y-80725554D01*
G36*
X156460558Y-93681426D02*
G01*
X156486709Y-93713291D01*
X156613854Y-93817636D01*
X156758913Y-93895172D01*
X156916311Y-93942918D01*
X157038981Y-93955000D01*
X157038991Y-93955000D01*
X157079999Y-93959039D01*
X157121007Y-93955000D01*
X157771935Y-93955000D01*
X157846525Y-94066632D01*
X158053368Y-94273475D01*
X158296589Y-94435990D01*
X158566842Y-94547932D01*
X158853740Y-94605000D01*
X159146260Y-94605000D01*
X159433158Y-94547932D01*
X159703411Y-94435990D01*
X159946632Y-94273475D01*
X160153475Y-94066632D01*
X160315990Y-93823411D01*
X160345000Y-93753374D01*
X160345000Y-94412710D01*
X158082711Y-96675000D01*
X156115404Y-96675000D01*
X156138312Y-96599482D01*
X156150572Y-96475000D01*
X156147500Y-96285750D01*
X155988750Y-96127000D01*
X155202000Y-96127000D01*
X155202000Y-96147000D01*
X154948000Y-96147000D01*
X154948000Y-96127000D01*
X154928000Y-96127000D01*
X154928000Y-95873000D01*
X154948000Y-95873000D01*
X154948000Y-95853000D01*
X155202000Y-95853000D01*
X155202000Y-95873000D01*
X155988750Y-95873000D01*
X156147500Y-95714250D01*
X156150572Y-95525000D01*
X156149109Y-95510142D01*
X156204494Y-95480537D01*
X156301185Y-95401185D01*
X156380537Y-95304494D01*
X156439502Y-95194180D01*
X156475812Y-95074482D01*
X156488072Y-94950000D01*
X156485000Y-94785750D01*
X156326250Y-94627000D01*
X155577000Y-94627000D01*
X155577000Y-94647000D01*
X155323000Y-94647000D01*
X155323000Y-94627000D01*
X155303000Y-94627000D01*
X155303000Y-94373000D01*
X155323000Y-94373000D01*
X155323000Y-93573750D01*
X155577000Y-93573750D01*
X155577000Y-94373000D01*
X156326250Y-94373000D01*
X156485000Y-94214250D01*
X156488072Y-94050000D01*
X156475812Y-93925518D01*
X156439502Y-93805820D01*
X156380537Y-93695506D01*
X156301185Y-93598815D01*
X156204494Y-93519463D01*
X156094180Y-93460498D01*
X155974482Y-93424188D01*
X155850000Y-93411928D01*
X155735750Y-93415000D01*
X155577000Y-93573750D01*
X155323000Y-93573750D01*
X155238393Y-93489143D01*
X155254494Y-93480537D01*
X155351185Y-93401185D01*
X155405501Y-93335000D01*
X156114133Y-93335000D01*
X156460558Y-93681426D01*
G37*
X156460558Y-93681426D02*
X156486709Y-93713291D01*
X156613854Y-93817636D01*
X156758913Y-93895172D01*
X156916311Y-93942918D01*
X157038981Y-93955000D01*
X157038991Y-93955000D01*
X157079999Y-93959039D01*
X157121007Y-93955000D01*
X157771935Y-93955000D01*
X157846525Y-94066632D01*
X158053368Y-94273475D01*
X158296589Y-94435990D01*
X158566842Y-94547932D01*
X158853740Y-94605000D01*
X159146260Y-94605000D01*
X159433158Y-94547932D01*
X159703411Y-94435990D01*
X159946632Y-94273475D01*
X160153475Y-94066632D01*
X160315990Y-93823411D01*
X160345000Y-93753374D01*
X160345000Y-94412710D01*
X158082711Y-96675000D01*
X156115404Y-96675000D01*
X156138312Y-96599482D01*
X156150572Y-96475000D01*
X156147500Y-96285750D01*
X155988750Y-96127000D01*
X155202000Y-96127000D01*
X155202000Y-96147000D01*
X154948000Y-96147000D01*
X154948000Y-96127000D01*
X154928000Y-96127000D01*
X154928000Y-95873000D01*
X154948000Y-95873000D01*
X154948000Y-95853000D01*
X155202000Y-95853000D01*
X155202000Y-95873000D01*
X155988750Y-95873000D01*
X156147500Y-95714250D01*
X156150572Y-95525000D01*
X156149109Y-95510142D01*
X156204494Y-95480537D01*
X156301185Y-95401185D01*
X156380537Y-95304494D01*
X156439502Y-95194180D01*
X156475812Y-95074482D01*
X156488072Y-94950000D01*
X156485000Y-94785750D01*
X156326250Y-94627000D01*
X155577000Y-94627000D01*
X155577000Y-94647000D01*
X155323000Y-94647000D01*
X155323000Y-94627000D01*
X155303000Y-94627000D01*
X155303000Y-94373000D01*
X155323000Y-94373000D01*
X155323000Y-93573750D01*
X155577000Y-93573750D01*
X155577000Y-94373000D01*
X156326250Y-94373000D01*
X156485000Y-94214250D01*
X156488072Y-94050000D01*
X156475812Y-93925518D01*
X156439502Y-93805820D01*
X156380537Y-93695506D01*
X156301185Y-93598815D01*
X156204494Y-93519463D01*
X156094180Y-93460498D01*
X155974482Y-93424188D01*
X155850000Y-93411928D01*
X155735750Y-93415000D01*
X155577000Y-93573750D01*
X155323000Y-93573750D01*
X155238393Y-93489143D01*
X155254494Y-93480537D01*
X155351185Y-93401185D01*
X155405501Y-93335000D01*
X156114133Y-93335000D01*
X156460558Y-93681426D01*
G36*
X157522352Y-90763221D02*
G01*
X157572068Y-91013158D01*
X157684010Y-91283411D01*
X157846525Y-91526632D01*
X158053368Y-91733475D01*
X158227760Y-91850000D01*
X158053368Y-91966525D01*
X157846525Y-92173368D01*
X157771935Y-92285000D01*
X157425868Y-92285000D01*
X157079446Y-91938578D01*
X157053291Y-91906709D01*
X156926146Y-91802364D01*
X156781087Y-91724828D01*
X156623689Y-91677082D01*
X156501019Y-91665000D01*
X156501018Y-91665000D01*
X156460000Y-91660960D01*
X156418982Y-91665000D01*
X156330937Y-91665000D01*
X156350812Y-91599482D01*
X156363072Y-91475000D01*
X156360000Y-91285750D01*
X156201250Y-91127000D01*
X155414500Y-91127000D01*
X155414500Y-91147000D01*
X155160500Y-91147000D01*
X155160500Y-91127000D01*
X155140500Y-91127000D01*
X155140500Y-90873000D01*
X155160500Y-90873000D01*
X155160500Y-90853000D01*
X155414500Y-90853000D01*
X155414500Y-90873000D01*
X156201250Y-90873000D01*
X156360000Y-90714250D01*
X156363072Y-90525000D01*
X156350812Y-90400518D01*
X156337567Y-90356854D01*
X156380537Y-90304494D01*
X156439502Y-90194180D01*
X156475812Y-90074482D01*
X156488072Y-89950000D01*
X156485000Y-89785750D01*
X156326252Y-89627002D01*
X156386134Y-89627002D01*
X157522352Y-90763221D01*
G37*
X157522352Y-90763221D02*
X157572068Y-91013158D01*
X157684010Y-91283411D01*
X157846525Y-91526632D01*
X158053368Y-91733475D01*
X158227760Y-91850000D01*
X158053368Y-91966525D01*
X157846525Y-92173368D01*
X157771935Y-92285000D01*
X157425868Y-92285000D01*
X157079446Y-91938578D01*
X157053291Y-91906709D01*
X156926146Y-91802364D01*
X156781087Y-91724828D01*
X156623689Y-91677082D01*
X156501019Y-91665000D01*
X156501018Y-91665000D01*
X156460000Y-91660960D01*
X156418982Y-91665000D01*
X156330937Y-91665000D01*
X156350812Y-91599482D01*
X156363072Y-91475000D01*
X156360000Y-91285750D01*
X156201250Y-91127000D01*
X155414500Y-91127000D01*
X155414500Y-91147000D01*
X155160500Y-91147000D01*
X155160500Y-91127000D01*
X155140500Y-91127000D01*
X155140500Y-90873000D01*
X155160500Y-90873000D01*
X155160500Y-90853000D01*
X155414500Y-90853000D01*
X155414500Y-90873000D01*
X156201250Y-90873000D01*
X156360000Y-90714250D01*
X156363072Y-90525000D01*
X156350812Y-90400518D01*
X156337567Y-90356854D01*
X156380537Y-90304494D01*
X156439502Y-90194180D01*
X156475812Y-90074482D01*
X156488072Y-89950000D01*
X156485000Y-89785750D01*
X156326252Y-89627002D01*
X156386134Y-89627002D01*
X157522352Y-90763221D01*
G36*
X155577000Y-89373000D02*
G01*
X155597000Y-89373000D01*
X155597000Y-89627000D01*
X155577000Y-89627000D01*
X155577000Y-89647000D01*
X155323000Y-89647000D01*
X155323000Y-89627000D01*
X155303000Y-89627000D01*
X155303000Y-89373000D01*
X155323000Y-89373000D01*
X155323000Y-89353000D01*
X155577000Y-89353000D01*
X155577000Y-89373000D01*
G37*
X155577000Y-89373000D02*
X155597000Y-89373000D01*
X155597000Y-89627000D01*
X155577000Y-89627000D01*
X155577000Y-89647000D01*
X155323000Y-89647000D01*
X155323000Y-89627000D01*
X155303000Y-89627000D01*
X155303000Y-89373000D01*
X155323000Y-89373000D01*
X155323000Y-89353000D01*
X155577000Y-89353000D01*
X155577000Y-89373000D01*
G36*
X146835558Y-87696426D02*
G01*
X146861709Y-87728291D01*
X146988854Y-87832636D01*
X147133913Y-87910172D01*
X147291311Y-87957918D01*
X147413981Y-87970000D01*
X147413983Y-87970000D01*
X147454999Y-87974040D01*
X147496015Y-87970000D01*
X147877379Y-87970000D01*
X147874188Y-87980518D01*
X147861928Y-88105000D01*
X147865000Y-88119250D01*
X148023750Y-88278000D01*
X149348000Y-88278000D01*
X149348000Y-88258000D01*
X149602000Y-88258000D01*
X149602000Y-88278000D01*
X149622000Y-88278000D01*
X149622000Y-88532000D01*
X149602000Y-88532000D01*
X149602000Y-88552000D01*
X149348000Y-88552000D01*
X149348000Y-88532000D01*
X148023750Y-88532000D01*
X147865000Y-88690750D01*
X147861928Y-88705000D01*
X147874188Y-88829482D01*
X147910498Y-88949180D01*
X147969463Y-89059494D01*
X148048815Y-89156185D01*
X148145506Y-89235537D01*
X148255820Y-89294502D01*
X148256635Y-89294749D01*
X148194463Y-89370506D01*
X148135498Y-89480820D01*
X148109962Y-89565000D01*
X145607290Y-89565000D01*
X145460000Y-89417711D01*
X145460000Y-89332238D01*
X145503745Y-89327929D01*
X145651582Y-89283084D01*
X145787829Y-89210258D01*
X145907251Y-89112251D01*
X146005258Y-88992829D01*
X146078084Y-88856582D01*
X146122929Y-88708745D01*
X146138072Y-88555000D01*
X146138072Y-88255000D01*
X146122929Y-88101255D01*
X146078084Y-87953418D01*
X146005258Y-87817171D01*
X145966546Y-87770000D01*
X146005258Y-87722829D01*
X146078084Y-87586582D01*
X146122929Y-87438745D01*
X146138072Y-87285000D01*
X146138072Y-86998939D01*
X146835558Y-87696426D01*
G37*
X146835558Y-87696426D02*
X146861709Y-87728291D01*
X146988854Y-87832636D01*
X147133913Y-87910172D01*
X147291311Y-87957918D01*
X147413981Y-87970000D01*
X147413983Y-87970000D01*
X147454999Y-87974040D01*
X147496015Y-87970000D01*
X147877379Y-87970000D01*
X147874188Y-87980518D01*
X147861928Y-88105000D01*
X147865000Y-88119250D01*
X148023750Y-88278000D01*
X149348000Y-88278000D01*
X149348000Y-88258000D01*
X149602000Y-88258000D01*
X149602000Y-88278000D01*
X149622000Y-88278000D01*
X149622000Y-88532000D01*
X149602000Y-88532000D01*
X149602000Y-88552000D01*
X149348000Y-88552000D01*
X149348000Y-88532000D01*
X148023750Y-88532000D01*
X147865000Y-88690750D01*
X147861928Y-88705000D01*
X147874188Y-88829482D01*
X147910498Y-88949180D01*
X147969463Y-89059494D01*
X148048815Y-89156185D01*
X148145506Y-89235537D01*
X148255820Y-89294502D01*
X148256635Y-89294749D01*
X148194463Y-89370506D01*
X148135498Y-89480820D01*
X148109962Y-89565000D01*
X145607290Y-89565000D01*
X145460000Y-89417711D01*
X145460000Y-89332238D01*
X145503745Y-89327929D01*
X145651582Y-89283084D01*
X145787829Y-89210258D01*
X145907251Y-89112251D01*
X146005258Y-88992829D01*
X146078084Y-88856582D01*
X146122929Y-88708745D01*
X146138072Y-88555000D01*
X146138072Y-88255000D01*
X146122929Y-88101255D01*
X146078084Y-87953418D01*
X146005258Y-87817171D01*
X145966546Y-87770000D01*
X146005258Y-87722829D01*
X146078084Y-87586582D01*
X146122929Y-87438745D01*
X146138072Y-87285000D01*
X146138072Y-86998939D01*
X146835558Y-87696426D01*
G36*
X122425558Y-87696426D02*
G01*
X122451709Y-87728291D01*
X122578854Y-87832636D01*
X122723913Y-87910172D01*
X122881066Y-87957844D01*
X122874188Y-87980518D01*
X122861928Y-88105000D01*
X122865000Y-88119250D01*
X123023750Y-88278000D01*
X124348000Y-88278000D01*
X124348000Y-88258000D01*
X124602000Y-88258000D01*
X124602000Y-88278000D01*
X124622000Y-88278000D01*
X124622000Y-88532000D01*
X124602000Y-88532000D01*
X124602000Y-88552000D01*
X124348000Y-88552000D01*
X124348000Y-88532000D01*
X123023750Y-88532000D01*
X122865000Y-88690750D01*
X122861928Y-88705000D01*
X122874188Y-88829482D01*
X122910498Y-88949180D01*
X122969463Y-89059494D01*
X123048815Y-89156185D01*
X123145506Y-89235537D01*
X123255820Y-89294502D01*
X123256635Y-89294749D01*
X123194463Y-89370506D01*
X123135498Y-89480820D01*
X123109962Y-89565000D01*
X120837289Y-89565000D01*
X120577765Y-89305476D01*
X120651582Y-89283084D01*
X120787829Y-89210258D01*
X120907251Y-89112251D01*
X121005258Y-88992829D01*
X121078084Y-88856582D01*
X121122929Y-88708745D01*
X121138072Y-88555000D01*
X121138072Y-88255000D01*
X121122929Y-88101255D01*
X121078084Y-87953418D01*
X121005258Y-87817171D01*
X120966546Y-87770000D01*
X121005258Y-87722829D01*
X121078084Y-87586582D01*
X121122929Y-87438745D01*
X121138072Y-87285000D01*
X121138072Y-86985000D01*
X121122929Y-86831255D01*
X121083114Y-86700000D01*
X121429133Y-86700000D01*
X122425558Y-87696426D01*
G37*
X122425558Y-87696426D02*
X122451709Y-87728291D01*
X122578854Y-87832636D01*
X122723913Y-87910172D01*
X122881066Y-87957844D01*
X122874188Y-87980518D01*
X122861928Y-88105000D01*
X122865000Y-88119250D01*
X123023750Y-88278000D01*
X124348000Y-88278000D01*
X124348000Y-88258000D01*
X124602000Y-88258000D01*
X124602000Y-88278000D01*
X124622000Y-88278000D01*
X124622000Y-88532000D01*
X124602000Y-88532000D01*
X124602000Y-88552000D01*
X124348000Y-88552000D01*
X124348000Y-88532000D01*
X123023750Y-88532000D01*
X122865000Y-88690750D01*
X122861928Y-88705000D01*
X122874188Y-88829482D01*
X122910498Y-88949180D01*
X122969463Y-89059494D01*
X123048815Y-89156185D01*
X123145506Y-89235537D01*
X123255820Y-89294502D01*
X123256635Y-89294749D01*
X123194463Y-89370506D01*
X123135498Y-89480820D01*
X123109962Y-89565000D01*
X120837289Y-89565000D01*
X120577765Y-89305476D01*
X120651582Y-89283084D01*
X120787829Y-89210258D01*
X120907251Y-89112251D01*
X121005258Y-88992829D01*
X121078084Y-88856582D01*
X121122929Y-88708745D01*
X121138072Y-88555000D01*
X121138072Y-88255000D01*
X121122929Y-88101255D01*
X121078084Y-87953418D01*
X121005258Y-87817171D01*
X120966546Y-87770000D01*
X121005258Y-87722829D01*
X121078084Y-87586582D01*
X121122929Y-87438745D01*
X121138072Y-87285000D01*
X121138072Y-86985000D01*
X121122929Y-86831255D01*
X121083114Y-86700000D01*
X121429133Y-86700000D01*
X122425558Y-87696426D01*
G36*
X134805558Y-87696426D02*
G01*
X134831709Y-87728291D01*
X134958854Y-87832636D01*
X135103913Y-87910172D01*
X135261311Y-87957918D01*
X135377570Y-87969369D01*
X135374188Y-87980518D01*
X135361928Y-88105000D01*
X135365000Y-88119250D01*
X135523750Y-88278000D01*
X136848000Y-88278000D01*
X136848000Y-88258000D01*
X137102000Y-88258000D01*
X137102000Y-88278000D01*
X137122000Y-88278000D01*
X137122000Y-88532000D01*
X137102000Y-88532000D01*
X137102000Y-88552000D01*
X136848000Y-88552000D01*
X136848000Y-88532000D01*
X135523750Y-88532000D01*
X135365000Y-88690750D01*
X135361928Y-88705000D01*
X135374188Y-88829482D01*
X135410498Y-88949180D01*
X135469463Y-89059494D01*
X135548815Y-89156185D01*
X135645506Y-89235537D01*
X135755820Y-89294502D01*
X135756635Y-89294749D01*
X135694463Y-89370506D01*
X135635498Y-89480820D01*
X135609962Y-89565000D01*
X133397290Y-89565000D01*
X133123801Y-89291511D01*
X133151582Y-89283084D01*
X133287829Y-89210258D01*
X133407251Y-89112251D01*
X133505258Y-88992829D01*
X133578084Y-88856582D01*
X133622929Y-88708745D01*
X133638072Y-88555000D01*
X133638072Y-88255000D01*
X133622929Y-88101255D01*
X133578084Y-87953418D01*
X133505258Y-87817171D01*
X133466546Y-87770000D01*
X133505258Y-87722829D01*
X133578084Y-87586582D01*
X133622929Y-87438745D01*
X133638072Y-87285000D01*
X133638072Y-86985000D01*
X133622929Y-86831255D01*
X133583114Y-86700000D01*
X133809133Y-86700000D01*
X134805558Y-87696426D01*
G37*
X134805558Y-87696426D02*
X134831709Y-87728291D01*
X134958854Y-87832636D01*
X135103913Y-87910172D01*
X135261311Y-87957918D01*
X135377570Y-87969369D01*
X135374188Y-87980518D01*
X135361928Y-88105000D01*
X135365000Y-88119250D01*
X135523750Y-88278000D01*
X136848000Y-88278000D01*
X136848000Y-88258000D01*
X137102000Y-88258000D01*
X137102000Y-88278000D01*
X137122000Y-88278000D01*
X137122000Y-88532000D01*
X137102000Y-88532000D01*
X137102000Y-88552000D01*
X136848000Y-88552000D01*
X136848000Y-88532000D01*
X135523750Y-88532000D01*
X135365000Y-88690750D01*
X135361928Y-88705000D01*
X135374188Y-88829482D01*
X135410498Y-88949180D01*
X135469463Y-89059494D01*
X135548815Y-89156185D01*
X135645506Y-89235537D01*
X135755820Y-89294502D01*
X135756635Y-89294749D01*
X135694463Y-89370506D01*
X135635498Y-89480820D01*
X135609962Y-89565000D01*
X133397290Y-89565000D01*
X133123801Y-89291511D01*
X133151582Y-89283084D01*
X133287829Y-89210258D01*
X133407251Y-89112251D01*
X133505258Y-88992829D01*
X133578084Y-88856582D01*
X133622929Y-88708745D01*
X133638072Y-88555000D01*
X133638072Y-88255000D01*
X133622929Y-88101255D01*
X133578084Y-87953418D01*
X133505258Y-87817171D01*
X133466546Y-87770000D01*
X133505258Y-87722829D01*
X133578084Y-87586582D01*
X133622929Y-87438745D01*
X133638072Y-87285000D01*
X133638072Y-86985000D01*
X133622929Y-86831255D01*
X133583114Y-86700000D01*
X133809133Y-86700000D01*
X134805558Y-87696426D01*
G36*
X156605000Y-83635868D02*
G01*
X156605001Y-87398972D01*
X156600960Y-87440000D01*
X156605340Y-87484473D01*
X156105259Y-86984392D01*
X156176185Y-86926185D01*
X156255537Y-86829494D01*
X156314502Y-86719180D01*
X156350812Y-86599482D01*
X156363072Y-86475000D01*
X156360000Y-86285750D01*
X156201250Y-86127000D01*
X155414500Y-86127000D01*
X155414500Y-86147000D01*
X155160500Y-86147000D01*
X155160500Y-86127000D01*
X155140500Y-86127000D01*
X155140500Y-85873000D01*
X155160500Y-85873000D01*
X155160500Y-85853000D01*
X155414500Y-85853000D01*
X155414500Y-85873000D01*
X156201250Y-85873000D01*
X156360000Y-85714250D01*
X156363072Y-85525000D01*
X156350812Y-85400518D01*
X156337567Y-85356854D01*
X156380537Y-85304494D01*
X156439502Y-85194180D01*
X156475812Y-85074482D01*
X156488072Y-84950000D01*
X156485000Y-84785750D01*
X156326250Y-84627000D01*
X155577000Y-84627000D01*
X155577000Y-84647000D01*
X155323000Y-84647000D01*
X155323000Y-84627000D01*
X155303000Y-84627000D01*
X155303000Y-84373000D01*
X155323000Y-84373000D01*
X155323000Y-83573750D01*
X155577000Y-83573750D01*
X155577000Y-84373000D01*
X156326250Y-84373000D01*
X156485000Y-84214250D01*
X156488072Y-84050000D01*
X156475812Y-83925518D01*
X156439502Y-83805820D01*
X156380537Y-83695506D01*
X156301185Y-83598815D01*
X156204494Y-83519463D01*
X156094180Y-83460498D01*
X155974482Y-83424188D01*
X155850000Y-83411928D01*
X155735750Y-83415000D01*
X155577000Y-83573750D01*
X155323000Y-83573750D01*
X155238393Y-83489143D01*
X155254494Y-83480537D01*
X155351185Y-83401185D01*
X155405501Y-83335000D01*
X156304132Y-83335000D01*
X156605000Y-83635868D01*
G37*
X156605000Y-83635868D02*
X156605001Y-87398972D01*
X156600960Y-87440000D01*
X156605340Y-87484473D01*
X156105259Y-86984392D01*
X156176185Y-86926185D01*
X156255537Y-86829494D01*
X156314502Y-86719180D01*
X156350812Y-86599482D01*
X156363072Y-86475000D01*
X156360000Y-86285750D01*
X156201250Y-86127000D01*
X155414500Y-86127000D01*
X155414500Y-86147000D01*
X155160500Y-86147000D01*
X155160500Y-86127000D01*
X155140500Y-86127000D01*
X155140500Y-85873000D01*
X155160500Y-85873000D01*
X155160500Y-85853000D01*
X155414500Y-85853000D01*
X155414500Y-85873000D01*
X156201250Y-85873000D01*
X156360000Y-85714250D01*
X156363072Y-85525000D01*
X156350812Y-85400518D01*
X156337567Y-85356854D01*
X156380537Y-85304494D01*
X156439502Y-85194180D01*
X156475812Y-85074482D01*
X156488072Y-84950000D01*
X156485000Y-84785750D01*
X156326250Y-84627000D01*
X155577000Y-84627000D01*
X155577000Y-84647000D01*
X155323000Y-84647000D01*
X155323000Y-84627000D01*
X155303000Y-84627000D01*
X155303000Y-84373000D01*
X155323000Y-84373000D01*
X155323000Y-83573750D01*
X155577000Y-83573750D01*
X155577000Y-84373000D01*
X156326250Y-84373000D01*
X156485000Y-84214250D01*
X156488072Y-84050000D01*
X156475812Y-83925518D01*
X156439502Y-83805820D01*
X156380537Y-83695506D01*
X156301185Y-83598815D01*
X156204494Y-83519463D01*
X156094180Y-83460498D01*
X155974482Y-83424188D01*
X155850000Y-83411928D01*
X155735750Y-83415000D01*
X155577000Y-83573750D01*
X155323000Y-83573750D01*
X155238393Y-83489143D01*
X155254494Y-83480537D01*
X155351185Y-83401185D01*
X155405501Y-83335000D01*
X156304132Y-83335000D01*
X156605000Y-83635868D01*
G36*
X136599828Y-81343914D02*
G01*
X136552082Y-81501312D01*
X136544220Y-81581134D01*
X136500000Y-81617425D01*
X136398942Y-81534488D01*
X136247567Y-81453577D01*
X136083316Y-81403752D01*
X135912500Y-81386928D01*
X135337500Y-81386928D01*
X135166684Y-81403752D01*
X135002433Y-81453577D01*
X134851058Y-81534488D01*
X134718377Y-81643377D01*
X134667499Y-81705371D01*
X134612115Y-81637885D01*
X134482275Y-81531329D01*
X134334142Y-81452150D01*
X134173408Y-81403392D01*
X134006250Y-81386928D01*
X133568750Y-81386928D01*
X133401592Y-81403392D01*
X133240858Y-81452150D01*
X133092725Y-81531329D01*
X133071070Y-81549100D01*
X133004494Y-81494463D01*
X132894180Y-81435498D01*
X132774482Y-81399188D01*
X132650000Y-81386928D01*
X132498250Y-81390000D01*
X132339500Y-81548750D01*
X132339500Y-82373000D01*
X132359500Y-82373000D01*
X132359500Y-82627000D01*
X132339500Y-82627000D01*
X132339500Y-83451250D01*
X132498250Y-83610000D01*
X132650000Y-83613072D01*
X132774482Y-83600812D01*
X132894180Y-83564502D01*
X132952500Y-83533329D01*
X132952500Y-83667024D01*
X132850000Y-83656928D01*
X131200000Y-83656928D01*
X131046255Y-83672071D01*
X130898418Y-83716916D01*
X130762171Y-83789742D01*
X130642749Y-83887749D01*
X130600335Y-83939431D01*
X130596608Y-83901592D01*
X130547850Y-83740858D01*
X130468671Y-83592725D01*
X130450900Y-83571070D01*
X130505537Y-83504494D01*
X130564502Y-83394180D01*
X130600812Y-83274482D01*
X130613072Y-83150000D01*
X130610000Y-82998250D01*
X130586750Y-82975000D01*
X131136928Y-82975000D01*
X131149188Y-83099482D01*
X131185498Y-83219180D01*
X131244463Y-83329494D01*
X131323815Y-83426185D01*
X131420506Y-83505537D01*
X131530820Y-83564502D01*
X131650518Y-83600812D01*
X131775000Y-83613072D01*
X131926750Y-83610000D01*
X132085500Y-83451250D01*
X132085500Y-82627000D01*
X131298750Y-82627000D01*
X131140000Y-82785750D01*
X131136928Y-82975000D01*
X130586750Y-82975000D01*
X130451250Y-82839500D01*
X129627000Y-82839500D01*
X129627000Y-82859500D01*
X129373000Y-82859500D01*
X129373000Y-82839500D01*
X128548750Y-82839500D01*
X128390000Y-82998250D01*
X128386928Y-83150000D01*
X128399188Y-83274482D01*
X128435498Y-83394180D01*
X128494463Y-83504494D01*
X128549100Y-83571070D01*
X128531329Y-83592725D01*
X128452150Y-83740858D01*
X128403392Y-83901592D01*
X128386928Y-84068750D01*
X128386928Y-84506250D01*
X128403392Y-84673408D01*
X128452150Y-84834142D01*
X128483951Y-84893638D01*
X128454494Y-84869463D01*
X128344180Y-84810498D01*
X128224482Y-84774188D01*
X128100000Y-84761928D01*
X126956087Y-84761928D01*
X126955172Y-84758913D01*
X126877636Y-84613854D01*
X126773291Y-84486709D01*
X126741427Y-84460559D01*
X126314445Y-84033578D01*
X126288291Y-84001709D01*
X126161146Y-83897364D01*
X126016087Y-83819828D01*
X125858689Y-83772082D01*
X125736019Y-83760000D01*
X125736018Y-83760000D01*
X125695000Y-83755960D01*
X125677798Y-83757654D01*
X125601582Y-83716916D01*
X125453745Y-83672071D01*
X125300000Y-83656928D01*
X123650000Y-83656928D01*
X123496255Y-83672071D01*
X123435000Y-83690652D01*
X123435000Y-83610856D01*
X123583316Y-83596248D01*
X123747567Y-83546423D01*
X123898942Y-83465512D01*
X124000000Y-83382575D01*
X124101058Y-83465512D01*
X124252433Y-83546423D01*
X124416684Y-83596248D01*
X124587500Y-83613072D01*
X125162500Y-83613072D01*
X125333316Y-83596248D01*
X125497567Y-83546423D01*
X125648942Y-83465512D01*
X125781623Y-83356623D01*
X125890512Y-83223942D01*
X125971423Y-83072567D01*
X126021248Y-82908316D01*
X126038072Y-82737500D01*
X126038072Y-82275000D01*
X128386928Y-82275000D01*
X128390000Y-82426750D01*
X128548750Y-82585500D01*
X129373000Y-82585500D01*
X129373000Y-81798750D01*
X129627000Y-81798750D01*
X129627000Y-82585500D01*
X130451250Y-82585500D01*
X130610000Y-82426750D01*
X130613072Y-82275000D01*
X130600812Y-82150518D01*
X130564502Y-82030820D01*
X130561392Y-82025000D01*
X131136928Y-82025000D01*
X131140000Y-82214250D01*
X131298750Y-82373000D01*
X132085500Y-82373000D01*
X132085500Y-81548750D01*
X131926750Y-81390000D01*
X131775000Y-81386928D01*
X131650518Y-81399188D01*
X131530820Y-81435498D01*
X131420506Y-81494463D01*
X131323815Y-81573815D01*
X131244463Y-81670506D01*
X131185498Y-81780820D01*
X131149188Y-81900518D01*
X131136928Y-82025000D01*
X130561392Y-82025000D01*
X130505537Y-81920506D01*
X130426185Y-81823815D01*
X130329494Y-81744463D01*
X130219180Y-81685498D01*
X130099482Y-81649188D01*
X129975000Y-81636928D01*
X129785750Y-81640000D01*
X129627000Y-81798750D01*
X129373000Y-81798750D01*
X129214250Y-81640000D01*
X129025000Y-81636928D01*
X128900518Y-81649188D01*
X128780820Y-81685498D01*
X128670506Y-81744463D01*
X128573815Y-81823815D01*
X128494463Y-81920506D01*
X128435498Y-82030820D01*
X128399188Y-82150518D01*
X128386928Y-82275000D01*
X126038072Y-82275000D01*
X126038072Y-82262500D01*
X126021248Y-82091684D01*
X125971423Y-81927433D01*
X125890512Y-81776058D01*
X125781623Y-81643377D01*
X125768368Y-81632499D01*
X126065868Y-81335000D01*
X136604593Y-81335000D01*
X136599828Y-81343914D01*
G37*
X136599828Y-81343914D02*
X136552082Y-81501312D01*
X136544220Y-81581134D01*
X136500000Y-81617425D01*
X136398942Y-81534488D01*
X136247567Y-81453577D01*
X136083316Y-81403752D01*
X135912500Y-81386928D01*
X135337500Y-81386928D01*
X135166684Y-81403752D01*
X135002433Y-81453577D01*
X134851058Y-81534488D01*
X134718377Y-81643377D01*
X134667499Y-81705371D01*
X134612115Y-81637885D01*
X134482275Y-81531329D01*
X134334142Y-81452150D01*
X134173408Y-81403392D01*
X134006250Y-81386928D01*
X133568750Y-81386928D01*
X133401592Y-81403392D01*
X133240858Y-81452150D01*
X133092725Y-81531329D01*
X133071070Y-81549100D01*
X133004494Y-81494463D01*
X132894180Y-81435498D01*
X132774482Y-81399188D01*
X132650000Y-81386928D01*
X132498250Y-81390000D01*
X132339500Y-81548750D01*
X132339500Y-82373000D01*
X132359500Y-82373000D01*
X132359500Y-82627000D01*
X132339500Y-82627000D01*
X132339500Y-83451250D01*
X132498250Y-83610000D01*
X132650000Y-83613072D01*
X132774482Y-83600812D01*
X132894180Y-83564502D01*
X132952500Y-83533329D01*
X132952500Y-83667024D01*
X132850000Y-83656928D01*
X131200000Y-83656928D01*
X131046255Y-83672071D01*
X130898418Y-83716916D01*
X130762171Y-83789742D01*
X130642749Y-83887749D01*
X130600335Y-83939431D01*
X130596608Y-83901592D01*
X130547850Y-83740858D01*
X130468671Y-83592725D01*
X130450900Y-83571070D01*
X130505537Y-83504494D01*
X130564502Y-83394180D01*
X130600812Y-83274482D01*
X130613072Y-83150000D01*
X130610000Y-82998250D01*
X130586750Y-82975000D01*
X131136928Y-82975000D01*
X131149188Y-83099482D01*
X131185498Y-83219180D01*
X131244463Y-83329494D01*
X131323815Y-83426185D01*
X131420506Y-83505537D01*
X131530820Y-83564502D01*
X131650518Y-83600812D01*
X131775000Y-83613072D01*
X131926750Y-83610000D01*
X132085500Y-83451250D01*
X132085500Y-82627000D01*
X131298750Y-82627000D01*
X131140000Y-82785750D01*
X131136928Y-82975000D01*
X130586750Y-82975000D01*
X130451250Y-82839500D01*
X129627000Y-82839500D01*
X129627000Y-82859500D01*
X129373000Y-82859500D01*
X129373000Y-82839500D01*
X128548750Y-82839500D01*
X128390000Y-82998250D01*
X128386928Y-83150000D01*
X128399188Y-83274482D01*
X128435498Y-83394180D01*
X128494463Y-83504494D01*
X128549100Y-83571070D01*
X128531329Y-83592725D01*
X128452150Y-83740858D01*
X128403392Y-83901592D01*
X128386928Y-84068750D01*
X128386928Y-84506250D01*
X128403392Y-84673408D01*
X128452150Y-84834142D01*
X128483951Y-84893638D01*
X128454494Y-84869463D01*
X128344180Y-84810498D01*
X128224482Y-84774188D01*
X128100000Y-84761928D01*
X126956087Y-84761928D01*
X126955172Y-84758913D01*
X126877636Y-84613854D01*
X126773291Y-84486709D01*
X126741427Y-84460559D01*
X126314445Y-84033578D01*
X126288291Y-84001709D01*
X126161146Y-83897364D01*
X126016087Y-83819828D01*
X125858689Y-83772082D01*
X125736019Y-83760000D01*
X125736018Y-83760000D01*
X125695000Y-83755960D01*
X125677798Y-83757654D01*
X125601582Y-83716916D01*
X125453745Y-83672071D01*
X125300000Y-83656928D01*
X123650000Y-83656928D01*
X123496255Y-83672071D01*
X123435000Y-83690652D01*
X123435000Y-83610856D01*
X123583316Y-83596248D01*
X123747567Y-83546423D01*
X123898942Y-83465512D01*
X124000000Y-83382575D01*
X124101058Y-83465512D01*
X124252433Y-83546423D01*
X124416684Y-83596248D01*
X124587500Y-83613072D01*
X125162500Y-83613072D01*
X125333316Y-83596248D01*
X125497567Y-83546423D01*
X125648942Y-83465512D01*
X125781623Y-83356623D01*
X125890512Y-83223942D01*
X125971423Y-83072567D01*
X126021248Y-82908316D01*
X126038072Y-82737500D01*
X126038072Y-82275000D01*
X128386928Y-82275000D01*
X128390000Y-82426750D01*
X128548750Y-82585500D01*
X129373000Y-82585500D01*
X129373000Y-81798750D01*
X129627000Y-81798750D01*
X129627000Y-82585500D01*
X130451250Y-82585500D01*
X130610000Y-82426750D01*
X130613072Y-82275000D01*
X130600812Y-82150518D01*
X130564502Y-82030820D01*
X130561392Y-82025000D01*
X131136928Y-82025000D01*
X131140000Y-82214250D01*
X131298750Y-82373000D01*
X132085500Y-82373000D01*
X132085500Y-81548750D01*
X131926750Y-81390000D01*
X131775000Y-81386928D01*
X131650518Y-81399188D01*
X131530820Y-81435498D01*
X131420506Y-81494463D01*
X131323815Y-81573815D01*
X131244463Y-81670506D01*
X131185498Y-81780820D01*
X131149188Y-81900518D01*
X131136928Y-82025000D01*
X130561392Y-82025000D01*
X130505537Y-81920506D01*
X130426185Y-81823815D01*
X130329494Y-81744463D01*
X130219180Y-81685498D01*
X130099482Y-81649188D01*
X129975000Y-81636928D01*
X129785750Y-81640000D01*
X129627000Y-81798750D01*
X129373000Y-81798750D01*
X129214250Y-81640000D01*
X129025000Y-81636928D01*
X128900518Y-81649188D01*
X128780820Y-81685498D01*
X128670506Y-81744463D01*
X128573815Y-81823815D01*
X128494463Y-81920506D01*
X128435498Y-82030820D01*
X128399188Y-82150518D01*
X128386928Y-82275000D01*
X126038072Y-82275000D01*
X126038072Y-82262500D01*
X126021248Y-82091684D01*
X125971423Y-81927433D01*
X125890512Y-81776058D01*
X125781623Y-81643377D01*
X125768368Y-81632499D01*
X126065868Y-81335000D01*
X136604593Y-81335000D01*
X136599828Y-81343914D01*
G36*
X140935498Y-82030820D02*
G01*
X140899188Y-82150518D01*
X140886928Y-82275000D01*
X140890000Y-82426750D01*
X141048750Y-82585500D01*
X141873000Y-82585500D01*
X141873000Y-82565500D01*
X142127000Y-82565500D01*
X142127000Y-82585500D01*
X142951250Y-82585500D01*
X143110000Y-82426750D01*
X143113072Y-82275000D01*
X143100812Y-82150518D01*
X143064502Y-82030820D01*
X143050701Y-82005000D01*
X144138898Y-82005000D01*
X144136928Y-82025000D01*
X144140000Y-82214250D01*
X144298750Y-82373000D01*
X145085500Y-82373000D01*
X145085500Y-82353000D01*
X145339500Y-82353000D01*
X145339500Y-82373000D01*
X145359500Y-82373000D01*
X145359500Y-82627000D01*
X145339500Y-82627000D01*
X145339500Y-83451250D01*
X145498250Y-83610000D01*
X145650000Y-83613072D01*
X145774482Y-83600812D01*
X145894180Y-83564502D01*
X145952500Y-83533329D01*
X145952500Y-83626632D01*
X145819132Y-83760000D01*
X145732186Y-83760000D01*
X145651582Y-83716916D01*
X145503745Y-83672071D01*
X145350000Y-83656928D01*
X143700000Y-83656928D01*
X143546255Y-83672071D01*
X143398418Y-83716916D01*
X143262171Y-83789742D01*
X143142749Y-83887749D01*
X143100335Y-83939431D01*
X143096608Y-83901592D01*
X143047850Y-83740858D01*
X142968671Y-83592725D01*
X142950900Y-83571070D01*
X143005537Y-83504494D01*
X143064502Y-83394180D01*
X143100812Y-83274482D01*
X143113072Y-83150000D01*
X143110000Y-82998250D01*
X143086750Y-82975000D01*
X144136928Y-82975000D01*
X144149188Y-83099482D01*
X144185498Y-83219180D01*
X144244463Y-83329494D01*
X144323815Y-83426185D01*
X144420506Y-83505537D01*
X144530820Y-83564502D01*
X144650518Y-83600812D01*
X144775000Y-83613072D01*
X144926750Y-83610000D01*
X145085500Y-83451250D01*
X145085500Y-82627000D01*
X144298750Y-82627000D01*
X144140000Y-82785750D01*
X144136928Y-82975000D01*
X143086750Y-82975000D01*
X142951250Y-82839500D01*
X142127000Y-82839500D01*
X142127000Y-82859500D01*
X141873000Y-82859500D01*
X141873000Y-82839500D01*
X141048750Y-82839500D01*
X140890000Y-82998250D01*
X140886928Y-83150000D01*
X140899188Y-83274482D01*
X140935498Y-83394180D01*
X140994463Y-83504494D01*
X141049100Y-83571070D01*
X141031329Y-83592725D01*
X140952150Y-83740858D01*
X140903392Y-83901592D01*
X140886928Y-84068750D01*
X140886928Y-84506250D01*
X140903392Y-84673408D01*
X140952150Y-84834142D01*
X140983951Y-84893638D01*
X140954494Y-84869463D01*
X140844180Y-84810498D01*
X140724482Y-84774188D01*
X140600000Y-84761928D01*
X139400000Y-84761928D01*
X139275518Y-84774188D01*
X139166820Y-84807161D01*
X139127636Y-84733854D01*
X139023291Y-84606709D01*
X138991427Y-84580559D01*
X138497997Y-84087130D01*
X138455258Y-84007171D01*
X138357251Y-83887749D01*
X138237829Y-83789742D01*
X138101582Y-83716916D01*
X137953745Y-83672071D01*
X137800000Y-83656928D01*
X136150000Y-83656928D01*
X136015000Y-83670225D01*
X136015000Y-83602977D01*
X136083316Y-83596248D01*
X136247567Y-83546423D01*
X136398942Y-83465512D01*
X136500000Y-83382575D01*
X136601058Y-83465512D01*
X136752433Y-83546423D01*
X136916684Y-83596248D01*
X137087500Y-83613072D01*
X137662500Y-83613072D01*
X137833316Y-83596248D01*
X137997567Y-83546423D01*
X138148942Y-83465512D01*
X138281623Y-83356623D01*
X138390512Y-83223942D01*
X138471423Y-83072567D01*
X138521248Y-82908316D01*
X138538072Y-82737500D01*
X138538072Y-82262500D01*
X138521248Y-82091684D01*
X138494953Y-82005000D01*
X140949299Y-82005000D01*
X140935498Y-82030820D01*
G37*
X140935498Y-82030820D02*
X140899188Y-82150518D01*
X140886928Y-82275000D01*
X140890000Y-82426750D01*
X141048750Y-82585500D01*
X141873000Y-82585500D01*
X141873000Y-82565500D01*
X142127000Y-82565500D01*
X142127000Y-82585500D01*
X142951250Y-82585500D01*
X143110000Y-82426750D01*
X143113072Y-82275000D01*
X143100812Y-82150518D01*
X143064502Y-82030820D01*
X143050701Y-82005000D01*
X144138898Y-82005000D01*
X144136928Y-82025000D01*
X144140000Y-82214250D01*
X144298750Y-82373000D01*
X145085500Y-82373000D01*
X145085500Y-82353000D01*
X145339500Y-82353000D01*
X145339500Y-82373000D01*
X145359500Y-82373000D01*
X145359500Y-82627000D01*
X145339500Y-82627000D01*
X145339500Y-83451250D01*
X145498250Y-83610000D01*
X145650000Y-83613072D01*
X145774482Y-83600812D01*
X145894180Y-83564502D01*
X145952500Y-83533329D01*
X145952500Y-83626632D01*
X145819132Y-83760000D01*
X145732186Y-83760000D01*
X145651582Y-83716916D01*
X145503745Y-83672071D01*
X145350000Y-83656928D01*
X143700000Y-83656928D01*
X143546255Y-83672071D01*
X143398418Y-83716916D01*
X143262171Y-83789742D01*
X143142749Y-83887749D01*
X143100335Y-83939431D01*
X143096608Y-83901592D01*
X143047850Y-83740858D01*
X142968671Y-83592725D01*
X142950900Y-83571070D01*
X143005537Y-83504494D01*
X143064502Y-83394180D01*
X143100812Y-83274482D01*
X143113072Y-83150000D01*
X143110000Y-82998250D01*
X143086750Y-82975000D01*
X144136928Y-82975000D01*
X144149188Y-83099482D01*
X144185498Y-83219180D01*
X144244463Y-83329494D01*
X144323815Y-83426185D01*
X144420506Y-83505537D01*
X144530820Y-83564502D01*
X144650518Y-83600812D01*
X144775000Y-83613072D01*
X144926750Y-83610000D01*
X145085500Y-83451250D01*
X145085500Y-82627000D01*
X144298750Y-82627000D01*
X144140000Y-82785750D01*
X144136928Y-82975000D01*
X143086750Y-82975000D01*
X142951250Y-82839500D01*
X142127000Y-82839500D01*
X142127000Y-82859500D01*
X141873000Y-82859500D01*
X141873000Y-82839500D01*
X141048750Y-82839500D01*
X140890000Y-82998250D01*
X140886928Y-83150000D01*
X140899188Y-83274482D01*
X140935498Y-83394180D01*
X140994463Y-83504494D01*
X141049100Y-83571070D01*
X141031329Y-83592725D01*
X140952150Y-83740858D01*
X140903392Y-83901592D01*
X140886928Y-84068750D01*
X140886928Y-84506250D01*
X140903392Y-84673408D01*
X140952150Y-84834142D01*
X140983951Y-84893638D01*
X140954494Y-84869463D01*
X140844180Y-84810498D01*
X140724482Y-84774188D01*
X140600000Y-84761928D01*
X139400000Y-84761928D01*
X139275518Y-84774188D01*
X139166820Y-84807161D01*
X139127636Y-84733854D01*
X139023291Y-84606709D01*
X138991427Y-84580559D01*
X138497997Y-84087130D01*
X138455258Y-84007171D01*
X138357251Y-83887749D01*
X138237829Y-83789742D01*
X138101582Y-83716916D01*
X137953745Y-83672071D01*
X137800000Y-83656928D01*
X136150000Y-83656928D01*
X136015000Y-83670225D01*
X136015000Y-83602977D01*
X136083316Y-83596248D01*
X136247567Y-83546423D01*
X136398942Y-83465512D01*
X136500000Y-83382575D01*
X136601058Y-83465512D01*
X136752433Y-83546423D01*
X136916684Y-83596248D01*
X137087500Y-83613072D01*
X137662500Y-83613072D01*
X137833316Y-83596248D01*
X137997567Y-83546423D01*
X138148942Y-83465512D01*
X138281623Y-83356623D01*
X138390512Y-83223942D01*
X138471423Y-83072567D01*
X138521248Y-82908316D01*
X138538072Y-82737500D01*
X138538072Y-82262500D01*
X138521248Y-82091684D01*
X138494953Y-82005000D01*
X140949299Y-82005000D01*
X140935498Y-82030820D01*
%TD*%
M02*
