%TF.GenerationSoftware,KiCad,Pcbnew,(5.1.6)-1*%
%TF.CreationDate,2020-12-19T18:50:18-05:00*%
%TF.ProjectId,driver_RGB,64726976-6572-45f5-9247-422e6b696361,rev?*%
%TF.SameCoordinates,Original*%
%TF.FileFunction,Legend,Top*%
%TF.FilePolarity,Positive*%
%FSLAX46Y46*%
G04 Gerber Fmt 4.6, Leading zero omitted, Abs format (unit mm)*
G04 Created by KiCad (PCBNEW (5.1.6)-1) date 2020-12-19 18:50:18*
%MOMM*%
%LPD*%
G01*
G04 APERTURE LIST*
%ADD10C,0.200000*%
%ADD11C,0.010000*%
%ADD12C,0.120000*%
%ADD13C,0.150000*%
G04 APERTURE END LIST*
D10*
X122892857Y-97250000D02*
X122750000Y-97178571D01*
X122535714Y-97178571D01*
X122321428Y-97250000D01*
X122178571Y-97392857D01*
X122107142Y-97535714D01*
X122035714Y-97821428D01*
X122035714Y-98035714D01*
X122107142Y-98321428D01*
X122178571Y-98464285D01*
X122321428Y-98607142D01*
X122535714Y-98678571D01*
X122678571Y-98678571D01*
X122892857Y-98607142D01*
X122964285Y-98535714D01*
X122964285Y-98035714D01*
X122678571Y-98035714D01*
X134964285Y-98678571D02*
X134464285Y-97964285D01*
X134107142Y-98678571D02*
X134107142Y-97178571D01*
X134678571Y-97178571D01*
X134821428Y-97250000D01*
X134892857Y-97321428D01*
X134964285Y-97464285D01*
X134964285Y-97678571D01*
X134892857Y-97821428D01*
X134821428Y-97892857D01*
X134678571Y-97964285D01*
X134107142Y-97964285D01*
X147607142Y-97892857D02*
X147821428Y-97964285D01*
X147892857Y-98035714D01*
X147964285Y-98178571D01*
X147964285Y-98392857D01*
X147892857Y-98535714D01*
X147821428Y-98607142D01*
X147678571Y-98678571D01*
X147107142Y-98678571D01*
X147107142Y-97178571D01*
X147607142Y-97178571D01*
X147750000Y-97250000D01*
X147821428Y-97321428D01*
X147892857Y-97464285D01*
X147892857Y-97607142D01*
X147821428Y-97750000D01*
X147750000Y-97821428D01*
X147607142Y-97892857D01*
X147107142Y-97892857D01*
D11*
%TO.C,G\u002A\u002A\u002A*%
G36*
X117097507Y-94688455D02*
G01*
X117322392Y-94692416D01*
X117501397Y-94701026D01*
X117643325Y-94715927D01*
X117756979Y-94738763D01*
X117851160Y-94771176D01*
X117934673Y-94814809D01*
X118016320Y-94871305D01*
X118081989Y-94923405D01*
X118239969Y-95090554D01*
X118347168Y-95284409D01*
X118405004Y-95495516D01*
X118414897Y-95714425D01*
X118378266Y-95931684D01*
X118296530Y-96137841D01*
X118171110Y-96323445D01*
X118003423Y-96479043D01*
X117833448Y-96578500D01*
X117765625Y-96606982D01*
X117696649Y-96628323D01*
X117614778Y-96644102D01*
X117508271Y-96655896D01*
X117365384Y-96665284D01*
X117174376Y-96673844D01*
X117103876Y-96676565D01*
X116881819Y-96686169D01*
X116716537Y-96697157D01*
X116601307Y-96711389D01*
X116529406Y-96730725D01*
X116494112Y-96757025D01*
X116488701Y-96792150D01*
X116506450Y-96837960D01*
X116508258Y-96841376D01*
X116524539Y-96863904D01*
X116551877Y-96880635D01*
X116599456Y-96892714D01*
X116676456Y-96901289D01*
X116792058Y-96907504D01*
X116955445Y-96912505D01*
X117105773Y-96915954D01*
X117356713Y-96923990D01*
X117555058Y-96938276D01*
X117711650Y-96962220D01*
X117837332Y-96999228D01*
X117942944Y-97052708D01*
X118039329Y-97126065D01*
X118137329Y-97222706D01*
X118159965Y-97247193D01*
X118239019Y-97339035D01*
X118299903Y-97426692D01*
X118345062Y-97520350D01*
X118376942Y-97630196D01*
X118397988Y-97766416D01*
X118410646Y-97939195D01*
X118417360Y-98158721D01*
X118419673Y-98328984D01*
X118421124Y-98546455D01*
X118420157Y-98709779D01*
X118416139Y-98828287D01*
X118408436Y-98911308D01*
X118396414Y-98968170D01*
X118379442Y-99008203D01*
X118372822Y-99019042D01*
X118287793Y-99097889D01*
X118180157Y-99129160D01*
X118069314Y-99112897D01*
X117974665Y-99049144D01*
X117950566Y-99018110D01*
X117929933Y-98977739D01*
X117915700Y-98923155D01*
X117907033Y-98843760D01*
X117903100Y-98728956D01*
X117903069Y-98568145D01*
X117904732Y-98434837D01*
X117905444Y-98186886D01*
X117898296Y-97993672D01*
X117882093Y-97846783D01*
X117855638Y-97737808D01*
X117817735Y-97658335D01*
X117789059Y-97621376D01*
X117739288Y-97569082D01*
X117692747Y-97529865D01*
X117639479Y-97501555D01*
X117569531Y-97481985D01*
X117472945Y-97468987D01*
X117339767Y-97460394D01*
X117160041Y-97454037D01*
X117000920Y-97449750D01*
X116389248Y-97433875D01*
X116251686Y-97337215D01*
X116103913Y-97199535D01*
X116007569Y-97037899D01*
X115961244Y-96862707D01*
X115963522Y-96684359D01*
X116012993Y-96513254D01*
X116108242Y-96359791D01*
X116247856Y-96234370D01*
X116412550Y-96153277D01*
X116489196Y-96138656D01*
X116618946Y-96127210D01*
X116791459Y-96119558D01*
X116996390Y-96116317D01*
X117032170Y-96116250D01*
X117231210Y-96115302D01*
X117377995Y-96111747D01*
X117483754Y-96104518D01*
X117559714Y-96092548D01*
X117617103Y-96074769D01*
X117654495Y-96057096D01*
X117779897Y-95956053D01*
X117858429Y-95817039D01*
X117884075Y-95651137D01*
X117856683Y-95492918D01*
X117776863Y-95368100D01*
X117676087Y-95289352D01*
X117639568Y-95269776D01*
X117596754Y-95254800D01*
X117539129Y-95243814D01*
X117458172Y-95236208D01*
X117345367Y-95231371D01*
X117192194Y-95228693D01*
X116990135Y-95227564D01*
X116810855Y-95227368D01*
X116047086Y-95227250D01*
X115938636Y-95307262D01*
X115861968Y-95370947D01*
X115805979Y-95429955D01*
X115797530Y-95442199D01*
X115789030Y-95487991D01*
X115780905Y-95594194D01*
X115773255Y-95757716D01*
X115766179Y-95975471D01*
X115759774Y-96244367D01*
X115754142Y-96561316D01*
X115749379Y-96923228D01*
X115749000Y-96957625D01*
X115733125Y-98418125D01*
X115648975Y-98576875D01*
X115501582Y-98791372D01*
X115312457Y-98962636D01*
X115186109Y-99039224D01*
X115025768Y-99094306D01*
X114833488Y-99120115D01*
X114633423Y-99116451D01*
X114449726Y-99083111D01*
X114352000Y-99046154D01*
X114158256Y-98918493D01*
X113989378Y-98744471D01*
X113881127Y-98578704D01*
X113796375Y-98418125D01*
X113780500Y-96957625D01*
X113776724Y-96606722D01*
X113773216Y-96313620D01*
X113769258Y-96072624D01*
X113764130Y-95878042D01*
X113757114Y-95724182D01*
X113747492Y-95605350D01*
X113734544Y-95515853D01*
X113717552Y-95449999D01*
X113695798Y-95402096D01*
X113668563Y-95366449D01*
X113635128Y-95337367D01*
X113594774Y-95309157D01*
X113570319Y-95292601D01*
X113492888Y-95248719D01*
X113413266Y-95230691D01*
X113303244Y-95232699D01*
X113286402Y-95234031D01*
X113169137Y-95250593D01*
X113086911Y-95284193D01*
X113011481Y-95346577D01*
X113008379Y-95349664D01*
X112907375Y-95450617D01*
X112890208Y-96902621D01*
X112886005Y-97246177D01*
X112882045Y-97532239D01*
X112878027Y-97766813D01*
X112873650Y-97955901D01*
X112868614Y-98105510D01*
X112862616Y-98221642D01*
X112855356Y-98310302D01*
X112846533Y-98377494D01*
X112835846Y-98429224D01*
X112822993Y-98471494D01*
X112809854Y-98505156D01*
X112688172Y-98718443D01*
X112520091Y-98900992D01*
X112348651Y-99021632D01*
X112258093Y-99068259D01*
X112178910Y-99096597D01*
X112089682Y-99111095D01*
X111968991Y-99116202D01*
X111891375Y-99116625D01*
X111747155Y-99114492D01*
X111645009Y-99105150D01*
X111563569Y-99084184D01*
X111481470Y-99047180D01*
X111435590Y-99022445D01*
X111251518Y-98892625D01*
X111096306Y-98728743D01*
X110985354Y-98547846D01*
X110966979Y-98503676D01*
X110953510Y-98462210D01*
X110942140Y-98411575D01*
X110932596Y-98345840D01*
X110924604Y-98259073D01*
X110917889Y-98145341D01*
X110912178Y-97998713D01*
X110907196Y-97813257D01*
X110902670Y-97583041D01*
X110898325Y-97302132D01*
X110893889Y-96964600D01*
X110893157Y-96905339D01*
X110888868Y-96563884D01*
X110884934Y-96280235D01*
X110881050Y-96048702D01*
X110876913Y-95863595D01*
X110872217Y-95719224D01*
X110866660Y-95609898D01*
X110859937Y-95529927D01*
X110851743Y-95473622D01*
X110841775Y-95435291D01*
X110829729Y-95409245D01*
X110815300Y-95389793D01*
X110811949Y-95386026D01*
X110682388Y-95285161D01*
X110532327Y-95234844D01*
X110376172Y-95234203D01*
X110228331Y-95282363D01*
X110103207Y-95378452D01*
X110061827Y-95431487D01*
X110051020Y-95459177D01*
X110041713Y-95510645D01*
X110033713Y-95590849D01*
X110026825Y-95704747D01*
X110020855Y-95857297D01*
X110015612Y-96053458D01*
X110010900Y-96298188D01*
X110006526Y-96596445D01*
X110002298Y-96953187D01*
X110002250Y-96957625D01*
X109998454Y-97300243D01*
X109994968Y-97585312D01*
X109991469Y-97818779D01*
X109987633Y-98006593D01*
X109983138Y-98154702D01*
X109977659Y-98269051D01*
X109970874Y-98355591D01*
X109962459Y-98420268D01*
X109952091Y-98469030D01*
X109939447Y-98507824D01*
X109924203Y-98542599D01*
X109915094Y-98561164D01*
X109781614Y-98765201D01*
X109608257Y-98930964D01*
X109405752Y-99050933D01*
X109184831Y-99117590D01*
X109107984Y-99126733D01*
X108999562Y-99130992D01*
X108930431Y-99120008D01*
X108877033Y-99087629D01*
X108845587Y-99058224D01*
X108776454Y-98953014D01*
X108763549Y-98843297D01*
X108801800Y-98741129D01*
X108886131Y-98658561D01*
X109011469Y-98607648D01*
X109037259Y-98602888D01*
X109218092Y-98552121D01*
X109348369Y-98463665D01*
X109390763Y-98411000D01*
X109404076Y-98386185D01*
X109415268Y-98352047D01*
X109424606Y-98302883D01*
X109432357Y-98232990D01*
X109438788Y-98136664D01*
X109444165Y-98008203D01*
X109448758Y-97841904D01*
X109452832Y-97632064D01*
X109456654Y-97372981D01*
X109460493Y-97058950D01*
X109462500Y-96879723D01*
X109466341Y-96538430D01*
X109469911Y-96254623D01*
X109473527Y-96022291D01*
X109477508Y-95835421D01*
X109482171Y-95688002D01*
X109487837Y-95574023D01*
X109494823Y-95487471D01*
X109503448Y-95422337D01*
X109514030Y-95372607D01*
X109526888Y-95332271D01*
X109542340Y-95295317D01*
X109546983Y-95285172D01*
X109679693Y-95067785D01*
X109853070Y-94895523D01*
X110060519Y-94773039D01*
X110295441Y-94704988D01*
X110383704Y-94694837D01*
X110631674Y-94707316D01*
X110862359Y-94778022D01*
X111067242Y-94902384D01*
X111237804Y-95075830D01*
X111316738Y-95195500D01*
X111415125Y-95370125D01*
X111431000Y-96830625D01*
X111435577Y-97205385D01*
X111440574Y-97520335D01*
X111446124Y-97779165D01*
X111452357Y-97985564D01*
X111459408Y-98143222D01*
X111467407Y-98255827D01*
X111476489Y-98327069D01*
X111485846Y-98359137D01*
X111535481Y-98423675D01*
X111609175Y-98497616D01*
X111627203Y-98513302D01*
X111694162Y-98562808D01*
X111758287Y-98586226D01*
X111845237Y-98590092D01*
X111913234Y-98586169D01*
X112078181Y-98553538D01*
X112203125Y-98477911D01*
X112299102Y-98354625D01*
X112309124Y-98312811D01*
X112318108Y-98222299D01*
X112326137Y-98080742D01*
X112333291Y-97885796D01*
X112339651Y-97635114D01*
X112345299Y-97326350D01*
X112350316Y-96957159D01*
X112351750Y-96830625D01*
X112355552Y-96487926D01*
X112359052Y-96202824D01*
X112362567Y-95969418D01*
X112366414Y-95781806D01*
X112370910Y-95634088D01*
X112376373Y-95520363D01*
X112383121Y-95434731D01*
X112391469Y-95371291D01*
X112401737Y-95324141D01*
X112414241Y-95287382D01*
X112429298Y-95255113D01*
X112437291Y-95239923D01*
X112579572Y-95033210D01*
X112753357Y-94875304D01*
X112950171Y-94765983D01*
X113161535Y-94705026D01*
X113378972Y-94692212D01*
X113594005Y-94727320D01*
X113798156Y-94810128D01*
X113982948Y-94940416D01*
X114139903Y-95117962D01*
X114236514Y-95286863D01*
X114252557Y-95323695D01*
X114265949Y-95362618D01*
X114277006Y-95409642D01*
X114286045Y-95470777D01*
X114293382Y-95552031D01*
X114299334Y-95659415D01*
X114304216Y-95798938D01*
X114308344Y-95976609D01*
X114312035Y-96198438D01*
X114315606Y-96470434D01*
X114319371Y-96798608D01*
X114320250Y-96878250D01*
X114324644Y-97240438D01*
X114329304Y-97543720D01*
X114334404Y-97792689D01*
X114340116Y-97991939D01*
X114346617Y-98146062D01*
X114354080Y-98259653D01*
X114362679Y-98337305D01*
X114372589Y-98383611D01*
X114377838Y-98396011D01*
X114470908Y-98499799D01*
X114599831Y-98566101D01*
X114747014Y-98591716D01*
X114894861Y-98573444D01*
X115019613Y-98512737D01*
X115096281Y-98449052D01*
X115152270Y-98390044D01*
X115160719Y-98377800D01*
X115169252Y-98331966D01*
X115177410Y-98225782D01*
X115185091Y-98062400D01*
X115192193Y-97844970D01*
X115198615Y-97576643D01*
X115204255Y-97260567D01*
X115209009Y-96899895D01*
X115209250Y-96878250D01*
X115213044Y-96537940D01*
X115216501Y-96255057D01*
X115219965Y-96023532D01*
X115223781Y-95837296D01*
X115228294Y-95690280D01*
X115233848Y-95576415D01*
X115240787Y-95489631D01*
X115249456Y-95423860D01*
X115260199Y-95373032D01*
X115273361Y-95331078D01*
X115289287Y-95291929D01*
X115300747Y-95266298D01*
X115393642Y-95113670D01*
X115525290Y-94965464D01*
X115677282Y-94838912D01*
X115831208Y-94751244D01*
X115864653Y-94738493D01*
X115924109Y-94722007D01*
X115999210Y-94709335D01*
X116098320Y-94700032D01*
X116229801Y-94693649D01*
X116402017Y-94689738D01*
X116623331Y-94687853D01*
X116817940Y-94687499D01*
X117097507Y-94688455D01*
G37*
X117097507Y-94688455D02*
X117322392Y-94692416D01*
X117501397Y-94701026D01*
X117643325Y-94715927D01*
X117756979Y-94738763D01*
X117851160Y-94771176D01*
X117934673Y-94814809D01*
X118016320Y-94871305D01*
X118081989Y-94923405D01*
X118239969Y-95090554D01*
X118347168Y-95284409D01*
X118405004Y-95495516D01*
X118414897Y-95714425D01*
X118378266Y-95931684D01*
X118296530Y-96137841D01*
X118171110Y-96323445D01*
X118003423Y-96479043D01*
X117833448Y-96578500D01*
X117765625Y-96606982D01*
X117696649Y-96628323D01*
X117614778Y-96644102D01*
X117508271Y-96655896D01*
X117365384Y-96665284D01*
X117174376Y-96673844D01*
X117103876Y-96676565D01*
X116881819Y-96686169D01*
X116716537Y-96697157D01*
X116601307Y-96711389D01*
X116529406Y-96730725D01*
X116494112Y-96757025D01*
X116488701Y-96792150D01*
X116506450Y-96837960D01*
X116508258Y-96841376D01*
X116524539Y-96863904D01*
X116551877Y-96880635D01*
X116599456Y-96892714D01*
X116676456Y-96901289D01*
X116792058Y-96907504D01*
X116955445Y-96912505D01*
X117105773Y-96915954D01*
X117356713Y-96923990D01*
X117555058Y-96938276D01*
X117711650Y-96962220D01*
X117837332Y-96999228D01*
X117942944Y-97052708D01*
X118039329Y-97126065D01*
X118137329Y-97222706D01*
X118159965Y-97247193D01*
X118239019Y-97339035D01*
X118299903Y-97426692D01*
X118345062Y-97520350D01*
X118376942Y-97630196D01*
X118397988Y-97766416D01*
X118410646Y-97939195D01*
X118417360Y-98158721D01*
X118419673Y-98328984D01*
X118421124Y-98546455D01*
X118420157Y-98709779D01*
X118416139Y-98828287D01*
X118408436Y-98911308D01*
X118396414Y-98968170D01*
X118379442Y-99008203D01*
X118372822Y-99019042D01*
X118287793Y-99097889D01*
X118180157Y-99129160D01*
X118069314Y-99112897D01*
X117974665Y-99049144D01*
X117950566Y-99018110D01*
X117929933Y-98977739D01*
X117915700Y-98923155D01*
X117907033Y-98843760D01*
X117903100Y-98728956D01*
X117903069Y-98568145D01*
X117904732Y-98434837D01*
X117905444Y-98186886D01*
X117898296Y-97993672D01*
X117882093Y-97846783D01*
X117855638Y-97737808D01*
X117817735Y-97658335D01*
X117789059Y-97621376D01*
X117739288Y-97569082D01*
X117692747Y-97529865D01*
X117639479Y-97501555D01*
X117569531Y-97481985D01*
X117472945Y-97468987D01*
X117339767Y-97460394D01*
X117160041Y-97454037D01*
X117000920Y-97449750D01*
X116389248Y-97433875D01*
X116251686Y-97337215D01*
X116103913Y-97199535D01*
X116007569Y-97037899D01*
X115961244Y-96862707D01*
X115963522Y-96684359D01*
X116012993Y-96513254D01*
X116108242Y-96359791D01*
X116247856Y-96234370D01*
X116412550Y-96153277D01*
X116489196Y-96138656D01*
X116618946Y-96127210D01*
X116791459Y-96119558D01*
X116996390Y-96116317D01*
X117032170Y-96116250D01*
X117231210Y-96115302D01*
X117377995Y-96111747D01*
X117483754Y-96104518D01*
X117559714Y-96092548D01*
X117617103Y-96074769D01*
X117654495Y-96057096D01*
X117779897Y-95956053D01*
X117858429Y-95817039D01*
X117884075Y-95651137D01*
X117856683Y-95492918D01*
X117776863Y-95368100D01*
X117676087Y-95289352D01*
X117639568Y-95269776D01*
X117596754Y-95254800D01*
X117539129Y-95243814D01*
X117458172Y-95236208D01*
X117345367Y-95231371D01*
X117192194Y-95228693D01*
X116990135Y-95227564D01*
X116810855Y-95227368D01*
X116047086Y-95227250D01*
X115938636Y-95307262D01*
X115861968Y-95370947D01*
X115805979Y-95429955D01*
X115797530Y-95442199D01*
X115789030Y-95487991D01*
X115780905Y-95594194D01*
X115773255Y-95757716D01*
X115766179Y-95975471D01*
X115759774Y-96244367D01*
X115754142Y-96561316D01*
X115749379Y-96923228D01*
X115749000Y-96957625D01*
X115733125Y-98418125D01*
X115648975Y-98576875D01*
X115501582Y-98791372D01*
X115312457Y-98962636D01*
X115186109Y-99039224D01*
X115025768Y-99094306D01*
X114833488Y-99120115D01*
X114633423Y-99116451D01*
X114449726Y-99083111D01*
X114352000Y-99046154D01*
X114158256Y-98918493D01*
X113989378Y-98744471D01*
X113881127Y-98578704D01*
X113796375Y-98418125D01*
X113780500Y-96957625D01*
X113776724Y-96606722D01*
X113773216Y-96313620D01*
X113769258Y-96072624D01*
X113764130Y-95878042D01*
X113757114Y-95724182D01*
X113747492Y-95605350D01*
X113734544Y-95515853D01*
X113717552Y-95449999D01*
X113695798Y-95402096D01*
X113668563Y-95366449D01*
X113635128Y-95337367D01*
X113594774Y-95309157D01*
X113570319Y-95292601D01*
X113492888Y-95248719D01*
X113413266Y-95230691D01*
X113303244Y-95232699D01*
X113286402Y-95234031D01*
X113169137Y-95250593D01*
X113086911Y-95284193D01*
X113011481Y-95346577D01*
X113008379Y-95349664D01*
X112907375Y-95450617D01*
X112890208Y-96902621D01*
X112886005Y-97246177D01*
X112882045Y-97532239D01*
X112878027Y-97766813D01*
X112873650Y-97955901D01*
X112868614Y-98105510D01*
X112862616Y-98221642D01*
X112855356Y-98310302D01*
X112846533Y-98377494D01*
X112835846Y-98429224D01*
X112822993Y-98471494D01*
X112809854Y-98505156D01*
X112688172Y-98718443D01*
X112520091Y-98900992D01*
X112348651Y-99021632D01*
X112258093Y-99068259D01*
X112178910Y-99096597D01*
X112089682Y-99111095D01*
X111968991Y-99116202D01*
X111891375Y-99116625D01*
X111747155Y-99114492D01*
X111645009Y-99105150D01*
X111563569Y-99084184D01*
X111481470Y-99047180D01*
X111435590Y-99022445D01*
X111251518Y-98892625D01*
X111096306Y-98728743D01*
X110985354Y-98547846D01*
X110966979Y-98503676D01*
X110953510Y-98462210D01*
X110942140Y-98411575D01*
X110932596Y-98345840D01*
X110924604Y-98259073D01*
X110917889Y-98145341D01*
X110912178Y-97998713D01*
X110907196Y-97813257D01*
X110902670Y-97583041D01*
X110898325Y-97302132D01*
X110893889Y-96964600D01*
X110893157Y-96905339D01*
X110888868Y-96563884D01*
X110884934Y-96280235D01*
X110881050Y-96048702D01*
X110876913Y-95863595D01*
X110872217Y-95719224D01*
X110866660Y-95609898D01*
X110859937Y-95529927D01*
X110851743Y-95473622D01*
X110841775Y-95435291D01*
X110829729Y-95409245D01*
X110815300Y-95389793D01*
X110811949Y-95386026D01*
X110682388Y-95285161D01*
X110532327Y-95234844D01*
X110376172Y-95234203D01*
X110228331Y-95282363D01*
X110103207Y-95378452D01*
X110061827Y-95431487D01*
X110051020Y-95459177D01*
X110041713Y-95510645D01*
X110033713Y-95590849D01*
X110026825Y-95704747D01*
X110020855Y-95857297D01*
X110015612Y-96053458D01*
X110010900Y-96298188D01*
X110006526Y-96596445D01*
X110002298Y-96953187D01*
X110002250Y-96957625D01*
X109998454Y-97300243D01*
X109994968Y-97585312D01*
X109991469Y-97818779D01*
X109987633Y-98006593D01*
X109983138Y-98154702D01*
X109977659Y-98269051D01*
X109970874Y-98355591D01*
X109962459Y-98420268D01*
X109952091Y-98469030D01*
X109939447Y-98507824D01*
X109924203Y-98542599D01*
X109915094Y-98561164D01*
X109781614Y-98765201D01*
X109608257Y-98930964D01*
X109405752Y-99050933D01*
X109184831Y-99117590D01*
X109107984Y-99126733D01*
X108999562Y-99130992D01*
X108930431Y-99120008D01*
X108877033Y-99087629D01*
X108845587Y-99058224D01*
X108776454Y-98953014D01*
X108763549Y-98843297D01*
X108801800Y-98741129D01*
X108886131Y-98658561D01*
X109011469Y-98607648D01*
X109037259Y-98602888D01*
X109218092Y-98552121D01*
X109348369Y-98463665D01*
X109390763Y-98411000D01*
X109404076Y-98386185D01*
X109415268Y-98352047D01*
X109424606Y-98302883D01*
X109432357Y-98232990D01*
X109438788Y-98136664D01*
X109444165Y-98008203D01*
X109448758Y-97841904D01*
X109452832Y-97632064D01*
X109456654Y-97372981D01*
X109460493Y-97058950D01*
X109462500Y-96879723D01*
X109466341Y-96538430D01*
X109469911Y-96254623D01*
X109473527Y-96022291D01*
X109477508Y-95835421D01*
X109482171Y-95688002D01*
X109487837Y-95574023D01*
X109494823Y-95487471D01*
X109503448Y-95422337D01*
X109514030Y-95372607D01*
X109526888Y-95332271D01*
X109542340Y-95295317D01*
X109546983Y-95285172D01*
X109679693Y-95067785D01*
X109853070Y-94895523D01*
X110060519Y-94773039D01*
X110295441Y-94704988D01*
X110383704Y-94694837D01*
X110631674Y-94707316D01*
X110862359Y-94778022D01*
X111067242Y-94902384D01*
X111237804Y-95075830D01*
X111316738Y-95195500D01*
X111415125Y-95370125D01*
X111431000Y-96830625D01*
X111435577Y-97205385D01*
X111440574Y-97520335D01*
X111446124Y-97779165D01*
X111452357Y-97985564D01*
X111459408Y-98143222D01*
X111467407Y-98255827D01*
X111476489Y-98327069D01*
X111485846Y-98359137D01*
X111535481Y-98423675D01*
X111609175Y-98497616D01*
X111627203Y-98513302D01*
X111694162Y-98562808D01*
X111758287Y-98586226D01*
X111845237Y-98590092D01*
X111913234Y-98586169D01*
X112078181Y-98553538D01*
X112203125Y-98477911D01*
X112299102Y-98354625D01*
X112309124Y-98312811D01*
X112318108Y-98222299D01*
X112326137Y-98080742D01*
X112333291Y-97885796D01*
X112339651Y-97635114D01*
X112345299Y-97326350D01*
X112350316Y-96957159D01*
X112351750Y-96830625D01*
X112355552Y-96487926D01*
X112359052Y-96202824D01*
X112362567Y-95969418D01*
X112366414Y-95781806D01*
X112370910Y-95634088D01*
X112376373Y-95520363D01*
X112383121Y-95434731D01*
X112391469Y-95371291D01*
X112401737Y-95324141D01*
X112414241Y-95287382D01*
X112429298Y-95255113D01*
X112437291Y-95239923D01*
X112579572Y-95033210D01*
X112753357Y-94875304D01*
X112950171Y-94765983D01*
X113161535Y-94705026D01*
X113378972Y-94692212D01*
X113594005Y-94727320D01*
X113798156Y-94810128D01*
X113982948Y-94940416D01*
X114139903Y-95117962D01*
X114236514Y-95286863D01*
X114252557Y-95323695D01*
X114265949Y-95362618D01*
X114277006Y-95409642D01*
X114286045Y-95470777D01*
X114293382Y-95552031D01*
X114299334Y-95659415D01*
X114304216Y-95798938D01*
X114308344Y-95976609D01*
X114312035Y-96198438D01*
X114315606Y-96470434D01*
X114319371Y-96798608D01*
X114320250Y-96878250D01*
X114324644Y-97240438D01*
X114329304Y-97543720D01*
X114334404Y-97792689D01*
X114340116Y-97991939D01*
X114346617Y-98146062D01*
X114354080Y-98259653D01*
X114362679Y-98337305D01*
X114372589Y-98383611D01*
X114377838Y-98396011D01*
X114470908Y-98499799D01*
X114599831Y-98566101D01*
X114747014Y-98591716D01*
X114894861Y-98573444D01*
X115019613Y-98512737D01*
X115096281Y-98449052D01*
X115152270Y-98390044D01*
X115160719Y-98377800D01*
X115169252Y-98331966D01*
X115177410Y-98225782D01*
X115185091Y-98062400D01*
X115192193Y-97844970D01*
X115198615Y-97576643D01*
X115204255Y-97260567D01*
X115209009Y-96899895D01*
X115209250Y-96878250D01*
X115213044Y-96537940D01*
X115216501Y-96255057D01*
X115219965Y-96023532D01*
X115223781Y-95837296D01*
X115228294Y-95690280D01*
X115233848Y-95576415D01*
X115240787Y-95489631D01*
X115249456Y-95423860D01*
X115260199Y-95373032D01*
X115273361Y-95331078D01*
X115289287Y-95291929D01*
X115300747Y-95266298D01*
X115393642Y-95113670D01*
X115525290Y-94965464D01*
X115677282Y-94838912D01*
X115831208Y-94751244D01*
X115864653Y-94738493D01*
X115924109Y-94722007D01*
X115999210Y-94709335D01*
X116098320Y-94700032D01*
X116229801Y-94693649D01*
X116402017Y-94689738D01*
X116623331Y-94687853D01*
X116817940Y-94687499D01*
X117097507Y-94688455D01*
D12*
%TO.C,Q3*%
X156080000Y-92740000D02*
X156080000Y-94200000D01*
X152920000Y-92740000D02*
X152920000Y-94900000D01*
X152920000Y-92740000D02*
X153850000Y-92740000D01*
X156080000Y-92740000D02*
X155150000Y-92740000D01*
%TO.C,Q2*%
X156080000Y-82740000D02*
X156080000Y-84200000D01*
X152920000Y-82740000D02*
X152920000Y-84900000D01*
X152920000Y-82740000D02*
X153850000Y-82740000D01*
X156080000Y-82740000D02*
X155150000Y-82740000D01*
%TO.C,D3*%
X141000000Y-85250000D02*
X141000000Y-89150000D01*
X139000000Y-85250000D02*
X139000000Y-89150000D01*
X141000000Y-85250000D02*
X139000000Y-85250000D01*
%TO.C,D2*%
X116000000Y-85250000D02*
X116000000Y-89150000D01*
X114000000Y-85250000D02*
X114000000Y-89150000D01*
X116000000Y-85250000D02*
X114000000Y-85250000D01*
%TO.C,D1*%
X128500000Y-85250000D02*
X128500000Y-89150000D01*
X126500000Y-85250000D02*
X126500000Y-89150000D01*
X128500000Y-85250000D02*
X126500000Y-85250000D01*
%TO.C,U3*%
X147000000Y-89060000D02*
X150450000Y-89060000D01*
X147000000Y-89060000D02*
X145050000Y-89060000D01*
X147000000Y-83940000D02*
X148950000Y-83940000D01*
X147000000Y-83940000D02*
X145050000Y-83940000D01*
%TO.C,U1*%
X134500000Y-89060000D02*
X137950000Y-89060000D01*
X134500000Y-89060000D02*
X132550000Y-89060000D01*
X134500000Y-83940000D02*
X136450000Y-83940000D01*
X134500000Y-83940000D02*
X132550000Y-83940000D01*
%TO.C,U2*%
X122000000Y-89060000D02*
X125450000Y-89060000D01*
X122000000Y-89060000D02*
X120050000Y-89060000D01*
X122000000Y-83940000D02*
X123950000Y-83940000D01*
X122000000Y-83940000D02*
X120050000Y-83940000D01*
%TO.C,RV3*%
X150910000Y-89790000D02*
X150910000Y-91210000D01*
X150710000Y-91210000D02*
X150710000Y-94790000D01*
X150710000Y-94790000D02*
X150910000Y-94790000D01*
X150910000Y-94790000D02*
X150910000Y-96210000D01*
X150910000Y-96210000D02*
X150710000Y-96210000D01*
X143690000Y-92490000D02*
X143690000Y-91000000D01*
X145000000Y-89690000D02*
X148540000Y-89690000D01*
X148980000Y-96310000D02*
X145000000Y-96310000D01*
X143690000Y-95000000D02*
X143690000Y-93510000D01*
X150710000Y-91210000D02*
X150910000Y-91210000D01*
X150910000Y-89790000D02*
X150710000Y-89790000D01*
X150710000Y-89790000D02*
X150710000Y-89690000D01*
X150710000Y-89690000D02*
X150460000Y-89690000D01*
X150710000Y-96210000D02*
X150710000Y-96310000D01*
X150710000Y-96310000D02*
X150020000Y-96310000D01*
X143690000Y-91000000D02*
G75*
G02*
X145000000Y-89690000I1310000J0D01*
G01*
X145000000Y-96310000D02*
G75*
G02*
X143690000Y-95000000I0J1310000D01*
G01*
%TO.C,RV2*%
X125910000Y-89790000D02*
X125910000Y-91210000D01*
X125710000Y-91210000D02*
X125710000Y-94790000D01*
X125710000Y-94790000D02*
X125910000Y-94790000D01*
X125910000Y-94790000D02*
X125910000Y-96210000D01*
X125910000Y-96210000D02*
X125710000Y-96210000D01*
X118690000Y-92490000D02*
X118690000Y-91000000D01*
X120000000Y-89690000D02*
X123540000Y-89690000D01*
X123980000Y-96310000D02*
X120000000Y-96310000D01*
X118690000Y-95000000D02*
X118690000Y-93510000D01*
X125710000Y-91210000D02*
X125910000Y-91210000D01*
X125910000Y-89790000D02*
X125710000Y-89790000D01*
X125710000Y-89790000D02*
X125710000Y-89690000D01*
X125710000Y-89690000D02*
X125460000Y-89690000D01*
X125710000Y-96210000D02*
X125710000Y-96310000D01*
X125710000Y-96310000D02*
X125020000Y-96310000D01*
X118690000Y-91000000D02*
G75*
G02*
X120000000Y-89690000I1310000J0D01*
G01*
X120000000Y-96310000D02*
G75*
G02*
X118690000Y-95000000I0J1310000D01*
G01*
%TO.C,RV1*%
X138410000Y-89790000D02*
X138410000Y-91210000D01*
X138210000Y-91210000D02*
X138210000Y-94790000D01*
X138210000Y-94790000D02*
X138410000Y-94790000D01*
X138410000Y-94790000D02*
X138410000Y-96210000D01*
X138410000Y-96210000D02*
X138210000Y-96210000D01*
X131190000Y-92490000D02*
X131190000Y-91000000D01*
X132500000Y-89690000D02*
X136040000Y-89690000D01*
X136480000Y-96310000D02*
X132500000Y-96310000D01*
X131190000Y-95000000D02*
X131190000Y-93510000D01*
X138210000Y-91210000D02*
X138410000Y-91210000D01*
X138410000Y-89790000D02*
X138210000Y-89790000D01*
X138210000Y-89790000D02*
X138210000Y-89690000D01*
X138210000Y-89690000D02*
X137960000Y-89690000D01*
X138210000Y-96210000D02*
X138210000Y-96310000D01*
X138210000Y-96310000D02*
X137520000Y-96310000D01*
X131190000Y-91000000D02*
G75*
G02*
X132500000Y-89690000I1310000J0D01*
G01*
X132500000Y-96310000D02*
G75*
G02*
X131190000Y-95000000I0J1310000D01*
G01*
%TO.C,J2*%
X113000000Y-84400000D02*
X113000000Y-86500000D01*
X113300000Y-84100000D02*
X111700000Y-84100000D01*
X113300000Y-85800000D02*
X113300000Y-84100000D01*
X113000000Y-93600000D02*
X111200000Y-93600000D01*
X113000000Y-91500000D02*
X113000000Y-93600000D01*
X98300000Y-84400000D02*
X113000000Y-84400000D01*
X98300000Y-93600000D02*
X98300000Y-84400000D01*
X106800000Y-93600000D02*
X98300000Y-93600000D01*
%TO.C,R9*%
X149671267Y-81990000D02*
X149328733Y-81990000D01*
X149671267Y-83010000D02*
X149328733Y-83010000D01*
%TO.C,R8*%
X142510000Y-87171267D02*
X142510000Y-86828733D01*
X141490000Y-87171267D02*
X141490000Y-86828733D01*
%TO.C,R7*%
X142510000Y-90671267D02*
X142510000Y-90328733D01*
X141490000Y-90671267D02*
X141490000Y-90328733D01*
%TO.C,R6*%
X124171267Y-81990000D02*
X123828733Y-81990000D01*
X124171267Y-83010000D02*
X123828733Y-83010000D01*
%TO.C,R5*%
X117510000Y-87171267D02*
X117510000Y-86828733D01*
X116490000Y-87171267D02*
X116490000Y-86828733D01*
%TO.C,R4*%
X117510000Y-90671267D02*
X117510000Y-90328733D01*
X116490000Y-90671267D02*
X116490000Y-90328733D01*
%TO.C,R3*%
X136671267Y-81990000D02*
X136328733Y-81990000D01*
X136671267Y-83010000D02*
X136328733Y-83010000D01*
%TO.C,R2*%
X130010000Y-87171267D02*
X130010000Y-86828733D01*
X128990000Y-87171267D02*
X128990000Y-86828733D01*
%TO.C,R1*%
X130010000Y-90671267D02*
X130010000Y-90328733D01*
X128990000Y-90671267D02*
X128990000Y-90328733D01*
%TO.C,Q1*%
X156080000Y-87740000D02*
X156080000Y-89200000D01*
X152920000Y-87740000D02*
X152920000Y-89900000D01*
X152920000Y-87740000D02*
X153850000Y-87740000D01*
X156080000Y-87740000D02*
X155150000Y-87740000D01*
%TO.C,J1*%
X157730000Y-84230000D02*
X159000000Y-84230000D01*
X157730000Y-85500000D02*
X157730000Y-84230000D01*
X160042929Y-93500000D02*
X160440000Y-93500000D01*
X160042929Y-92740000D02*
X160440000Y-92740000D01*
X169100000Y-93500000D02*
X163100000Y-93500000D01*
X169100000Y-92740000D02*
X169100000Y-93500000D01*
X163100000Y-92740000D02*
X169100000Y-92740000D01*
X160440000Y-91850000D02*
X163100000Y-91850000D01*
X160042929Y-90960000D02*
X160440000Y-90960000D01*
X160042929Y-90200000D02*
X160440000Y-90200000D01*
X169100000Y-90960000D02*
X163100000Y-90960000D01*
X169100000Y-90200000D02*
X169100000Y-90960000D01*
X163100000Y-90200000D02*
X169100000Y-90200000D01*
X160440000Y-89310000D02*
X163100000Y-89310000D01*
X160042929Y-88420000D02*
X160440000Y-88420000D01*
X160042929Y-87660000D02*
X160440000Y-87660000D01*
X169100000Y-88420000D02*
X163100000Y-88420000D01*
X169100000Y-87660000D02*
X169100000Y-88420000D01*
X163100000Y-87660000D02*
X169100000Y-87660000D01*
X160440000Y-86770000D02*
X163100000Y-86770000D01*
X160110000Y-85880000D02*
X160440000Y-85880000D01*
X160110000Y-85120000D02*
X160440000Y-85120000D01*
X163100000Y-85780000D02*
X169100000Y-85780000D01*
X163100000Y-85660000D02*
X169100000Y-85660000D01*
X163100000Y-85540000D02*
X169100000Y-85540000D01*
X163100000Y-85420000D02*
X169100000Y-85420000D01*
X163100000Y-85300000D02*
X169100000Y-85300000D01*
X163100000Y-85180000D02*
X169100000Y-85180000D01*
X169100000Y-85880000D02*
X163100000Y-85880000D01*
X169100000Y-85120000D02*
X169100000Y-85880000D01*
X163100000Y-85120000D02*
X169100000Y-85120000D01*
X163100000Y-84170000D02*
X160440000Y-84170000D01*
X163100000Y-94450000D02*
X163100000Y-84170000D01*
X160440000Y-94450000D02*
X163100000Y-94450000D01*
X160440000Y-84170000D02*
X160440000Y-94450000D01*
%TO.C,C9*%
X154124721Y-96510000D02*
X154450279Y-96510000D01*
X154124721Y-95490000D02*
X154450279Y-95490000D01*
%TO.C,C8*%
X146162779Y-81990000D02*
X145837221Y-81990000D01*
X146162779Y-83010000D02*
X145837221Y-83010000D01*
%TO.C,C7*%
X142510000Y-83662779D02*
X142510000Y-83337221D01*
X141490000Y-83662779D02*
X141490000Y-83337221D01*
%TO.C,C6*%
X154337221Y-86510000D02*
X154662779Y-86510000D01*
X154337221Y-85490000D02*
X154662779Y-85490000D01*
%TO.C,C5*%
X119837221Y-83010000D02*
X120162779Y-83010000D01*
X119837221Y-81990000D02*
X120162779Y-81990000D01*
%TO.C,C4*%
X117510000Y-83662779D02*
X117510000Y-83337221D01*
X116490000Y-83662779D02*
X116490000Y-83337221D01*
%TO.C,C3*%
X154337221Y-91510000D02*
X154662779Y-91510000D01*
X154337221Y-90490000D02*
X154662779Y-90490000D01*
%TO.C,C2*%
X133162779Y-81990000D02*
X132837221Y-81990000D01*
X133162779Y-83010000D02*
X132837221Y-83010000D01*
%TO.C,C1*%
X130010000Y-83662779D02*
X130010000Y-83337221D01*
X128990000Y-83662779D02*
X128990000Y-83337221D01*
%TO.C,Q3*%
D13*
X157547619Y-93785238D02*
X157500000Y-93880476D01*
X157404761Y-93975714D01*
X157261904Y-94118571D01*
X157214285Y-94213809D01*
X157214285Y-94309047D01*
X157452380Y-94261428D02*
X157404761Y-94356666D01*
X157309523Y-94451904D01*
X157119047Y-94499523D01*
X156785714Y-94499523D01*
X156595238Y-94451904D01*
X156500000Y-94356666D01*
X156452380Y-94261428D01*
X156452380Y-94070952D01*
X156500000Y-93975714D01*
X156595238Y-93880476D01*
X156785714Y-93832857D01*
X157119047Y-93832857D01*
X157309523Y-93880476D01*
X157404761Y-93975714D01*
X157452380Y-94070952D01*
X157452380Y-94261428D01*
X156452380Y-93499523D02*
X156452380Y-92880476D01*
X156833333Y-93213809D01*
X156833333Y-93070952D01*
X156880952Y-92975714D01*
X156928571Y-92928095D01*
X157023809Y-92880476D01*
X157261904Y-92880476D01*
X157357142Y-92928095D01*
X157404761Y-92975714D01*
X157452380Y-93070952D01*
X157452380Y-93356666D01*
X157404761Y-93451904D01*
X157357142Y-93499523D01*
%TO.C,Q2*%
X157527619Y-81995238D02*
X157480000Y-82090476D01*
X157384761Y-82185714D01*
X157241904Y-82328571D01*
X157194285Y-82423809D01*
X157194285Y-82519047D01*
X157432380Y-82471428D02*
X157384761Y-82566666D01*
X157289523Y-82661904D01*
X157099047Y-82709523D01*
X156765714Y-82709523D01*
X156575238Y-82661904D01*
X156480000Y-82566666D01*
X156432380Y-82471428D01*
X156432380Y-82280952D01*
X156480000Y-82185714D01*
X156575238Y-82090476D01*
X156765714Y-82042857D01*
X157099047Y-82042857D01*
X157289523Y-82090476D01*
X157384761Y-82185714D01*
X157432380Y-82280952D01*
X157432380Y-82471428D01*
X156527619Y-81661904D02*
X156480000Y-81614285D01*
X156432380Y-81519047D01*
X156432380Y-81280952D01*
X156480000Y-81185714D01*
X156527619Y-81138095D01*
X156622857Y-81090476D01*
X156718095Y-81090476D01*
X156860952Y-81138095D01*
X157432380Y-81709523D01*
X157432380Y-81090476D01*
%TO.C,D3*%
X139492380Y-84208095D02*
X138492380Y-84208095D01*
X138492380Y-83970000D01*
X138540000Y-83827142D01*
X138635238Y-83731904D01*
X138730476Y-83684285D01*
X138920952Y-83636666D01*
X139063809Y-83636666D01*
X139254285Y-83684285D01*
X139349523Y-83731904D01*
X139444761Y-83827142D01*
X139492380Y-83970000D01*
X139492380Y-84208095D01*
X138492380Y-83303333D02*
X138492380Y-82684285D01*
X138873333Y-83017619D01*
X138873333Y-82874761D01*
X138920952Y-82779523D01*
X138968571Y-82731904D01*
X139063809Y-82684285D01*
X139301904Y-82684285D01*
X139397142Y-82731904D01*
X139444761Y-82779523D01*
X139492380Y-82874761D01*
X139492380Y-83160476D01*
X139444761Y-83255714D01*
X139397142Y-83303333D01*
%TO.C,D2*%
X114552380Y-84588095D02*
X113552380Y-84588095D01*
X113552380Y-84350000D01*
X113600000Y-84207142D01*
X113695238Y-84111904D01*
X113790476Y-84064285D01*
X113980952Y-84016666D01*
X114123809Y-84016666D01*
X114314285Y-84064285D01*
X114409523Y-84111904D01*
X114504761Y-84207142D01*
X114552380Y-84350000D01*
X114552380Y-84588095D01*
X113647619Y-83635714D02*
X113600000Y-83588095D01*
X113552380Y-83492857D01*
X113552380Y-83254761D01*
X113600000Y-83159523D01*
X113647619Y-83111904D01*
X113742857Y-83064285D01*
X113838095Y-83064285D01*
X113980952Y-83111904D01*
X114552380Y-83683333D01*
X114552380Y-83064285D01*
%TO.C,D1*%
X127102380Y-84658095D02*
X126102380Y-84658095D01*
X126102380Y-84420000D01*
X126150000Y-84277142D01*
X126245238Y-84181904D01*
X126340476Y-84134285D01*
X126530952Y-84086666D01*
X126673809Y-84086666D01*
X126864285Y-84134285D01*
X126959523Y-84181904D01*
X127054761Y-84277142D01*
X127102380Y-84420000D01*
X127102380Y-84658095D01*
X127102380Y-83134285D02*
X127102380Y-83705714D01*
X127102380Y-83420000D02*
X126102380Y-83420000D01*
X126245238Y-83515238D01*
X126340476Y-83610476D01*
X126388095Y-83705714D01*
%TO.C,U3*%
X145418095Y-90032380D02*
X145418095Y-90841904D01*
X145465714Y-90937142D01*
X145513333Y-90984761D01*
X145608571Y-91032380D01*
X145799047Y-91032380D01*
X145894285Y-90984761D01*
X145941904Y-90937142D01*
X145989523Y-90841904D01*
X145989523Y-90032380D01*
X146370476Y-90032380D02*
X146989523Y-90032380D01*
X146656190Y-90413333D01*
X146799047Y-90413333D01*
X146894285Y-90460952D01*
X146941904Y-90508571D01*
X146989523Y-90603809D01*
X146989523Y-90841904D01*
X146941904Y-90937142D01*
X146894285Y-90984761D01*
X146799047Y-91032380D01*
X146513333Y-91032380D01*
X146418095Y-90984761D01*
X146370476Y-90937142D01*
%TO.C,U1*%
X132558095Y-90242380D02*
X132558095Y-91051904D01*
X132605714Y-91147142D01*
X132653333Y-91194761D01*
X132748571Y-91242380D01*
X132939047Y-91242380D01*
X133034285Y-91194761D01*
X133081904Y-91147142D01*
X133129523Y-91051904D01*
X133129523Y-90242380D01*
X134129523Y-91242380D02*
X133558095Y-91242380D01*
X133843809Y-91242380D02*
X133843809Y-90242380D01*
X133748571Y-90385238D01*
X133653333Y-90480476D01*
X133558095Y-90528095D01*
%TO.C,U2*%
X120848095Y-90062380D02*
X120848095Y-90871904D01*
X120895714Y-90967142D01*
X120943333Y-91014761D01*
X121038571Y-91062380D01*
X121229047Y-91062380D01*
X121324285Y-91014761D01*
X121371904Y-90967142D01*
X121419523Y-90871904D01*
X121419523Y-90062380D01*
X121848095Y-90157619D02*
X121895714Y-90110000D01*
X121990952Y-90062380D01*
X122229047Y-90062380D01*
X122324285Y-90110000D01*
X122371904Y-90157619D01*
X122419523Y-90252857D01*
X122419523Y-90348095D01*
X122371904Y-90490952D01*
X121800476Y-91062380D01*
X122419523Y-91062380D01*
%TO.C,RV3*%
X147782380Y-95235238D02*
X147306190Y-95568571D01*
X147782380Y-95806666D02*
X146782380Y-95806666D01*
X146782380Y-95425714D01*
X146830000Y-95330476D01*
X146877619Y-95282857D01*
X146972857Y-95235238D01*
X147115714Y-95235238D01*
X147210952Y-95282857D01*
X147258571Y-95330476D01*
X147306190Y-95425714D01*
X147306190Y-95806666D01*
X146782380Y-94949523D02*
X147782380Y-94616190D01*
X146782380Y-94282857D01*
X146782380Y-94044761D02*
X146782380Y-93425714D01*
X147163333Y-93759047D01*
X147163333Y-93616190D01*
X147210952Y-93520952D01*
X147258571Y-93473333D01*
X147353809Y-93425714D01*
X147591904Y-93425714D01*
X147687142Y-93473333D01*
X147734761Y-93520952D01*
X147782380Y-93616190D01*
X147782380Y-93901904D01*
X147734761Y-93997142D01*
X147687142Y-94044761D01*
%TO.C,RV2*%
X122932380Y-93955238D02*
X122456190Y-94288571D01*
X122932380Y-94526666D02*
X121932380Y-94526666D01*
X121932380Y-94145714D01*
X121980000Y-94050476D01*
X122027619Y-94002857D01*
X122122857Y-93955238D01*
X122265714Y-93955238D01*
X122360952Y-94002857D01*
X122408571Y-94050476D01*
X122456190Y-94145714D01*
X122456190Y-94526666D01*
X121932380Y-93669523D02*
X122932380Y-93336190D01*
X121932380Y-93002857D01*
X122027619Y-92717142D02*
X121980000Y-92669523D01*
X121932380Y-92574285D01*
X121932380Y-92336190D01*
X121980000Y-92240952D01*
X122027619Y-92193333D01*
X122122857Y-92145714D01*
X122218095Y-92145714D01*
X122360952Y-92193333D01*
X122932380Y-92764761D01*
X122932380Y-92145714D01*
%TO.C,RV1*%
X135242380Y-93955238D02*
X134766190Y-94288571D01*
X135242380Y-94526666D02*
X134242380Y-94526666D01*
X134242380Y-94145714D01*
X134290000Y-94050476D01*
X134337619Y-94002857D01*
X134432857Y-93955238D01*
X134575714Y-93955238D01*
X134670952Y-94002857D01*
X134718571Y-94050476D01*
X134766190Y-94145714D01*
X134766190Y-94526666D01*
X134242380Y-93669523D02*
X135242380Y-93336190D01*
X134242380Y-93002857D01*
X135242380Y-92145714D02*
X135242380Y-92717142D01*
X135242380Y-92431428D02*
X134242380Y-92431428D01*
X134385238Y-92526666D01*
X134480476Y-92621904D01*
X134528095Y-92717142D01*
%TO.C,J2*%
X109122380Y-83543333D02*
X109836666Y-83543333D01*
X109979523Y-83590952D01*
X110074761Y-83686190D01*
X110122380Y-83829047D01*
X110122380Y-83924285D01*
X109217619Y-83114761D02*
X109170000Y-83067142D01*
X109122380Y-82971904D01*
X109122380Y-82733809D01*
X109170000Y-82638571D01*
X109217619Y-82590952D01*
X109312857Y-82543333D01*
X109408095Y-82543333D01*
X109550952Y-82590952D01*
X110122380Y-83162380D01*
X110122380Y-82543333D01*
%TO.C,R9*%
X149323333Y-81532380D02*
X148990000Y-81056190D01*
X148751904Y-81532380D02*
X148751904Y-80532380D01*
X149132857Y-80532380D01*
X149228095Y-80580000D01*
X149275714Y-80627619D01*
X149323333Y-80722857D01*
X149323333Y-80865714D01*
X149275714Y-80960952D01*
X149228095Y-81008571D01*
X149132857Y-81056190D01*
X148751904Y-81056190D01*
X149799523Y-81532380D02*
X149990000Y-81532380D01*
X150085238Y-81484761D01*
X150132857Y-81437142D01*
X150228095Y-81294285D01*
X150275714Y-81103809D01*
X150275714Y-80722857D01*
X150228095Y-80627619D01*
X150180476Y-80580000D01*
X150085238Y-80532380D01*
X149894761Y-80532380D01*
X149799523Y-80580000D01*
X149751904Y-80627619D01*
X149704285Y-80722857D01*
X149704285Y-80960952D01*
X149751904Y-81056190D01*
X149799523Y-81103809D01*
X149894761Y-81151428D01*
X150085238Y-81151428D01*
X150180476Y-81103809D01*
X150228095Y-81056190D01*
X150275714Y-80960952D01*
%TO.C,R8*%
X141032380Y-91216666D02*
X140556190Y-91550000D01*
X141032380Y-91788095D02*
X140032380Y-91788095D01*
X140032380Y-91407142D01*
X140080000Y-91311904D01*
X140127619Y-91264285D01*
X140222857Y-91216666D01*
X140365714Y-91216666D01*
X140460952Y-91264285D01*
X140508571Y-91311904D01*
X140556190Y-91407142D01*
X140556190Y-91788095D01*
X140460952Y-90645238D02*
X140413333Y-90740476D01*
X140365714Y-90788095D01*
X140270476Y-90835714D01*
X140222857Y-90835714D01*
X140127619Y-90788095D01*
X140080000Y-90740476D01*
X140032380Y-90645238D01*
X140032380Y-90454761D01*
X140080000Y-90359523D01*
X140127619Y-90311904D01*
X140222857Y-90264285D01*
X140270476Y-90264285D01*
X140365714Y-90311904D01*
X140413333Y-90359523D01*
X140460952Y-90454761D01*
X140460952Y-90645238D01*
X140508571Y-90740476D01*
X140556190Y-90788095D01*
X140651428Y-90835714D01*
X140841904Y-90835714D01*
X140937142Y-90788095D01*
X140984761Y-90740476D01*
X141032380Y-90645238D01*
X141032380Y-90454761D01*
X140984761Y-90359523D01*
X140937142Y-90311904D01*
X140841904Y-90264285D01*
X140651428Y-90264285D01*
X140556190Y-90311904D01*
X140508571Y-90359523D01*
X140460952Y-90454761D01*
%TO.C,R7*%
X142662380Y-93576666D02*
X142186190Y-93910000D01*
X142662380Y-94148095D02*
X141662380Y-94148095D01*
X141662380Y-93767142D01*
X141710000Y-93671904D01*
X141757619Y-93624285D01*
X141852857Y-93576666D01*
X141995714Y-93576666D01*
X142090952Y-93624285D01*
X142138571Y-93671904D01*
X142186190Y-93767142D01*
X142186190Y-94148095D01*
X141662380Y-93243333D02*
X141662380Y-92576666D01*
X142662380Y-93005238D01*
%TO.C,R6*%
X123823333Y-81472380D02*
X123490000Y-80996190D01*
X123251904Y-81472380D02*
X123251904Y-80472380D01*
X123632857Y-80472380D01*
X123728095Y-80520000D01*
X123775714Y-80567619D01*
X123823333Y-80662857D01*
X123823333Y-80805714D01*
X123775714Y-80900952D01*
X123728095Y-80948571D01*
X123632857Y-80996190D01*
X123251904Y-80996190D01*
X124680476Y-80472380D02*
X124490000Y-80472380D01*
X124394761Y-80520000D01*
X124347142Y-80567619D01*
X124251904Y-80710476D01*
X124204285Y-80900952D01*
X124204285Y-81281904D01*
X124251904Y-81377142D01*
X124299523Y-81424761D01*
X124394761Y-81472380D01*
X124585238Y-81472380D01*
X124680476Y-81424761D01*
X124728095Y-81377142D01*
X124775714Y-81281904D01*
X124775714Y-81043809D01*
X124728095Y-80948571D01*
X124680476Y-80900952D01*
X124585238Y-80853333D01*
X124394761Y-80853333D01*
X124299523Y-80900952D01*
X124251904Y-80948571D01*
X124204285Y-81043809D01*
%TO.C,R5*%
X115922380Y-91186666D02*
X115446190Y-91520000D01*
X115922380Y-91758095D02*
X114922380Y-91758095D01*
X114922380Y-91377142D01*
X114970000Y-91281904D01*
X115017619Y-91234285D01*
X115112857Y-91186666D01*
X115255714Y-91186666D01*
X115350952Y-91234285D01*
X115398571Y-91281904D01*
X115446190Y-91377142D01*
X115446190Y-91758095D01*
X114922380Y-90281904D02*
X114922380Y-90758095D01*
X115398571Y-90805714D01*
X115350952Y-90758095D01*
X115303333Y-90662857D01*
X115303333Y-90424761D01*
X115350952Y-90329523D01*
X115398571Y-90281904D01*
X115493809Y-90234285D01*
X115731904Y-90234285D01*
X115827142Y-90281904D01*
X115874761Y-90329523D01*
X115922380Y-90424761D01*
X115922380Y-90662857D01*
X115874761Y-90758095D01*
X115827142Y-90805714D01*
%TO.C,R4*%
X117452380Y-93466666D02*
X116976190Y-93800000D01*
X117452380Y-94038095D02*
X116452380Y-94038095D01*
X116452380Y-93657142D01*
X116500000Y-93561904D01*
X116547619Y-93514285D01*
X116642857Y-93466666D01*
X116785714Y-93466666D01*
X116880952Y-93514285D01*
X116928571Y-93561904D01*
X116976190Y-93657142D01*
X116976190Y-94038095D01*
X116785714Y-92609523D02*
X117452380Y-92609523D01*
X116404761Y-92847619D02*
X117119047Y-93085714D01*
X117119047Y-92466666D01*
%TO.C,R3*%
X136293333Y-81582380D02*
X135960000Y-81106190D01*
X135721904Y-81582380D02*
X135721904Y-80582380D01*
X136102857Y-80582380D01*
X136198095Y-80630000D01*
X136245714Y-80677619D01*
X136293333Y-80772857D01*
X136293333Y-80915714D01*
X136245714Y-81010952D01*
X136198095Y-81058571D01*
X136102857Y-81106190D01*
X135721904Y-81106190D01*
X136626666Y-80582380D02*
X137245714Y-80582380D01*
X136912380Y-80963333D01*
X137055238Y-80963333D01*
X137150476Y-81010952D01*
X137198095Y-81058571D01*
X137245714Y-81153809D01*
X137245714Y-81391904D01*
X137198095Y-81487142D01*
X137150476Y-81534761D01*
X137055238Y-81582380D01*
X136769523Y-81582380D01*
X136674285Y-81534761D01*
X136626666Y-81487142D01*
%TO.C,R2*%
X128522380Y-91156666D02*
X128046190Y-91490000D01*
X128522380Y-91728095D02*
X127522380Y-91728095D01*
X127522380Y-91347142D01*
X127570000Y-91251904D01*
X127617619Y-91204285D01*
X127712857Y-91156666D01*
X127855714Y-91156666D01*
X127950952Y-91204285D01*
X127998571Y-91251904D01*
X128046190Y-91347142D01*
X128046190Y-91728095D01*
X127617619Y-90775714D02*
X127570000Y-90728095D01*
X127522380Y-90632857D01*
X127522380Y-90394761D01*
X127570000Y-90299523D01*
X127617619Y-90251904D01*
X127712857Y-90204285D01*
X127808095Y-90204285D01*
X127950952Y-90251904D01*
X128522380Y-90823333D01*
X128522380Y-90204285D01*
%TO.C,R1*%
X129982380Y-93386666D02*
X129506190Y-93720000D01*
X129982380Y-93958095D02*
X128982380Y-93958095D01*
X128982380Y-93577142D01*
X129030000Y-93481904D01*
X129077619Y-93434285D01*
X129172857Y-93386666D01*
X129315714Y-93386666D01*
X129410952Y-93434285D01*
X129458571Y-93481904D01*
X129506190Y-93577142D01*
X129506190Y-93958095D01*
X129982380Y-92434285D02*
X129982380Y-93005714D01*
X129982380Y-92720000D02*
X128982380Y-92720000D01*
X129125238Y-92815238D01*
X129220476Y-92910476D01*
X129268095Y-93005714D01*
%TO.C,Q1*%
X157577619Y-88595238D02*
X157530000Y-88690476D01*
X157434761Y-88785714D01*
X157291904Y-88928571D01*
X157244285Y-89023809D01*
X157244285Y-89119047D01*
X157482380Y-89071428D02*
X157434761Y-89166666D01*
X157339523Y-89261904D01*
X157149047Y-89309523D01*
X156815714Y-89309523D01*
X156625238Y-89261904D01*
X156530000Y-89166666D01*
X156482380Y-89071428D01*
X156482380Y-88880952D01*
X156530000Y-88785714D01*
X156625238Y-88690476D01*
X156815714Y-88642857D01*
X157149047Y-88642857D01*
X157339523Y-88690476D01*
X157434761Y-88785714D01*
X157482380Y-88880952D01*
X157482380Y-89071428D01*
X157482380Y-87690476D02*
X157482380Y-88261904D01*
X157482380Y-87976190D02*
X156482380Y-87976190D01*
X156625238Y-88071428D01*
X156720476Y-88166666D01*
X156768095Y-88261904D01*
%TO.C,J1*%
X163051666Y-82682380D02*
X163051666Y-83396666D01*
X163004047Y-83539523D01*
X162908809Y-83634761D01*
X162765952Y-83682380D01*
X162670714Y-83682380D01*
X164051666Y-83682380D02*
X163480238Y-83682380D01*
X163765952Y-83682380D02*
X163765952Y-82682380D01*
X163670714Y-82825238D01*
X163575476Y-82920476D01*
X163480238Y-82968095D01*
%TO.C,C9*%
X156763333Y-96287142D02*
X156715714Y-96334761D01*
X156572857Y-96382380D01*
X156477619Y-96382380D01*
X156334761Y-96334761D01*
X156239523Y-96239523D01*
X156191904Y-96144285D01*
X156144285Y-95953809D01*
X156144285Y-95810952D01*
X156191904Y-95620476D01*
X156239523Y-95525238D01*
X156334761Y-95430000D01*
X156477619Y-95382380D01*
X156572857Y-95382380D01*
X156715714Y-95430000D01*
X156763333Y-95477619D01*
X157239523Y-96382380D02*
X157430000Y-96382380D01*
X157525238Y-96334761D01*
X157572857Y-96287142D01*
X157668095Y-96144285D01*
X157715714Y-95953809D01*
X157715714Y-95572857D01*
X157668095Y-95477619D01*
X157620476Y-95430000D01*
X157525238Y-95382380D01*
X157334761Y-95382380D01*
X157239523Y-95430000D01*
X157191904Y-95477619D01*
X157144285Y-95572857D01*
X157144285Y-95810952D01*
X157191904Y-95906190D01*
X157239523Y-95953809D01*
X157334761Y-96001428D01*
X157525238Y-96001428D01*
X157620476Y-95953809D01*
X157668095Y-95906190D01*
X157715714Y-95810952D01*
%TO.C,C8*%
X145843333Y-81497142D02*
X145795714Y-81544761D01*
X145652857Y-81592380D01*
X145557619Y-81592380D01*
X145414761Y-81544761D01*
X145319523Y-81449523D01*
X145271904Y-81354285D01*
X145224285Y-81163809D01*
X145224285Y-81020952D01*
X145271904Y-80830476D01*
X145319523Y-80735238D01*
X145414761Y-80640000D01*
X145557619Y-80592380D01*
X145652857Y-80592380D01*
X145795714Y-80640000D01*
X145843333Y-80687619D01*
X146414761Y-81020952D02*
X146319523Y-80973333D01*
X146271904Y-80925714D01*
X146224285Y-80830476D01*
X146224285Y-80782857D01*
X146271904Y-80687619D01*
X146319523Y-80640000D01*
X146414761Y-80592380D01*
X146605238Y-80592380D01*
X146700476Y-80640000D01*
X146748095Y-80687619D01*
X146795714Y-80782857D01*
X146795714Y-80830476D01*
X146748095Y-80925714D01*
X146700476Y-80973333D01*
X146605238Y-81020952D01*
X146414761Y-81020952D01*
X146319523Y-81068571D01*
X146271904Y-81116190D01*
X146224285Y-81211428D01*
X146224285Y-81401904D01*
X146271904Y-81497142D01*
X146319523Y-81544761D01*
X146414761Y-81592380D01*
X146605238Y-81592380D01*
X146700476Y-81544761D01*
X146748095Y-81497142D01*
X146795714Y-81401904D01*
X146795714Y-81211428D01*
X146748095Y-81116190D01*
X146700476Y-81068571D01*
X146605238Y-81020952D01*
%TO.C,C7*%
X140927142Y-83666666D02*
X140974761Y-83714285D01*
X141022380Y-83857142D01*
X141022380Y-83952380D01*
X140974761Y-84095238D01*
X140879523Y-84190476D01*
X140784285Y-84238095D01*
X140593809Y-84285714D01*
X140450952Y-84285714D01*
X140260476Y-84238095D01*
X140165238Y-84190476D01*
X140070000Y-84095238D01*
X140022380Y-83952380D01*
X140022380Y-83857142D01*
X140070000Y-83714285D01*
X140117619Y-83666666D01*
X140022380Y-83333333D02*
X140022380Y-82666666D01*
X141022380Y-83095238D01*
%TO.C,C6*%
X151683333Y-86307142D02*
X151635714Y-86354761D01*
X151492857Y-86402380D01*
X151397619Y-86402380D01*
X151254761Y-86354761D01*
X151159523Y-86259523D01*
X151111904Y-86164285D01*
X151064285Y-85973809D01*
X151064285Y-85830952D01*
X151111904Y-85640476D01*
X151159523Y-85545238D01*
X151254761Y-85450000D01*
X151397619Y-85402380D01*
X151492857Y-85402380D01*
X151635714Y-85450000D01*
X151683333Y-85497619D01*
X152540476Y-85402380D02*
X152350000Y-85402380D01*
X152254761Y-85450000D01*
X152207142Y-85497619D01*
X152111904Y-85640476D01*
X152064285Y-85830952D01*
X152064285Y-86211904D01*
X152111904Y-86307142D01*
X152159523Y-86354761D01*
X152254761Y-86402380D01*
X152445238Y-86402380D01*
X152540476Y-86354761D01*
X152588095Y-86307142D01*
X152635714Y-86211904D01*
X152635714Y-85973809D01*
X152588095Y-85878571D01*
X152540476Y-85830952D01*
X152445238Y-85783333D01*
X152254761Y-85783333D01*
X152159523Y-85830952D01*
X152111904Y-85878571D01*
X152064285Y-85973809D01*
%TO.C,C5*%
X119833333Y-81427142D02*
X119785714Y-81474761D01*
X119642857Y-81522380D01*
X119547619Y-81522380D01*
X119404761Y-81474761D01*
X119309523Y-81379523D01*
X119261904Y-81284285D01*
X119214285Y-81093809D01*
X119214285Y-80950952D01*
X119261904Y-80760476D01*
X119309523Y-80665238D01*
X119404761Y-80570000D01*
X119547619Y-80522380D01*
X119642857Y-80522380D01*
X119785714Y-80570000D01*
X119833333Y-80617619D01*
X120738095Y-80522380D02*
X120261904Y-80522380D01*
X120214285Y-80998571D01*
X120261904Y-80950952D01*
X120357142Y-80903333D01*
X120595238Y-80903333D01*
X120690476Y-80950952D01*
X120738095Y-80998571D01*
X120785714Y-81093809D01*
X120785714Y-81331904D01*
X120738095Y-81427142D01*
X120690476Y-81474761D01*
X120595238Y-81522380D01*
X120357142Y-81522380D01*
X120261904Y-81474761D01*
X120214285Y-81427142D01*
%TO.C,C4*%
X115927142Y-83666666D02*
X115974761Y-83714285D01*
X116022380Y-83857142D01*
X116022380Y-83952380D01*
X115974761Y-84095238D01*
X115879523Y-84190476D01*
X115784285Y-84238095D01*
X115593809Y-84285714D01*
X115450952Y-84285714D01*
X115260476Y-84238095D01*
X115165238Y-84190476D01*
X115070000Y-84095238D01*
X115022380Y-83952380D01*
X115022380Y-83857142D01*
X115070000Y-83714285D01*
X115117619Y-83666666D01*
X115355714Y-82809523D02*
X116022380Y-82809523D01*
X114974761Y-83047619D02*
X115689047Y-83285714D01*
X115689047Y-82666666D01*
%TO.C,C3*%
X151833333Y-91407142D02*
X151785714Y-91454761D01*
X151642857Y-91502380D01*
X151547619Y-91502380D01*
X151404761Y-91454761D01*
X151309523Y-91359523D01*
X151261904Y-91264285D01*
X151214285Y-91073809D01*
X151214285Y-90930952D01*
X151261904Y-90740476D01*
X151309523Y-90645238D01*
X151404761Y-90550000D01*
X151547619Y-90502380D01*
X151642857Y-90502380D01*
X151785714Y-90550000D01*
X151833333Y-90597619D01*
X152166666Y-90502380D02*
X152785714Y-90502380D01*
X152452380Y-90883333D01*
X152595238Y-90883333D01*
X152690476Y-90930952D01*
X152738095Y-90978571D01*
X152785714Y-91073809D01*
X152785714Y-91311904D01*
X152738095Y-91407142D01*
X152690476Y-91454761D01*
X152595238Y-91502380D01*
X152309523Y-91502380D01*
X152214285Y-91454761D01*
X152166666Y-91407142D01*
%TO.C,C2*%
X132813333Y-81497142D02*
X132765714Y-81544761D01*
X132622857Y-81592380D01*
X132527619Y-81592380D01*
X132384761Y-81544761D01*
X132289523Y-81449523D01*
X132241904Y-81354285D01*
X132194285Y-81163809D01*
X132194285Y-81020952D01*
X132241904Y-80830476D01*
X132289523Y-80735238D01*
X132384761Y-80640000D01*
X132527619Y-80592380D01*
X132622857Y-80592380D01*
X132765714Y-80640000D01*
X132813333Y-80687619D01*
X133194285Y-80687619D02*
X133241904Y-80640000D01*
X133337142Y-80592380D01*
X133575238Y-80592380D01*
X133670476Y-80640000D01*
X133718095Y-80687619D01*
X133765714Y-80782857D01*
X133765714Y-80878095D01*
X133718095Y-81020952D01*
X133146666Y-81592380D01*
X133765714Y-81592380D01*
%TO.C,C1*%
X128427142Y-83666666D02*
X128474761Y-83714285D01*
X128522380Y-83857142D01*
X128522380Y-83952380D01*
X128474761Y-84095238D01*
X128379523Y-84190476D01*
X128284285Y-84238095D01*
X128093809Y-84285714D01*
X127950952Y-84285714D01*
X127760476Y-84238095D01*
X127665238Y-84190476D01*
X127570000Y-84095238D01*
X127522380Y-83952380D01*
X127522380Y-83857142D01*
X127570000Y-83714285D01*
X127617619Y-83666666D01*
X128522380Y-82714285D02*
X128522380Y-83285714D01*
X128522380Y-83000000D02*
X127522380Y-83000000D01*
X127665238Y-83095238D01*
X127760476Y-83190476D01*
X127808095Y-83285714D01*
%TD*%
M02*
